<mxfile host="65bd71144e">
    <diagram id="0G3UqfUbwiGU8wSynE63" name="ページ1">
        <mxGraphModel dx="1671" dy="787" grid="1" gridSize="10" guides="1" tooltips="1" connect="1" arrows="1" fold="1" page="1" pageScale="1" pageWidth="827" pageHeight="1169" math="0" shadow="0">
            <root>
                <mxCell id="0"/>
                <mxCell id="1" parent="0"/>
                <mxCell id="79" value="" style="shape=ext;double=1;rounded=0;whiteSpace=wrap;html=1;strokeColor=none;fontFamily=Comic Sans MS;fontSize=15;fillColor=#f9f7ed;" parent="1" vertex="1">
                    <mxGeometry x="331" y="1100" width="939" height="280" as="geometry"/>
                </mxCell>
                <mxCell id="80" value="" style="shape=ext;double=1;rounded=0;whiteSpace=wrap;html=1;strokeColor=none;fontFamily=Comic Sans MS;fontSize=15;fillColor=#f9f7ed;" parent="1" vertex="1">
                    <mxGeometry x="-14" y="980" width="240" height="284" as="geometry"/>
                </mxCell>
                <mxCell id="83" value="UI" style="text;html=1;align=center;verticalAlign=middle;whiteSpace=wrap;rounded=0;fontFamily=Comic Sans MS;fontStyle=1;fontSize=20;fillColor=default;" parent="1" vertex="1">
                    <mxGeometry x="2" y="995" width="194" height="30" as="geometry"/>
                </mxCell>
                <mxCell id="90" value="" style="shape=ext;double=1;rounded=0;whiteSpace=wrap;html=1;strokeColor=none;fontFamily=Comic Sans MS;fontSize=15;fillColor=#f9f7ed;" parent="1" vertex="1">
                    <mxGeometry x="331" y="779" width="430" height="549" as="geometry"/>
                </mxCell>
                <mxCell id="85" value="Local" style="text;html=1;strokeColor=none;fillColor=none;align=left;verticalAlign=middle;whiteSpace=wrap;rounded=0;fontColor=#333333;fontFamily=Comic Sans MS;fontStyle=1;fontSize=31;" parent="1" vertex="1">
                    <mxGeometry x="348" y="804" width="190" height="30" as="geometry"/>
                </mxCell>
                <mxCell id="91" value="" style="shape=ext;double=1;rounded=0;whiteSpace=wrap;html=1;strokeColor=none;fontFamily=Comic Sans MS;fontSize=15;fillColor=#FFFFFF;" parent="1" vertex="1">
                    <mxGeometry x="351" y="870" width="390" height="490" as="geometry"/>
                </mxCell>
                <mxCell id="92" value="" style="shape=ext;double=1;rounded=0;whiteSpace=wrap;html=1;strokeColor=none;fontFamily=Comic Sans MS;fontSize=15;fillColor=#FFFFFF;" parent="1" vertex="1">
                    <mxGeometry x="719.2" y="1120" width="520.8" height="240" as="geometry"/>
                </mxCell>
                <mxCell id="93" value="" style="shape=ext;double=1;rounded=0;whiteSpace=wrap;html=1;strokeColor=none;fontFamily=Comic Sans MS;fontSize=15;fillColor=#f9f7ed;" parent="1" vertex="1">
                    <mxGeometry x="840" y="480" width="430" height="556" as="geometry"/>
                </mxCell>
                <mxCell id="97" value="" style="shape=ext;double=1;rounded=0;whiteSpace=wrap;html=1;strokeColor=#696969;fontFamily=Comic Sans MS;fontSize=15;fontColor=#000000;fillColor=none;" parent="1" vertex="1">
                    <mxGeometry x="920" y="550" width="270" height="193" as="geometry"/>
                </mxCell>
                <mxCell id="100" value="" style="shape=ext;double=1;rounded=0;whiteSpace=wrap;html=1;strokeColor=#696969;fontFamily=Comic Sans MS;fontSize=15;fontColor=#000000;fillColor=none;" parent="1" vertex="1">
                    <mxGeometry x="918.2" y="762" width="268.8" height="248" as="geometry"/>
                </mxCell>
                <mxCell id="99" value="" style="shape=image;verticalLabelPosition=bottom;labelBackgroundColor=default;verticalAlign=top;aspect=fixed;imageAspect=0;image=data:image/png,iVBORw0KGgoAAAANSUhEUgAAAOEAAADhCAMAAAAJbSJIAAAAYFBMVEUFmYv///8AlIWv1tEAkIAAlocAkoIAj4Dd7esln5KJw7zn8/FfsqhVrqNotax7vbXH4t70+vk1o5dBp5u52taFwrrW6uel0cvC39sjn5KYysTO5eJ4vLO22dTr9fSRx8C3rQpbAAALi0lEQVR4nM1d2ZbqIBCMGIijJmrcHb3+/1/eLEazAFmowqnHmXNCSghdQHcRzOjYLbaP8/KexPv0eg0yXNN9nNyX58d2seM3HzAfvjrcklQoJYTMENSR/0Hk/0qT22XFfAkWw9XhuM/ev8VLh4xpqPbHA4smg+FqngSDyDVoqiCZM1jCGW43ObsR5Go0M5abLfqFsAwf63Aiuw/LcP2AvhOQ4WEdOdKrSEbrA+61UAxPGwGhV5EUmxPozTAM56nC0XuRVOkc8m4Ahv+OSoDplRBi+e8PMFwkEYdfwTFMFl9meIpD9PBsQoax4wfpxHARR1x+BccodupHB4arNbn/3hzDtYPYmcxwt/HEr+S4mbwKmcrwLHjziw5CnL0yPF398is4XqdNOZMY3kPv/HKEd08ML9J/B5YQcsLKYzzDJPoSvxxRQmf4+7UOLCGCXy7D4zc7sES0JDLcpd/twBIiHRUbxzDcAleALpBizIQzguHz+yO0QvRkMIz/wgitIGI4w93PXyKYUfwZ+jEOZLgYtfvZj73zE6QcuKYaxnAL/gTDLWBERMPmm0EM52AdKjcLBXhMOGiragjDG1poh7ML5KsObxiGT8TvXYe4zeaYeUsNiBr9DJfwpZLMhgVo4gr7JVwvwyW6BwORfT5H1NSsein2MXziF7s/2WMTWPAJ+wZqD8MbvAcDlU/yMS68qp7pxs4QHSYyyEJv/QCf2BM0rAy3hP2YsJAiUIUUWkO/jeGCsJiQ5W4S9qeLbALOwnDHWA2qQjDvwJ+3tMhwC8MfAkNZznwrNMOfKQwp60FZPvsXLpPM60UjwyeDoHhNexhZWodZv5kYotdLJa6vp4NkaR3GtZSB4T/Kiv49raNkaR3CMNsYGKaMeVTuq8fDZGn96ekYhkdKF37CFk6W1iCOwxn+Uj5C+TlzAMrSGiLthr+WIWfjN/p8KCmlgSoW9TOkjKFA1lZypL1zqTuZ0jC8cPa2Ra0J1glrdBnEkPMD18/h0bL0A8047TK8cza3r7Um0LL0A9E9CO8wPHFGkKqPnxONYRB20hk6DK+Uhj/BPgdeln7QWWW0GZ45jYeNNSpBlr7RybtpMdxx2m5N4wxZ+kZbn7YYbkhd2MwTZcjSN8TGxvAfZ5qRLcXIkRQVWj9nk+GaFAtbnwZHllaQazPDBacLOx8/SZZWaE5rDYas37ZFkCVLK8jGpk299RNHkKpO8QQv4JeITgaGnC7srr15srRqMtYzJH2FXR3Fk6XvNhdahqRl4bpNkClLq0YTHUNSLAy7RSFMWdpt9cOQs/uk2x5iytKq2aWGIamyp0uQK0s77b4Zcn5YbYY9VZZWDc87DEk6Q0OQLEtfSNsMIUlKHXSDfQ6uLK2aXrQYbiit6jfaybK0hNy0GHK28fVZ534yjUWTISVEScOxpZ96FHFpMKQsDEN9xRldlpaoxNSLIaPR9nZCBb4sLaHqDB+MQaoMR5Z8WVpCPGoMGYNUmLKxPMjSAq9hGtAGqfaoK4cHWVpCfRgisq47jzd6P/iQpQXKwpOCIUMomnN4lr76sNzELBgSnq7MJWZeZGmJiiFh+jYF+xxeZGkBtXoxJHz6hmBfwIssLVAsoQLKsJG2il2PRe7JiyH+0aGtKMlnmXTJEP8ZGoN9Dk+ytED+IWYMD/DP0Bjsc/iSpTnEoWAIj4bCmlruS5bmyCNixnCPZmhJ2J35k6U58vSBAP/lK3vVnDdZmiPMGcJzrnsKWL3J0hzZVBPAR421NGDmUZbmEJeMIfg3tQb7HEkoxsLhbW4ZQ7CiMa3s37jMx+Ix/W0yVROAZaIcUSk/FC7fUZoxxE40upMYV7i8j5oFWBFlD/bT4JSIpnYB9sDi2v/Co+E096pFAN2jsdfJTYObqBTbALlV2syxxMDx8F08gjMwWITOJoddOG7lynOwBLqOjjdx6oVryrJcBnccw4jgzu268JH3ACdp5EgDpyG4uM70MgliCLviYXiCgC2kGOAU88JkY0MLAFnn+wAnS/EEEWfvaYCqPlCaghxXIOZ5WHUFJdj/HXOxgBPsPR7h9EOTY+kMUr7rRGhyLJ0B3+V0QbugAgGY7QhkrmGs7EGT4BUSDxnBHrVxnGI0DZ4g7JRxj9CljGD/RDGMAWsLk5mBC2D7Y9nawn192C2ocAcs2MuN+xr/bwf7bI3vvE/zt4O9PDvvtZlyLF0A9BgTD+f9UoUniHRzE1vXPW9r2sVEIE+J1cL53AJPEJpSpHaOZ0/6ggo3QD24hOv5IWFlv4MuC1PHM2B5fIw+0e3bNgZuUb/OgJ3O8eXoM/moJ3yuoJszxTk+PunLiqinC7HZp0Uuhs88s6B3sQz2Gyzyaei14030nBIjrVuDQo8w8tps6NlXfWB/7ldem4+Szk+b9pUI+FVeuYlepxppFeo38Ku88ktXPnderRlF8PThV46wx9Tynm05aLDPkR9pcnL1zRAWIQsfTO9cfZ85rcJyXRO81ORdb+Ez5ivzGRXecfNdM8OoezLBsqtDqKWZVQw5pepamGXpAT6SyshEqz80wCxLCW196g89SlOjLCWY/dVqSFkuZl2YZSmhQrBeB0yp5ba02gXBHadRy+1tmJpkKSPtolGP722YmmQpof2Wp4KvYiSDLGXYwrZ8MUgeSt1m9bKUYQHf8jbxFfT1shQf7DX+NByPoQ70spTaEtsnqgWtLKU4+3Z8ojwtobRnccy7Qvh+be2GNQQpO2EavzY/dYEaWUpxM9R67pF8ExvQyVKOgZPON9HHdo3OCJPxw+q9L33kc2pkKWXH3eBf6sF0pCtLnQsqtM0YPGhZPsI1dGUppRmjjzC/E0XbWokS7M1e0PwvsXNlOOdaKbOfN32Z2JalwMK5D2ye7PRDmpYsxaZdvBtp+hv5uRuhQkuWci62st6NwFanTYacz74tfT3dUVKh0RYl2PfdUcK6Z6ZEU5Yy7nHVaHtfdwUVaM5ylN9ywF1BrPuecjR8TyhL7iH3PTEPvUVdllJ+yEF3drHuXQuaswCsoKKOgfeu8RaKtd1Simvb0LvzeOO0Jkspv+Lg+w9Jd1jWZSkl2I+4w5K1K/WRpYxgL/SOBz7vkv2INkawH3eXLOn+tbB6PCPYj7wPmHSn8+vhjGA/9k5nzr3clSwlfALj7+Vm3K1eyVLCjzflbvXZ7AeeKViKRsLKXlrsNi0Md/BEunIkwXMsM4aWIg5b3dICPNuUspSwF2Q1o7RWZoHDVrlbit+UtXuo2WvP5lCKhSwFF1RkCO0+fz3VdTfk+6h8/Q0uqMie2lMB2Vc/+AT2Yi5LwQUV2UP7zDZ7KySXuFfKrU1hD3sh7DUY668BXcJ6McIXVPQTHMBw9oT1Inxlb9ZqoxjObqBe3KMPDcIhZdaDKpUxQUOud1gJ0RMmxjDEhH65xG7OGNdLUxjOFgLwctCtCykGuosNraffXf0W0/ZB/Aw12hzuGBD7rTW1Q/VY209iOHv+HQu8aIRr+BjXhy3iYwRAdhIeUAxnu/QvfIwiHeV1O9K54/j9kRqNtLod603yK787UqW0FDBCGM5myTe7MRpvNz3BX2b7tW6UcoLn+yQHnft3ujHquxwEx3B2+oLCET/TfOGmuiCdXe5GmcJvsvvkZJ+n3Sb0eEVcuJns9+7gZLVae+Iow7XlskEiw2xNFUcest+j2MmF2dGN7BST+1GGsaPxpLPf2iKJeHOOCBNnF22Ao9y/peJwFGIJcJ3EeObNUwU/bFQp5t4hlCvgYiOAq0cpxAZl8g70PTysIwhJKdQaaFaIdXZ8rENHklKEa+N915MA9668bAI1kWXWecEG7ivNcOdczZOc5RiaMmMnk7mDdDGCwTDH6nDcq0E0c3Jqf3ww2OVgMSywOtySVGVEM6YtrvkfREZNpcntwCJXgMqwxG6xfZyX93W8T8t8tmu6j9f35fmxXRBuiGrjP99HhJdtBVRiAAAAAElFTkSuQmCC;" parent="1" vertex="1">
                    <mxGeometry x="952.6" y="799" width="200" height="200" as="geometry"/>
                </mxCell>
                <mxCell id="101" value="FastAPI" style="text;html=1;strokeColor=none;fillColor=none;align=center;verticalAlign=middle;whiteSpace=wrap;rounded=0;fontColor=#333333;fontFamily=Comic Sans MS;fontStyle=1;fontSize=17;" parent="1" vertex="1">
                    <mxGeometry x="924" y="768" width="110" height="30" as="geometry"/>
                </mxCell>
                <mxCell id="102" value="SQLite(DB)" style="text;html=1;strokeColor=none;fillColor=none;align=center;verticalAlign=middle;whiteSpace=wrap;rounded=0;fontColor=#333333;fontFamily=Comic Sans MS;fontStyle=1;fontSize=17;" parent="1" vertex="1">
                    <mxGeometry x="924" y="559" width="126" height="30" as="geometry"/>
                </mxCell>
                <mxCell id="104" value="" style="endArrow=classic;html=1;exitX=0.5;exitY=0;exitDx=0;exitDy=0;strokeWidth=5;strokeColor=#696969;endFill=1;startArrow=classic;startFill=1;" parent="1" edge="1">
                    <mxGeometry width="50" height="50" relative="1" as="geometry">
                        <mxPoint x="1052.6" y="791" as="sourcePoint"/>
                        <mxPoint x="1053.7938489208632" y="722" as="targetPoint"/>
                    </mxGeometry>
                </mxCell>
                <mxCell id="106" value="" style="shape=ext;double=1;rounded=0;whiteSpace=wrap;html=1;strokeColor=none;fontFamily=Comic Sans MS;fontSize=15;fillColor=#f9f7ed;" parent="1" vertex="1">
                    <mxGeometry x="1350" y="1084" width="310" height="286" as="geometry"/>
                </mxCell>
                <mxCell id="107" value="" style="shape=image;verticalLabelPosition=bottom;labelBackgroundColor=default;verticalAlign=top;aspect=fixed;imageAspect=0;image=data:image/jpeg,/9j/4AAQSkZJRgABAQAAAQABAAD/2wBDAAsJCQcJCQcJCQkJCwkJCQkJCQsJCwsMCwsLDA0QDBEODQ4MEhkSJRodJR0ZHxwpKRYlNzU2GioyPi0pMBk7IRP/2wBDAQcICAsJCxULCxUsHRkdLCwsLCwsLCwsLCwsLCwsLCwsLCwsLCwsLCwsLCwsLCwsLCwsLCwsLCwsLCwsLCwsLCz/wAARCAC7ALsDASIAAhEBAxEB/8QAGwABAAIDAQEAAAAAAAAAAAAAAAEHBAUGAwL/xABEEAACAgEBBAMKDAUDBQEAAAABAgADBBEFITFBElFxBhMUIjJSYYGRsRY0VXJ0k5Shs8HR0kJUYuHwFSOCQ1Njc/GS/8QAHAEAAgMAAwEAAAAAAAAAAAAAAAUDBAYBAgcI/8QAMhEAAQMBAwkIAwEBAQAAAAAAAQACAwQFEUESEyExUXGBobEVIjJSYcHR4QYU8PEjkf/aAAwDAQACEQMRAD8AtuIiCEiIghIiIISIiCEiIghIiIISIiCEiY+XmYeDQ+Rl3JVSugLPrvY8FVRvJ9AE4raPdrl2Fq9mUimvXQXXhXub0qnkD16yKSZkfiKu0tDPVn/kNG3Bd7I1Gumo16tRrKfyNpbUyyTk5uVaDv6LWuEHYikL90xPfKZrhg1PG/jriO9Jcd1/uFdkSnMfO2jikHGy8mn0V2uFPauun3Totn92e0aSibQrXKq1ANlYWu9R16DRD7B2yRlYw+LQq89gzxi+Mh3I/wBxVgxMTA2jgbSpF+HctiDQOOD1sf4bEO8GZcuAgi8JA5rmEtcLiEiInK6pERBCRErTug7oMraORdRRaybPrZq0Stivf+idDZYRvIPIcNPTOrnBoVSqqm0zcp2s6grEOXhKSrZOOCNxBurBHaCZHhuB/N4319f6ym9F6h7BGg6h7BIs76JP2y7yc/pXJ4bgfzeL9fX+seG4H83jfX1/rKdqqsuOlFNlxHEUVPbp9WDPqyi+ka3419I676LKh7XUCGd9Fz2w+6/I5/SuDw3A/m8X6+v9Y8NwP5vG+vr/AFlN6L1D2CNF6h7BDO+i47Zd5Of0rk8NwP5vG+vr/WPDcD+bxfr6/wBZTei9Q9gjReoewQzvojtl3k5/SuTw3A/m8b6+v9ZjZu2NmYONdkvkU2CtfFrqtRrLHO5UUA8/78pUmi9Q9gjQDgB90ilqMht9ye2E+S1arNZNzRpcb8Pk/JwWdtPambtXIORktuGopqUnvdKH+FB7zz+4YURFLiXG8r1uONsbQxguASIkThd1MREELJwc/M2dkJk4lhSxdzA6lLE13pYvMf4NDLR2RtXG2viJkU+K6noZFJOrU26alT6DxU8x7BUs2mwdqNsraFNxY+DXFaMxeXemO5+1Tv7NeuWqacxuuOopLatnNqoy9g745+nwrXiQCCAQQQeGnAyY5WBSIiCF4ZhK4uYynQrj3kEcQQhMpocF7B7pcmb8Tzvo2R+G0pscF7B7pBLgs5bPiZx9k9RPAAAakk7gABznc7D7kalSvK2wgstYBq8Mn/aqHEd+08puscB6eM1fcfs5MzaVmVaoarZyo6AjccmzUIf+IBPbp1TtNs7Uq2RhPksA9jEVY9ZOnfLSCRrpyG8ns9MGNF2UV1s+ljEZqJtQ1cMVnolVKBK0SutBoFQKiKPQBoJ9eJYp8l0YEHgykenlKgzdo7R2jY1mZkWWkkkISRUg6krHiieWNmZWHYLcXIsosU8an6OvoYcCPQROc6FObYYHXBmj+wXZd1Oxtg42M2ZWVw8pm0qqpUd7ym4kd6G4elhp6ddZxEyc/aOXtLIOTl2h7OiEUDQIij+FF4Ac5i6g8CD2SJxBOhJquZk0hdG24JJkROiqpJiJSqD3rl65+DwBtHJNi513AAfJUSZE+LXNdVzjilbMO3TdK63hNwvKxcrONbNVT0SynR3I1APUo4TB8Kyyel3+zX5272cJ4xL7Y2tF1yz0lRJI6++5bHGz2LBL9NCdA4AGh/qA3TYznZvMVy+PQx49HQnr6JK6yvKwDSEwop3PvY7Be0jcdx4HceyIkCZK0+5rLbM2Ls6x21sqRsWw8y1DGsE9oAPrm5nJ9wzk7Oz05JtBtP8AlTWZ1kfQuyowV5paEYiqZGjVf1SIiSqksfN+J530bI/DaU2OC9g90uTN+J530bI/DaU2OC9g90glwWctnxM4+y77uGCeAbTYeUc/RuwUV6fnMXu6azvmx0/6fQy2HUX1rB+73zw7ic1acvMwXYAZaLdTrztqBDL2kb/+M6Tuj2Q21sELT0fC8Zjdj9I6B9Ro1ZJ3DpcvSBORpZcFNG0z2fks1/BvVWv5FnzG90tnE2VsdsXDZtm4DM2PQWLY1JJJRSSSVlVWV2VWWU2oyWoStldilXU9TKd8yxtfbaBEXaWeB4qVouRd2BVUH2CRscG60roqllO52cbferR/0nYnyZs/7LR+2c53YYGzsbZmPZjYmLRZ4dUhaimutipqt1BKAbtw9k2fc1i7Xow7L9qZGVZk5TK605Nr2HHqUaKpDE6Md5b1DlNP3cZa9HZuCG8bpPl2DqABqT26t7JM7w3p5VFhpS8tuvC4iJMSqsmoiTEp1DdIK9V/BqtroJKU6wcrgQB1HNRIdQ6Oh4OrKfWNJ9RKy9DIv0Ln3R62ZGGjKdCJ8zd341N+hYEOBoHXjp1GYh2Y+u65dPmHX3y42ZpGlI5KKRru6LwsAAkgKCWJAUDiSeU3tNfeqqq+JRQCes8TPKjEpoPSGrWaadNuWvmjgJkyGWTK0BXqSmMV7nayokxJVLbGrqqUvba6VVIOLWOeio9shV/UrB7iaimybrSNPCM+919K1qlOvtUzqZh7Nwk2fgYOEh1GNSlbN5z8Wb1nU+uZkfxNyGBq8xrJhPO+QaieWCRESRVVj5vxPO+jZH4bSmxwXsHulyZvxPO+jZH4bSmxwXsHukEuCzls+JnH2X3VZbTZVdU7JbU62VuvlK6nUESyth90eHtRK6bmSnPCgPUx0W0+dST19XEeniazj/7I2uLUtpKt9M69ukHBW/l7N2ZnaeGYePeVHim2tSwHobyvvnxi7I2Lgv3zFwMaq3lYlY74Ox21b75W2Pt/ugxVC07Qv6IAAW3oXAAch34MZ62903dLcpVtoWKD/wBmumo//qtA33yXON2Jv2pTk5RZp3DqrC2ptfZ+yaTZkuO+EHvNCkd9uP8ASOrrPD86uzs3I2hl35d5HfLm10Hkoo3Ki+gDd/8AZ4WWW2u1lru9jnV3sZndj1lm3z5kb35SV1lc6qN11wGCiTEAMxVVVmZmCqqglmY7gFA5yNUEAZiqqpZmYKiqCWZjuCqBzM2+TsLKxcBctm1uUlsmpdCKqyAAQw4kfxdvo1O52NsZcIDJyQrZjA6DiuOpG9VPnecfUN3lbkgEEEAggggjUEHcQQZla+2P+gZDpaNZ27vReh/jtnyULxVyaHHD0O316b1WsmbPbGzG2feGrBOLeSaT5h4msn0cvR2TWRjFI2Voe3UV6lHI2Roe3UVESZEkUiSZEmCEnXdxuxzdb/rF6f7VJevADDy7PIe7fyG9V9fVNHsXZF22c1ccdJcaro2Ztq7ilZ4Ip85t4HVvPLfatNVVFVVNKKlVSLXWiDRURRoABL1JDlHLOoLN23X5pn68Z7x1+g++i9IiI1WLSIiCFj5vxPO+jZH4bSmxwXsHulyZvxPO+jZH4bSmxwXsHukEuCzls+JnH2SJMiQJCkmRJghRJkSQGYqqqzMzBVVRqzMdwCgczBCAMxVVVmZmCoqglmY7gqgc52Gx9jLhAZOSA2Yy7huK46kb1U+cf4j6hu8psbY64Srk5IVsxhuG4rjqeKqfO84+obvK3UyFqWpnb4YT3cTt+uq3djWNmbqioHewGz76KIiLEsTo9JSAw1GvOKKOjkrJM3HxOxaaWVsTbyvDLx6Mui3HuGqWDiOKsODL6R/nGcHl412HkW49o8es7iODqd6uvoP+cJYE1W28DwzGNta65GMrOmnF6+LJ+Y/vN62zo6eEMi1jmizLTdHNkyHuu5H+1rjYkyJTW4SelVV19tVFK9K21giDlrzJPUOJ7J5zqu5/A7zT4bav+9kLpSDxroO8Htbj2aSWGIyOyVRr6xtJCZDrwHqun7nMKjAxLaK956aNbYRobLCu9j+Xom7mu2V5OR89PcZsY9aA0XBecSPdI4vebyUiInK6JERBCx834nnfRsj8NpTY4L2D3S5M34nnfRsj8NpTY4L2D3SCXBZy2fEzj7JERIEhSTIkgMxVVVmZmCoqglmYnQKoHOCEAZiqqGZmIVFUaszE6BVA5zsNjbGXCAyckK2Yy6AbiuOp4qp87zj6hu8psbYy4QGTkgNmMNw4rjqeKqfO84+obvK3UyFqWpnb4YT3cTt+uu5buxrGzN1RUDvYDZ6n16b1ESd53TSZfdAuNlVJjV13102a5DN5NnIpUR1dfWOrjQsuyqm1ZszTC86ycAPX2GK0NVVR0rMqQrpsfH00ssG/iqnl6TMh0SxSrDUH2g9YnliZeLnUV5OM/TrfUb9zIw4o45Ec/wBDqfeeg0tCyhZmWi4jXtJ9f7Qk75jMcu9aq6l6W0O8HyW5ETz3jeOPKbexEsUow1B9oPWJrLqXpbQ7wfJbkRLS6Lh9tYQw81+gulOQDfUBwXU+Mg7D9xE1k7Lb2ML8B7ANbMVhcOvoHRXHuPqnHRLUR5D9GK9DsmqNTTAu1jQf7csvZ2H4dmUY5B70Nbcj/wBSaaj17h653egGgAAA3ADgB1CaLubxgmLdlMPGybCqH/xVEqPadTN7L9LHksv2rMW1VGaoLBqbo44/HBbTZXk5Pz09xmxmu2V5OR89PcZsZcSNIiIISIiCFj5vxPO+jZH4bSmxwXsHulyZvxPO+jZH4bSmxwXsHukEuCzls+JnH2SJMAMxVVVmZmCqqglmY7gFA5yBIUAZiqqpZmYKiqCWZjuAUDnOw2NsdcIDJyQGzGXcNxXHU/wqfO84+obvKbG2MuEBk5IVsxhuG4rjqRvVTw6XnH1Dd5W6mQtS1M7fDCe7idv113Ld2NY2ZuqKgd7AbPXf03pG8kaRx0HXOc2vtfpdPExH8XeuRch8rka6yOXWefZxpWTZNRatQIIBvOAG0+wxWgq6uOljy38BtU7X2v0uniYb+LvW+5D5XI11kcus8+zjz8RPoOybKp7KpxTwDecSdp/tCwNVVSVUmXJ/iztmbTytl5HfavGrfQX0k6Lao9zDkfyOksLEy8XOorycZ+lU+o37mRhxRxyI5/oZV8ztmbTytl399q8ep9BfSTotqj3MOR/I6TpaVmipGcj0PHNSUtUYjku1dFZM+XRLFKsNQfaD1ieWJl42dRXk4z9Kt92/cyMOKOORHP8AQ78iYpzS0lrhcQn4IIvC1GRjEdOmwA12q1ZOm4q4Kn3yt7EeprayPHrZ69P61JXSW46JYpVhqD7QesSvNoYfe+6U4p0ItzaLwPOrcC8tp7dYvrGXhp4LS2DPm3SNOq6//wA/1dNi0jGxsXHHCmmuv1gbz7dZ7REugXC4LOucXuLjrK2myvJyfnp7jNjNdsrycj56e4zYzsuqREQQkREELHzfied9GyPw2lNjgvYPdLkzfied9GyPw2lNqGbvaqrMzdFUVRqzMdwVQOcglwWctnxM4+ykBmZVVSzMwVFUEszHcAoHOdhsbYy4QGTkhWzGXQDcVx1I3qp87zj6hu4tjbGXCAyckK2Yy7huK46kb1U+d5x9Q3eVuZibUtTO3wwnu4nb9ddye2NY2ZuqKgd7AbPU+vTeknjygAk6DnwnObX2v0u+YmG/i71vuU+VyNdZHLrPPs40rJsmotaoEEA3nADafYYrQVdXHSx5b+A2qdr7XDCzDxH8Xel9ynyuRrrPV1nnw4cefkRPoOybKp7KpxBAN5xJ2n+0LA1VVJVSZx/+JJkRGyqpERBCz9mbTytl5HfavGqfQZFJOi2qPcw5H8jpLCxMvGzqK8nGfpVvu37mRhxRxyI5/od9XTP2ZtPK2Xkd9q8ap9BkUk6Lao9zDkfyOkTWlZoqRnI9DxzV6lqjEcl2rorJnnZRRaek9aF+j0Q/RXpgdQbTX758YmXi51FeTjP0633b9zIw4o45Ec/7z3mKc0tOS4aQn7XXi9p1rVXUvS2h3g+S3Iiec27olilWGoPtB6xNZbS9LaHeD5LciJ1XK2GyvJyPnp7jNjNdsrycj56e4zYzlCREQQkREELwzAxxM0KCWONeABvJJrbQCcVsXY64SJk5IDZjJoBxXHUjeq/1ecfUP6u7YdIMDwIIPrGk0Lo1btWw0ZSR/eZf8hmljja1nhN9/wAKxS0sUswleLy3V8r4k8dwjQnQTndr7X6XfMTDfxd633KfK666yOXWefZxztk2TUWrUCCAbzgBtPsMUyq6uOljy38BtTa+1w3fMPDfxd633IfK5FKz1dZ59nHn4ifQdk2VT2VTingG84k7T/aFgaqqkqpM5J/iiJMRsqqiJMQQoiTEEKJMRBCztmbTydl399q8ap9BkUk6Lao9zDkfyOksLEy8XOorycZ+lW+7fuZGHFHHIj/Nx31fM7Zm08rZd/favHqfQX0k6Lao9zDkfyOkTWlZoqRnI9DxzV+lqjEcl2pWTPl0SxSrDUH2g9YnliZeNnUV5OM/Srfdv3MjDijjkRz/ALzImKc0tOS4XFPgQReF84FT0+Eqd4LoVbrGhmbPOlSFJP8AEdfVPScLlIiIISIiCEnjdjU3gdMEMNwZdzD0T2iRyxMlaWSC8FctcWm8LT5mxbMmlqas6ygPusZakZ2TzQSRprz/AM10/wACK/lO77PX+6dhEnoHmzozFS90E36hr3nSop421DsqXSVx/wACK/lO77PX+6PgRX8p3fZ6/wB07CIw7Vq/PyHwoP04fL1XH/Aiv5Tu+z1/uj4EV/Kd32ev907CIdq1fn5D4R+nD5eq4/4EV/Kd32ev90fAiv5Tu+z1/unYRDtWr8/IfCP04fL1XH/Aiv5Tu+z1/uj4EV/Kd32ev907CIdq1fn5D4R+nD5eq4/4EV/Kd32ev90fAiv5Tu+z1/unYRDtWr8/IfCP04fL1XH/AAIr+U7vs9f7o+BFfynd9nr/AHTsIh2rV+fkPhH6cPl6rndmdzd2y7++07Ttat9BfS1FfQtUcNdG1BHI/rpN8tKg6nU9vCekSlNO+d2XIbyrEcbYxkt1JERIV3SIiCEiIghIiIISIiCEiIghIiIISIiCEiIghIiIISIiCEiIghIiIISIiCF//9k=;" parent="1" vertex="1">
                    <mxGeometry x="1404.35" y="1140" width="201.3" height="201.3" as="geometry"/>
                </mxCell>
                <mxCell id="108" value="GoogleMAP" style="text;html=1;strokeColor=none;fillColor=none;align=center;verticalAlign=middle;whiteSpace=wrap;rounded=0;fontColor=#333333;fontFamily=Comic Sans MS;fontStyle=1;fontSize=17;" parent="1" vertex="1">
                    <mxGeometry x="1434.6" y="1103" width="140.8" height="30" as="geometry"/>
                </mxCell>
                <mxCell id="109" value="" style="endArrow=classic;html=1;strokeWidth=5;strokeColor=#696969;startArrow=none;" parent="1" edge="1">
                    <mxGeometry width="50" height="50" relative="1" as="geometry">
                        <mxPoint x="1254.5" y="1241.7675032594525" as="sourcePoint"/>
                        <mxPoint x="1152.6" y="1242" as="targetPoint"/>
                    </mxGeometry>
                </mxCell>
                <mxCell id="111" value="" style="endArrow=none;html=1;strokeWidth=5;strokeColor=#696969;" parent="1" target="110" edge="1">
                    <mxGeometry width="50" height="50" relative="1" as="geometry">
                        <mxPoint x="1404.35" y="1241" as="sourcePoint"/>
                        <mxPoint x="1152.6" y="1241" as="targetPoint"/>
                    </mxGeometry>
                </mxCell>
                <mxCell id="110" value="API" style="text;html=1;strokeColor=#666666;fillColor=#f5f5f5;align=center;verticalAlign=middle;whiteSpace=wrap;rounded=0;fontFamily=Comic Sans MS;fontStyle=1;fontSize=17;gradientColor=#b3b3b3;fontColor=#121212;" parent="1" vertex="1">
                    <mxGeometry x="1254.5" y="1225.65" width="103" height="30" as="geometry"/>
                </mxCell>
                <mxCell id="112" value="" style="shape=image;verticalLabelPosition=bottom;labelBackgroundColor=default;verticalAlign=top;aspect=fixed;imageAspect=0;image=data:image/jpeg,/9j/4AAQSkZJRgABAQEAAAAAAAD/4QAuRXhpZgAATU0AKgAAAAgAAkAAAAMAAAABAAAAAEABAAEAAAABAAAAAAAAAAD/2wBDAAoHBwkHBgoJCAkLCwoMDxkQDw4ODx4WFxIZJCAmJSMgIyIoLTkwKCo2KyIjMkQyNjs9QEBAJjBGS0U+Sjk/QD3/2wBDAQsLCw8NDx0QEB09KSMpPT09PT09PT09PT09PT09PT09PT09PT09PT09PT09PT09PT09PT09PT09PT09PT09PT3/wAARCAHaAdoDASIAAhEBAxEB/8QAHwAAAQUBAQEBAQEAAAAAAAAAAAECAwQFBgcICQoL/8QAtRAAAgEDAwIEAwUFBAQAAAF9AQIDAAQRBRIhMUEGE1FhByJxFDKBkaEII0KxwRVS0fAkM2JyggkKFhcYGRolJicoKSo0NTY3ODk6Q0RFRkdISUpTVFVWV1hZWmNkZWZnaGlqc3R1dnd4eXqDhIWGh4iJipKTlJWWl5iZmqKjpKWmp6ipqrKztLW2t7i5usLDxMXGx8jJytLT1NXW19jZ2uHi4+Tl5ufo6erx8vP09fb3+Pn6/8QAHwEAAwEBAQEBAQEBAQAAAAAAAAECAwQFBgcICQoL/8QAtREAAgECBAQDBAcFBAQAAQJ3AAECAxEEBSExBhJBUQdhcRMiMoEIFEKRobHBCSMzUvAVYnLRChYkNOEl8RcYGRomJygpKjU2Nzg5OkNERUZHSElKU1RVVldYWVpjZGVmZ2hpanN0dXZ3eHl6goOEhYaHiImKkpOUlZaXmJmaoqOkpaanqKmqsrO0tba3uLm6wsPExcbHyMnK0tPU1dbX2Nna4uPk5ebn6Onq8vP09fb3+Pn6/9oADAMBAAIRAxEAPwD2WiiigAooooAKKKKACiiigAooooAKKKKACiiigAooooAKKKKACiiigAooooAKKKKACiiigAooooAKKKKACiiigAooooAKKKKACiiigAooooAKKKKACiiigAooooAKKKKACiiigAooooAKKKKACiiigAooooAKKKKACiiigAooooAKKKKACiiigAooooAKKKKACiiigAooooAKKKKACiiigAooooAKKKKACiiigAooooAKKKKACiiigAooooAKKKKACiiigAooooAKKKKACiiigAooooAKKKKACiiigAooooAKKKKACiiigAooooAKKKKACiiigAooooAKKKKACiiigAooooAKKKKACiiigAooooAKKKKACiiigAooooAKKKKACiiigAooooAKKKKACiiigAooooAKKKKACiiigAooooAKKKKACiiigAooooAKKKKACiiigAooooAKKKKACiiigAooooAKKKKACiiigAooooAKKKKACiiigAooooAKKKKACiiigAooooAKKKKACiiigAooooAKKKKACiiigAooooAKKKKACiiigAooooAKKKKACiiigAooooAKKKKACiiigAooooAKKKKACiiigAooooAKKKKACiiigAooooAKKKKACiiigAooooAKKKKACiiigAooooAKKKKACiiigAooooAKKKKACiiigAooooAKKKKACiiigAooooAKKKKACiiigAooooAKKKKACiiigAooooAKKKKACiiigAooooAKKKKACiiigAooooAKKKKACiiigAooooAKKKKACiiigAooooAKKKKACiiigAooooAKKKKACiiigAooooAKKKKACiiigAooooAKKKKACiiigAooooAKKKKACiiigAooooAKKKKACiiigAooooAKKKKACiiigAooooAKKKKACiiigAooooAKKKKACiiigAooooAKKKKACiiigAooooAKKKKACiiigAooooAKKKKACiiigAooooAKKKKACiiigAooooAKKKKACiiigAooooAKKKKACiiigAooooAKKKKACiiigAooooAKKKKACiiigAooooAKKKKACiiigAooooAKKKKACiiigAooooAKKKKACiiigAooooAKKKKACiiigAooooAKKKKACiiigAooooAKKKKACiiigAooooAKKKKACiiigAooooAKKKKACiiigAooooAKKKKACiiigAooooAKKKKACiiigAooooAKKKKACiiigAooooAKKKKACiiigAooooAKKKKACiiigAooooAKKKKACiiigAooooAKKKKACiiigAooooAKKKKACiiigAooooAKKKKACiiigAooooAKKKKACiiigAooooAKKKKACiiigAooooAKKKKACiiigAooooAKKKKACiiigAooooAKKKKACiiigAooooAKKKKACiiigAooooAKKKKACiiigAooooAKKKKACiiigAooooAKKKKACiiigAooooAKKKKACiiigAooooAKKKKACiiigAooooAKKKKACiiigAooooAKKKKACiiigAooooAKKKKACiiigAooooAKKKKACiiigAooooAKKKKACiiigAooooAKKKKACiiigAooooAKKKKACiiigAooooAKKKKACiiigAooooAKKKKACiiigAooooAKKKKACiiigAooooAKKKKACo0mWR3VTkocHHY+lUNU1B4JYbK0wb66zsB5EaD70hHoM/iSBV22tktbdIo8kL1J6se5PuTzQBNRRRQAUUUUAFFFFABRRRQAUUUUAFFFFABRRRQAUUUUAFFFFABRRRQAUUUUAFFFFABRRRQAUUUUAFFFFABRRRQAUUUUAFFFFABRRRQAUUUUAFFFFABRRRQAUUUUAFFFFABRRRQAUUUUAFFFFABRRRQAVna5rVtoGly312WKphVRBlpHPCoo7knirs00dvC80zqkcalmZjgADqTXE6EZPHGvr4huUZdHsXKaZCw/1r9GmI/RfT60Ab3hzTbmKOXUdV2nVL3DTKDkQr/DEvsoP4kk1uUUUAFFFFABRRRQAUUUUAFFFFABRRRQAUUUUAFFFFABRRRQAUUUUAFFFFABRRRQAUUUUAFFFFABRRRQAUUUUAFFFFABRRRQAUUUUAFFYvi/VbjQ/Cmo6jabPPt4S6bxkZ968/8Ah98W7rXNeGma+LeM3AAt5I12jf8A3Tz3/nxQB61RRRQAUUUUAFFFYfjTV7nQPCOoalZhDPbxhk3jIzuA5H40AblFeKaX4++I+uWQu9M0m3ubcsVEiQcZHXq1Xf8AhJvit/0L8X/fgf8AxVAHr1FeQ/8ACTfFb/oX4v8AvwP/AIqj/hJvit/0L8X/AH4H/wAVQB69RXkP/CTfFb/oX4v+/A/+KrtPBd/4l1LSLtvEtoljeiQrDiPA27euMnPOfyoA6qivLtE+I2rWXjiXw94wjtoSzBIZokKLu/hPJ5Vh37GvUaACiiigAoNFcH8S/GU2iWsWj6Nuk1vUPkiWPlo1PG76noPxPagCl4m1Kfx14nHhHSZWXTrch9VuU9Af9WD79Pr7A16FZ2kNhaRWtrGsUEKBI0UYCgcCuK0zw5feBfh9PHokC3euOFklJG7zJCRkdsgAkfrXO/8ACTfFb/oX4v8AvwP/AIqgD16ivIf+Em+K3/Qvxf8Afgf/ABVUtU8ffEfQ7I3ep6Vb21uGCmR4eMnp/FQB7XRXjFh42+JeqWUV5Y6NBPbSjKSJBw3OP73qDVn/AISb4rf9C/F/34H/AMVQB69RXkP/AAk/xW/6AEX/AH4H/wAVXp+hzXtxolnLqkQhvXiUzRgY2v3FAF+iiigAooooAKKKKACiiigAooooAKKKKACiiigAooooAKKKKACiiigAooooAKKKKACiiigAooooAKKKKACiiigDmfiR/wAk91v/AK9z/MV5DoHgpvEXwuk1LTkP9q2N5I8ZThpECqSv1HUe/HevXviR/wAk91v/AK9z/MVgfA3/AJEJ/wDr9k/9BWgDT+GvjJfF3h4faHA1K1xHcr3b0f6HH5g12VePeMNOufhz40g8V6RGTpt0+y8hQYAJ6j6HqPRhXq+nX9vqmnwXtpIJLedA6MO4NAFqiiigArlfid/yTnWf+uI/9CFdVXK/E7/knOs/9cR/6EKAMj4Jf8k9T/r6l/pXoNeffBL/AJJ6n/X1L/SvQaACiiigAooooA4H4p+B/wDhJ9GF7ZR/8TSzUmPHWVepT69x78d6Z8KvHJ8R6UdO1F/+JpZLtYt1lQcBvqOh/PvXoNeMfEnw7d+D/EcHjHw+PLjMoNwijhXPUkf3W6H3PvQB7PRWP4X8RWnijQoNSs2+WQYdD1jcdVP+emDWpPNHbQPNO6xxxqWd2PCgckmgDJ8U+JLTwroM+pXhyE+WOMdZHPRR9f0Ga4j4ZeH7vWNQn8aa+N93dk/ZVYfcXpuA7DHA9hmsMGf4wePRxInh3TTnHTcP/inx+CivaYokgiSOJFREUKqqOAB0FAEgooooAK8++Nv/ACT2T/r5i/rXoNeffG3/AJJ7J/18xf1oA1vhd/yTfRv+uTf+htXV1ynwu/5Jvo3/AFyb/wBDauroAKKKKACiiigAooooAKKKKACiiigAooooAKKKKACiiigAooooAKKKKACiiigAooooAKKKKACiiigAooooAKKKKACiiigDmfiR/wAk91v/AK9z/MVgfA3/AJEJ/wDr9k/9BWt/4kf8k91v/r3P8xWB8Df+RCf/AK/ZP/QVoA7jVdLttb0u40+9jElvOhRx6e49wec+1eY+AtTuvA3iufwZrUn+jyvvsJjwDnp+DenZgRXrdcX8S/Bv/CU6GJrMbdUssyWzL1buUz74yPcCgDtBRXG/Dbxj/wAJVoIS6O3U7PEdyh6k9nx74/MGuyoAK5X4nf8AJOdZ/wCuI/8AQhXVVyvxO/5JzrP/AFxH/oQoAyPgl/yT1P8Ar6l/pXoNeAeBPCHivWvDi3WieITYWhldRD5si/MOpwvHNdH/AMK48f8A/Q4H/wACJf8ACgD1yivI/wDhXHj/AP6HA/8AgRL/AIUf8K48f/8AQ4H/AMCJf8KAPXKK8j/4Vx4//wChwP8A4ES/4V6lp8E1tp1tDcyebPHEqSSZzvYDBPPqeaALVV76yg1GymtLuNZbeZCkiMOoNWKKAPC9Lubr4Q+PZLC8Z30S9Iw5/u9n+q5wfb8K0vid4tm17UIPCPht/Pe4ZRcPG2Q5PITPoByT/wDXrR+OGpaXH4ft7C4jEupSyB7cA8xAdWPsemO/4VyXwfuLLRPGk1lrFs0GozIIrd5RgxseSuD0LDHP4d6APYPCHhi28J+HoNOt8NIPmmkx/rHPU/0+greoooAKKKKACvPvjb/yT2T/AK+Yv616DXn3xt/5J7J/18xf1oA1vhd/yTfRv+uTf+htXV1ynwu/5Jvo3/XJv/Q2rq6ACiiigAooooAKKKKACiiigAooooAKKKKACiiigAooooAKKKKACiiigAooooAKKKKACiiigAooooAKKKKACiiigAooooA5n4kf8k91v/r3P8xWB8Df+RCf/r9k/wDQVrf+JH/JPdb/AOvc/wAxWD8DxjwCx9byQ/otAHolFFFAHk/jbTrnwJ4sg8ZaPGTZzP5eoQJwDnqfo3XPZgPWvTtN1C31XT4L2zkElvOgdGHcGlv7G31Kxns7uISQToUdSOoNeZeDLy48A+L5vB+qyE2Fyxk06d+Bz/D+PTH94e9AHq1cr8Tv+Sc6z/1xH/oQrqq5X4nf8k51n/riP/QhQBkfBL/knqf9fUv9K9Brz74Jf8k9T/r6l/pXoNABRRRQAUUUUAFZXiPXrTwzotxqV8cRwj5VB5kbso9yf8a0pHWNGd2CqoyWJwAK8O1u9u/i746i0rTmdNFs2yZB029GkPueij/69AFnwBoN3498Uz+LfEC77aOT9zGRlXcdAP8AZXj6n8a3vi54JbVrP+3tLQjUbJcyhBzIg5yMfxL1+n4V6FpunW+k6fBZWcQit4FCIo7Af5zVsgelAHEfDLxwvi3Q/KuXH9p2gCzr/fHZx9e/vXb14b400S7+G3jGDxLoaEWE0h3R/wAKk/ejP+y3JHp+Few6Drdp4h0e31KxfdDOuQD1U91PuDxQBo0UUUAFeffG3/knsn/XzF/WvQa8++Nv/JPZP+vmL+tAGt8Lv+Sb6N/1yb/0Nq6uuU+F3/JN9G/65N/6G1dXQAUUUUAFFcnfa7fQfE3S9GSRRZXFnJNIm0ZLDOOevYVhWureJfGWuatFpOs22kW+nXBgjhMAkkkI/ibPQH2oA9JorC8KXWuT6dIniO1SG8glMfmRkbJ1HRwB0z6fpW7QAUUUUAFFFFABRRRQAUUUUAFFFFABRRRQAUUUUAFFFFABRRRQAUUUUAFFFFABRRRQAUUUUAFFFFAHM/Ej/knut/8AXuf5isL4If8AJP8A/t7k/ktdR4y0y41nwjqWn2Sq1xcQlEDHaM59ay/hj4dv/C/hP7BqiIlx9oeTCOGGDjHI+lAHX0UUUAFcp8QPCC+LNCZIMJqNsfNtJc4w3dc+hx+Bwa6uigDjvhz4tbxLozQX2U1axPk3UbcMSOA2PfBH1Bqf4nf8k51n/riP/QhXO+ONMufCXiOHxto0bNGCI9TgQcOh43fyyfUA+tdJ4jibxl8PrpNFZZjfwAwEttB5B5PboaAMb4Jf8k9T/r6l/pXoNeJaN4S+J3h7TxZaXPbwW4YuEEkZ5PXqK0P7N+L3/P8Awf8AfcX/AMTQB67RXkX9m/F7/n/g/wC+4v8A4mj+zfi9/wA/8H/fcX/xNAHrtFeRf2b8Xv8An/g/77i/+JrodCj8eWWgam2qeReao5UWQaRAq8HJOMcDg474oAwvi14xmllTwlohMl3dELcmPrz0jHueM+3Heux8BeDofB3h+O2wGvZcPdSD+JvQew6frXO/Dn4dXeianc654jKS6o7Hy8Pv2Z+85Pqckew+telUAFFFFAFDWdItdc0q406+jD2867WHcehHoQea8a8K6td/CzxtPoOsOf7LuXBEp+6M8LKPbsfp7V7pXH/ETwRH4x0QpCqJqNvlraQ8ZPdSfQ/oeaAOuUhwCCCD0INOrkfh7ZeItL0JdN8RRR7rbC28yyhyyf3TjuOmfSuuoAK8++Nv/JPZP+vmL+teg1yPxL8PX3ifwk2n6YiPcGZHw7hRgdeTQA/4Xf8AJN9G/wCuTf8AobV1dYHgfSbrQvBunadfKq3MCMsgVtwBLE9foRW/QBFc3EVrbS3E7hIolLux7ADJNc5eeP8AR7TQ7LWI2ln026nEPnxpxEckEuDggAg10zosiFJFDIwwQRwRVYaXYLp5sBZW4s8bfs4jHl46429KAOEj1Sy1/wCMmnTaTOl3Da6dJ50sJ3IpJOBkfUfnVC+i8DeJtV1CXUJZNC1i2lZJWacQOxH8Y7Nn25r0fTdF07R0dNNsba0VzlhDGF3fXHWotR8OaPq0yzahpdndSjo8sKsfzIoA5f4WahfX2l6ilzeTX9nbXbQ2d3KDuljHfnqOld3UdvbxW0KQ28SRRIMKiKFCj2AqSgAooooAKKKKACiiigAooooAKKKKACiiigAooooAKKKKACiiigAooooAKKKKACiiigAooooAKKKKACiiigAooooAKKKKAI54Y7iB4Z0WSORSrqw4YHgivPtAEnw+8VHw/cux0TUnMmmyseIpO8RPv/h6mvRayfEmgW3iTRptPusqG+aOVeGikH3WHuD/AIUAa1Fc14P1q5vIJ9L1cbdY00iO4H/PVf4ZR6hh+ua6WgAooooAKKKKACiiigAooooAKKKKACiiigAooooAKKKKACiiigAooooAKKKKACiiigAooooAKKKKACiiigAooooAKKKKACiiigAooooAKKKKACiiigAooooAKKKKACiiigAooooAKKKKACiiigAooooAKKKKAOd8SaTObm31vSkzqVkCDGOPtMJ5aI+/dT2YVr6dfQanYw3lq+6GZQyk9foR2IORjsRVusVYP7G1R5IhixvHzIo6RTH+Iegbv/tc9zQBtUUUUAFFFFABRRRQAUUUUAFFFFABRRRQAUUUUAFFFFABRRRQAUUUUAFFFFABRRRQAUUUUAFFFFABRRRQAUUUUAFFFFABRRRQAUUUUAFFFFABRRRQAUUUUAFFFFABRRRQAUUUUAFFFFABRRRQAUUUUAFFFFABTJYkmjZJFDIwwQe9PooAit42iiCMxfbwGPUj396loooAKKKKACiiigAooooAKKKKACiiigAooooAKKKKACiiigAooooAKKKKACiiigAooooAKKKKACiiigAooooAKKKKACiiigAooooAKKKKACiiigAooooAKKKKACiiigAooooAKKKKACiiigAooooAKKKKACiiigAooooAKKKKACiiigAooooAKKKKACiiigAooooAKKKKACiiigAooooAKKKKACiiigAooooAKKKKACiiigAooooAKKKKACiiigAooooAKKKKACiiigAooooAKKKKACiiigAooooAKKKKACiiigAooooAKKKKACiiigAooooAKKKKACiiigAooooAKKKKACiiigAooooAKKKKACiiigAooooAKKKKACiiigAooooAKKKKACiiigAooooAKKKKACiiigAooooAKKKKACiiigAooooAKKKKACiiigAooooAKKKKACiiigAooooAKKKKACiiigAooooAKKKKACiiigAooooAKKKKACiiigAooooAKKKKACiiigAooooAKKKKACiiigAooooAKKKKACiiigAooooAKKKKACiiigAooooAKKKKACiiigAooooAKKKKACiiigAooooAKKKKACiiigAooooAKKKKACiiigAooooAKKKKACiiigAooooAKKKKACiiigAooooAKKKKACiiigAooooAKKKKACiiigAooooAKKKKACiiigAooooAKKKKACiiigAooooAKKKKACiiigAooooAKKKKACiiigAooooAKKKKACiiigAooooAKKKKACiiigAooooAKKKKACiiigAooooAKKKKACiiigAooooAKKKKACiiigAooooAKKKKACiiigAooooAKKKKACiiigAooooAKKKKACiiigAooooAKKKKACiiigAooooAKKKKACiiigAooooAKKKKACiiigAooooAKKKKACiiigAooooAKKKKACiiigAooooAKKKKACiiigAooooAKKKKACiiigAooooAKKKKACiiigAooooAKKKKACiiigAooooAKKKKACiiigAooooAKKKKACiiigAooooAKKKKACiiigAooooAKKKKACiiigAooooAKKKKACiiigAooooAKKKKACiiigAooooAKKKKACiiigAooooAKKKKACiiigAooooAKKKKACiiigAooooAKKKKACiiigAooooAKKKKACiiigAooooAKKKKACiiigAooooAKKKKACiiigAooooAKKKKACiiigAqG6uktIg7hmywUKoySTwKmqC7thdRqhd02sHDIRkEHPegBkV/byhcSqGb+Fjhh26Hvnilkv7WJctPH03ABhkj29aqPoNq4YM0pVjuYbur9N+euefp7UDQLMJIqq4DjB56DIPH0wKALa6halN3nxgcZywGM9M1Hcara28c7l94gALhPmIycY+uaqyeHbWSMRl5tgGFGRwPTpzyc85qQaHbfZpbdjI0ciqmCRwoOQOnqT1zQAyPxJp0jlPNZXULlWXGMtt/Qjn0qaPWLeS3nn2zLFCnmEvGRuXrlfUHFRz6DYTzK7xYKsrKq4UDbnAA9OTxTU0CziE43SsZ4vIJZ8lU/ug/456UAIviSxYqMyhirMwKfdC9c/8A1s0869aCykuXEyLGVDIyEMN3Tj39aS40GzuREjKyRRqVWOMhV7849eT0x75py6JAtrLD51wxkxvkL5YgcAdMYHpigAbXrONN0juvzbdpQ5+7u6fQj8Tiny6zbw2DXcyTRorhCrphgScdPxqIeHrAMTsfmBYB8/8ACOQfrwOfaj+wLX7NLDvmJlkErykjcWGMHpjt6UAMk8S2MTOsnmqUXJynsDjPrhh/jV2TUYY7aGchysxAQAc5Iz/Sq40S1CTYLiWbG6YEb+AB1x04HHSnjTrKO2trM4McBDRozA5x6569TQBY+32ozm4iBBwQXAIPp9aBqFoQSLmEgdSHHFVP7EtvNLkyE7WRQSMKrZyB+Z60lzoNpcjDGRev3SBnPXt7UAXIr62mbbFMjMSQFB544NMTU7WSAyrKpCp5hUH5gv0quNNtbOaO4aZoxGSAWcAc9vpknin2+kW9sgELSA/N82efmAH/ALKKAJI9Tt5EVmfyg2NvmELnNObUrVZAhnjzk5IYcY659KrR6FaqSxMjMwZSSRznrwBx+GKrJ4dSQk3MpbbgRBeNoByOvXr3zQBo3GoxW/lbld1lOFZBkHv/AC5qaK5imYrFIrsv3gDkj61VbSonMeJJVWOIxbQRgqevbqfUYo0/TFsctvZ3wQMjAVSxOP175oAv0UUUAFFFFABRRRQAUUUUAFFFFABRRRQAUUUUAFFFFABRRRQAUUUUAFFFFABRRRQAUUUUAFFFFABRRRQAUUUUAFFFFABRRRQAUUUUAFUdX1JdI097x4nlSMjcEPIBOCfoM5q9UN3bR3tpLbyjMcqFGHsaAMa48X2cEuoxiN3exVCQpH7wtwAvvkgU+98Uw2H21bm3kR7SFJtuRmQNxge4PFVYfBNnF9hzNM7Wrl2Zsfvuc/N7AgVoap4ettU1K0vJmYNbnlB0kGcgH2B5oAhbxPE4uDb20s4gtFumKEchuQv1xk/hTT4usRctFhsLZ/a9wIwRjO3645qxovh+20WC4iiZ5RO2WMnOFxgL9AOKzB4CsRZiD7RPxP5pfjJXGNn+7jigCDxO0zaZpviO2ieKa1KyvETz5bdQcemf1NVL/WE1LW5dShzLY6Pb+aoB4klYcfl/Sutk01ZnuVmlke3njEfkHG1BjBx7mq+l+HbDSdNlsYI2eGYnzPMO4tkY5/CgDntM8S6u91ZST4uoLogSRx2rp5IPcN0YCp9O1PxBrSSahYy2UVqs5jW3lUksAcHLdjWpYeFLPTbqOe3mvCIifLieclEz1wPSo5fBWly3Tzf6RGkj+Y8McpWNm9SKAMmwl1YeNdUBuY3SFFd4wrYK44CjsenPejdd3GnjWlu3CAFig4VRz17nBAH456VvTeHLSXWE1NXniuBgN5cm1XA6bh3plz4bglgnhinnijlJby1b5Ax749M846VlUjKWxvRqRje5kQa1rWp+IDZWRt4YFgimcypyoIBIGO5z+FY9zpn9mS3c/iDSZ72N5S4v4ZySqk8cZ4xXW6Dok1nPLfagwa/kQQu0bfIyLwpx2JAFQSeB9Mkdt0l55LNuaDzz5ZPXp6Vor21MZWbdjNvfE93canJaaVMsEEESsHNu0xkyARwOg5AzTZ/F+ovBptuIfsd3chzM7wM+3bx8qdTnrW7feFbC9uFnUz2sqoIy1tIUJUDAB9scU668L2F3ZW1vJ5ym1H7mVZCJF/4FTEcpreqXl/4VvItRjO63uYts3lGMSqT12noRitzw7rtx4h1Gd4HjhsLcBBCRmWQ4+8fQVcbwnZSaU9hLLdSRvKJWZ5dzFh7mpxoFqmsrqcRkhnCbHEZAWQdsigBup61JZXsdlaWMt7dPGZSiMFCoDjJJ9Txiq114oa3kmWPTbiZbVFe6ZGX91kZx/tEDnipLjw2ZpY511K8ju4wy/aARuKMc7TxjA7Uy58KpcPIy395Es8apcqrD9/gYyeOCRxkYoAiufGMNvJOUsbia2twjSzpjaqsMg4/HpV7StdGp3MttJaTWs8aLJslx8yN0PH8qik8M2722o26yukd6qIQAP3YUYGPy71bg0mO31Z78SMXa3WDYRxhTnP1oA0KKKKACiiigAooooAKKKKACiiigAooooAKKKKACiiigAooooAKKKKACilooASilooASilooASilooASilooASilooASilooASilooASilooASilooASilooASilooASilooASilooASjFLRQAlFLRQAlFLRQAlFLRQAlFLRQAlFLRQAlFLRQAlFLRQAlFLRQAlFLRQAlFLRQAlFLRQAlFLRQAlFLRQAlFLRQAlFLRQB/9k=;clipPath=inset(33.33% 22.67% 33.33% 21%);" parent="1" vertex="1">
                    <mxGeometry x="360" y="880" width="135.2" height="80" as="geometry"/>
                </mxCell>
                <mxCell id="115" value="" style="shape=image;verticalLabelPosition=bottom;labelBackgroundColor=default;verticalAlign=top;aspect=fixed;imageAspect=0;image=data:image/png,iVBORw0KGgoAAAANSUhEUgAAAggAAAD2CAYAAACz+38jAAAAAXNSR0IArs4c6QAAIABJREFUeF7sXQeYFFXWPZW6e3pyJucchigiiEiQoGIERVAQYXXVXcUEKqIgGMGsawQDigFQMSAGUMGASJAkoOQ0icmhU4X/u/dVD1HR/VdJr//1V5ie6qpT1e+ed++55yotWnVwdI8f8iURkAhIBCQCEgGJgEQgioDSonUHRzckQZCPhERAIiARkAhIBCQC+xBQWrRq7+ieWImJREAiIBGQCEgEJAISgSoElBat2zu6IQmCfCYkAhIBiYBEQCIgETgggyA1CPKBkAhIBCQCEgGJgETgQASkBkE+ERIBiYBEQCIgEZAIHIKAJAjyoZAISAQkAhIBiYBE4DAEQYoU5WMhEZAISAQkAhIBicBBCEiRonwkJAISAYmAREAiIBE4NIPQvGU7x/DGSWgkAhIBiYBEQCIgEZAIVCGgNG/Z3jG8ss1RPhMSAYmAREAiIBGQCOxDQBolyadBIiARkAhIBCQCEoFDSwxyFoN8KiQCEgGJgERAIiAROBgBRRIE+VBIBCQCEgGJgERAIiAJgnwGJAISAYmAREAiIBE4IgIyg3BEiOQbJAISAYmAREAicPIhIJ0UT757Lq9YIiARkAhIBCQCR0RAdjEcESL5BomAREAiIBGQCJx8CMgSw8l3z+UVSwQkAhIBiYBE4IgIKC1bd3A0w3/EN8o3SAQkAhIBiYBEQCJw8iAgnRRPnnstr1QiIBGQCEgEJAJ/GAGpQfjDUMk3SgQkAhIBiYBE4ORBQGoQTp57La9UIiARkAhIBCQCfxgBpWXL9o4mhzX9YcDkGyUCEgGJgERAInAyICBLDCfDXZbXKBGQCEgEJAISgT+JgNIiOu7ZAaD8yd+Wb5cISAQkAhIBiYBE4IREQGnRqp1jeGIBx5EE4YS8xfKiJAISAYmAREAi8OcR2K/E4ECRKYQ/j6D8DYmAREAiIBGQCJyACPAsBtXw76MGssxwAt5meUkSAYmAREAiIBH4cwgoLVu1d3RvjPgtJgckRpAviYBEQCIgEZAISAROZgSUlJRUp6iohCUIkhyczI+CvHaJgERAIiARkAi4CCgKlKSkJKekpERiIhGQCEgEJAISAYmARKAKAUEQiov5L2RxQT4ZEgGJgERAIiARkAgQAkpycrJTVFQk0ZAISAQkAhIBiYBEQCKwL4MgCYJ8GiQCEgGJgERAIiAROBgBmUGQz4REQCIgEZAISAQkAocgIAmCfCj+JALUCyvVKn8SNPl2iYBEQCJw3CEgCcJxd8vkCUsEJAISAYmAROCvR4C7GIrdLoa//uPkJxwvCCiKAkeYY1S96O/o5Tj0b/rH4j+L94q3if+2/6vLjB5//1+mczjwXPa3+hQfuv/vHXzO+85JZj3+q5sif0kiIBE4aRGQGYST9tYffOEqVAruVD5QRFAGbMBRoUATgdjrQLU02E4M9Bg/VN2GzSTBghkMAiGLSYWiOLAcG4qjcjVCUR3xPj60Avqtw71UVQW9kz/aAVSHzof+bl9Zw1EVaIoOh89Rh+6NheKxAUWHosTADoVhhQqhWGEQT+FPUgHbouMBtmIfQnzkIyARkAhIBCQChyIgCYJ8KlwEFCiK6uoL9u3aOUTrqgjA3lSk12+GjOaNkNm0CVRPIhRbgRkqQ/72jajM3YXindtRvGc37FAFrIgJjYIyH1UEejqe7RCpOCg74WYC6Of0O/ReS3PJiWNSjIet6IDHBz02DrWat4Q/sxYy6jeFJy4Bjk0kwgszXIb8Tauxa8USlO3ZATtUSZQDiq2CEh8OiMSIM5IviYBEQCIgEfhtBCRBkE9HFQKCINAuf1/wpKCqaDp86ZloP3AkGpx+FlLr14MnLhaOo/MunTIFocoKWJXFKNm1Fdk/r8H2pYuxffkPsCsL4ZiWCNJ8WMofHJpBoPBOGQx3w8/h21LdcgJZfuoe+FNqo1Hn3qjdqRuqt2yB+Grp0P1+2DYdj0iMBlVxEC4rQfaa5Vj3wdvYuGA+7GApbMqCOCJD4TgRSRDkcy8RkAhIBI6AgCQI8hERpMANziQmoH07VQdUqFxAUPxJOPvme9FwwAXwxiXBsXTYdgSGz+B0Pb2XywmWJbIDEROB/FzsWvkDvn/1eeT/8hNgVUJlXqDAdDUKB2gLiASoKlRLlBg4IUA7fseBkZCJBl3PRocLL0Va01bQk5KgG17YzE5MqIoGywRU4jeqDduyADOCSM4uLH72Uaz6+C0odgiOTVemw3RMgLMY8iURkAhIBCQCv4WAJAjy2TgsQaBgzbt+rx/N+1+GfmPvgROXBkV34ESCCOUXctAlQqF7vFA8Hjj+GGiaAagaFNWGEwTs0iIsnfkSVnz4KiKF2bCDJmzKUPD/9k/zU6pC5yyDqlhwVB2qJxkJDRvhzOFXo/4Z50CL88HWVOiKDjNiwgqE4ATLEKmoRGVFOXyxHsQkJkH1J8NWPFC1ICq3rMWcO25C/tpl0FQHpqIBNmUR/jshpXxcJAISAYnAyYKAJAgny50+UippvwwCKwVoR29oSKzfCOfd+wTSW54CRY1FpHAX1s+fjeVz3kR5XjZsW4EvJQO1W7RGvVNOQ0qTVkipWw+exAQouh9OmISNFchb/QO+f3M6tn+/COHSQg7QojTgvhQFKhEL+jvVQFyNhmjcewC6XXkVjORM2EQ8iFDYFipzc5G//idkr/4BW1f8iLxft0NRIoCmoXab09Dp8qtRs+Mp0PwGEKrAN88/jx+eeRQepwSVxECYoEgNgnz0JQISAYnA7yEgCYJ8Pg7MIPCfKAPgcPag/eAr0f36MYA/DU5FGL/Mex1fv/AwynNyQAIEx7FEG6KiQfPEI6l2Q9Rq1w4Nz+iPhqd1hePzU0IBMAOozMnGz/M+worZM1G6awscKwhFIUUC1QaonmBDUz1IbNwWna8chUZn9oQnPgNQDCiOiYqcndj6zQJsWfwFdv+8HJWFe+GYYa4WkPaAhI2qNx7JTVvi4omTEd+0HVToqNiyHS+PGoJwzs8wFcvNIEiCIB99iYBEQCIgCYJ8Bv4QAkKHQPkDHarqQEvOQM9bJ6LN+UNgQUfp1s2YN+FfyFn5NSxTtENWZQEo40CfoqhQdC8SajVH3S49cOrlQ5BYqz4c6KwxMCvLsWPxAnz/6n+Qu24p9zbYNvUhAvB5UKNdN/S7ZRwSGzWD6vHBtCxoVgT5a1bj+1dfw46VCxEq2uOWCLgngkWV1D7J6glNBQwdTfsNxLkTHoHi80OptLBw6ngsm/UCVNti/cTh/BL+EEjyTRIBiYBE4CRBQGYQTpIb/Ucuk7oIuLzgaNAVDamtO+LsCVOQ3KQNYDvIXboYs8aMglO8GzY8MJ1wVaCNOhUQyVBo306eBqqB+HpZ6Hf7ONTqeDocNRbQHShWEEW/LMWnUyZgz7Ll0GxAi/Wj/ln90efmSdCTUznQO7YOtagYK2e9hq+mPwezohCwKuDAhOLoTEbov6lcQfJD+lxLUaAZHiQ3bI3hz70BPTMdiuNBeM1SPDHsfCBUDtsxZZPjH3kg5HskAhKBkxoBJTEx0SkpKTmpQZAXL3wRKbirjgaHA6+KRv0vwkUTH4Mdl8glguXTnsGXzzwA3aqA7ehsOrRPRyAogiAI3FEIjTIDmgdaYho6DrkCbS++EjFp1aAZOqxIEBU7N2DBI49g99p1yDrvfJwydCR86elwNC8QNFHy63osmfEC1n06GzDLoWgKdBMIU1kDuit0tLlzgggCZy8UlTSIMJJScMboiWg76FJohh/Otq144rJ+MAt3w3FManaUt10iIBGQCEgEfgcBabUsHw9GQBCEqGsitRJ40eTiYRgw/kHA8EIJlWLGyMHIXbFY7OC5OEDl/MO1C1LLoiaCODVKKja02AQ0PWsAOl02EunN2jAJIE9FKy8P679dgvpduiImPQPQw3ACAez8dgm+nf4k8tZ9D8sKsaaQ2iSJcwixIpUVXL0hcQOO96SFEDdU8XjR/orR6HHDGOg+PyK5uXjxynNRtm0jHHtf5kPefomAREAiIBE4PAKyxCCfjAMIArkfOJoFVfGg2SXX4Zxxk7k7QCnKwdOD+iCweytHZa79syvi4Xbi5MpIBIHUiZSLICGiAy0mFpmtOqLLVTegXrczofrIGtmBY2mATmJHEwiGsfHj9/DdjGdRsPln0UpJ2giLXBlsOIoFm9kAmSUIruByA6GfYLdE6pjU0frCUeg7ZjIQ74FTUoy3bxqFXUu+hGORBkG2OcpHXyIgEZAI/B4CSkpKilNYWChROskREAJDN7CT2RBUtBl2K3reMg6apgE5u/D4xT1gFeUJUyQlwi2Jh5omi2wEmSCSloF39DQEgbITls7agrh6jdDr5glodGZ/OB4dhh6BGbKhWBGsnzULnz/5MILFOzjDQMdQKJYrNgyHMheUvwAsdn10hZHUTSEuQHwWlTpUL1r2vxz973oISooXVmkRFj48CStnvwrHpCNIgnCSP/Ly8iUCEoEjICAzCPIR2ZdBiPofKCpUTUXWyLE4a/QdrDewdm7GM4N7wSzN4928sEwWw5kOeZGWge0QqXPBgqPZUGwDiq2xbsGbXgunX3872l54KfS4GC5D2BHArizDpw9NwIYPZsEOlsBSwjzrgWwVhT3zwZMdD/fR7sRJxYOsfpfgnHunwk6Kg1VhYvFjk/DjjCdgW2S1LF8SAYmAREAi8LsZhOTkZKeoqEiidJIjEBUpismJKjRdR5tRY9DrhrHscGjt3oZnLumNcHE2Dz76fYIgMggkeLQ5K0HiR4Xtk43EBLQfPAodhlyLmIwMblG0iDzQlEUrAK2oGJ9MmYz1n78PK1TMlsiqo8L8s9bIqo7WfYkgPAo7MQF2ZQSLn5iEpa89CccKn+R3W16+REAiIBE4MgJSpHhkjE6Kd0RLDKJAQHOPNLS+4ib0vW08FM2AnZeDZwb2QiB/hxjmRDqE3xmdTBUASiJQO6LuUPuhBS0pGS3PvgRdrr4BvpQ64rihYpTm5iGpei3Ao/P0h8pt27Hg0anYuOh97p6ASTMYqSzwJzoPVA2t+l2Kcyc+CjshAXYghMWPTcbSN54GaBS0dFI8KZ5reZESAYnAf4+ALDH899idcL8ZnebIJEHT0GTgtRgwbiI0wwunqBDPDTkHZdvWQeHdPI1P/o0SA2kDVCEYpLICZwd0HdW79sXACY/Ak14bFnUhmBHs+Go2ls77CB0GXYkGXXsBagSIaNi76ifMf2gc8jYuZ8dFxyZSQlLHqOPCEeDXNLQ6dyj63TUFSIiHUlmG+feOw9oP3+RMBY+hlC+JgERAIiAR+E0EJEGQD0cVAtR5IF7kXKSjyXlX49y774Xu9yFSUITXRg1Gwc9LaR6j6B4gi+XDpf6pvOCOVybRoGLoSG3dFpfd/yz0ao2g6AY028beFYvwxm0jECkpRe0O/dFz9DiktmgG6o7UIhFs+uwjzJ9yBwJ5O6mrUZAEfh05k6AaHmQNvApn3XofEBsDu2wvZt34L+xY8gVgB/7QMeSjIRGQCEgETmYEJEE4me/+QdceJQjUKeBoKhqfPRLn33s/FJ8XamUQr197BXYvXQAFYWIHwlDpsNoAckmgDAJlGRQk1m+KPmPuRu0uZ0HTvLDtMApWrcK8KXehdO0PCFMDoxqLJj36o8etdyKhVm045MRYGcDyV/6DxS89BrOyxG2vdFscj0AUNK8X7YbdgJ7/uhuKV4NVtAcvDR+K0l9Xw3GCB02SlA+BREAiIBGQCByMgCQI8pkQCNCuXzHcvbkFRdXR6MxBuPChR4HYeDhmBD89OxWfP/sQdx2otg5bdXUBPJZBiBGjiXv6LyozeOKro+Owa9DxipHwJCbBNskh8Vd89dRUbPnuE+jBAGxFg6lGoHr9aDVgOPrcPAZISAAcDSgpxNdPPYIf33oJsCrhONQhYbhdDaLtUeQTHDZTEvMkyOcpBh1GjUX3q8dAMRSYOdvw/OUXILhnK2wn4v7WkTMRx8zj4XaGKDQFU/SOHtSq+SeuJTq5k45CRIzQE92hUHjolUvCqg7p/pA9J/5gieeYAU6eCH+9XYOQqrtHbciKA1VV4FjRG+2aiIhvkwROIgApUpQPgQio5I2oeLnTwEEImqIjvXVXnPfA40hu2Ay2ZSN7/my8PvZaKJYJWFQHCHFkiQZp7myMtiLSTEg1DnV6nY8Bd0yAJ70mWyDbpXvx/UtPY+W7byBSmQs4ov0ROgVtQPfVQadR/0Tn4VdCM2JhWREEdm/GFw9MwK/fzAcQBBydJQQaWS67Hgh0FlSBIHEkLXzepHT0uOVBtDrvMp7/EN66Fs9edg7MsiI4NvkrHF8aBMru6KoG1bFhanFw4OUR1xzOqUeURZyuwNQlAPwzd53fJ0IlF0qXETIhoD/YriUlmVWJyZiMJXWhcLAQplgk7JRh4/hbMNghlcuBCguMBcmjL70t7rfFE1hgsqjYpdvsYyLv9vF3t/+3ZywzCP9bPI/bowmC4GGXQsoG2IqKuDpN0euO+9D4jB5QFQ0Fy77GG9cNQbi8AA4FdZVaEBXYKs1c0ACDAhjtbB043hjE1miO65+fDjMpHZrXzwSh6JeN+HHmC7DDxfDE+uDxJcOJqFBUE5FgJcoqgLjU2mh1wTnIaNJYLGpWENu+XoDPnnoYlblbYQUEmUCYSh0h106RuirIIEkFuT8nNWyKEc/Pgr9BQ5iREHZ/+RnevGEknAjZNh+PTooaVFWDNyEVF4y8Cf6MmtzxYZPPBAHrLvs0G8N2yc8Be30mT8TgRAdKOGTCjoQRKN6LdauXY8+WzTDLy+CEA1CtEDSbDKlMmBRYiD5SScmxmCzI1/GGAHUH0fA08UQIckxkQRBF9iyhzJE7Cl3oiyRBON7u8l9xvjKD8FegehweU1F0kYak0YomGRwZ0PypOP3m8egw6DJANVC8cQXm3HINSnO3wIiNgS8mGZ74ZPgSkqD745FSty5q1m8AT1wSfKmZiK1ZG/706lA0D1SPGK5kByqh0o5XofKABtPWOVvhkBJBjUBxDDhUQtBp0aLtjSZ2vGYAldm7ULxtJyKl5agsL8bu9WtRkrcT4YoKRCrLECotQqCkgP87tUUnDH/uTejpSXBCZfj2mWex9IXHQY5MEdIg/FlfhaN8TxkKw4v4mg1x6zOvIa1hC2FhTQMqyKraMcTcCx5a9RsnS9kelaggsQUqAVlwLJMzMTQGe/umTdi5cT2Wf7kQ+b9sRP7OTbCsAJdkNDKrcogeyF3lUX4U/vTHiwkrOiy3fBStMBHpoxcXkHQHKmUXuNxAZacokfjTHyd/4QRCQBKEE+hm/n8uhQWKNCpZobS9zkll1efDqVffhE7D/wUjNhHBvfn4+ZO5CJcVwJ9RDQmptRGXmYmE9HTosTHsawDqXmATBFXYHlMXA6X9yVyJjq+psCI85kkMV6JYpdFCZbvDl2yousobXdu02bCJiQWlBdhVUZQ04IShwGIb5oriYpTnZaMyPwdFu7ejNHcPlPh0dB1+PVSvAidQiLeu/zeyl34CVbVgWtSeGZ3jcHwEPDaWVlTE1miIMdPeRkrj1lBsBzYROl7o3Wmaf+RyKNMiRm2JR4ZTz1yUhuaYMEMVyP51PdZ98yW+mD0TZdk7oNphUOyQaef/z7fs6PwuG5W5o0vototsIeUUdPEMGQosJQLVpGdJhUXZIv56HM5I/ehcg/zUo4OAJAhHB/dj8FNVXjTEeCUF8KfAk5SMdoOGotMV18CXmISICZhlZdANhX0NFKqD08rjjnjm3yR+wHoAIga0KhHhCLHI0bHJH4FmMpAwSkx5BKU1eb+i0whGHtjEhMEWHRAO7ZCpbKH7BKGwHerA5DHT4nhiD0Q7H0qZ0t4nFArBMk144pOYEFglRXjr3zcib/23QLgUVpjEjm6t9Tips/I4a1VFXI36uG36W0htSARBA1V6CD3e/fGyzoD87osEpKRloJIMlQ8IZ+o74Ttn0fFMzi6okUpsXb4EH73wDH7+dhEcM7BPwCgzCUeC+Zj5OY9g11RBrllcogE0TdWIQ0x8Klqf2g7JcTo+m/UOFDPMWgSehXbYSa3HzGXJE/kbEJAahL8B5KP1EUKYdOCWMqry57C6348omKtqDNTYBCTWa4y2/QeiRtsspDVoCsQkwOPzicmNNu3wTVa7WyYtOqYI1LwZpaCjQtFpQaL3emEFQyhevwy561agOK8Ye7O3oXRvNgKFxSysI0JgmypsU+dqgubzw5eQgqRq1ZBepxYS0zLQoFsP6Bk1Ac3D9XZNs+EEg7ApE+Hx8GhpCnL8ot0xTZKkwMlpCGrFNGEV52D38h+x8YsvsfG7eQgV74UTCYpzdoGI4iX+vf9d+yPb8r/6LpOQU0dC9Tq4bdobSG2YBYU6STQhERV7vt/rMNhXd2BJWpUYzS050DEcGoJFvI0IB73fhO4EUfTLz5jxwGT8vGQhbIswc6E+zPP1V6Mgj/9fIKCQNogIOBFuBXp8Mjr16o+sbt3QrN1piE1NRP7GVRg/fBicigLYruBVZov+C6xPsF+RBOEEu6EcIyl1yIuBxRMROTXPL9piCxEh7crpfdANqJ4YJNaohfRWbZDV93zUan8aVF8ceyHQbp26BkgHJ4K+hVBpASKlxbDLA6gsykPups0oz81F3p5tqNXxDJxy6WVQfTqssIaKjevw0eSbkLNqBUxOYwfdGrgmdqN0XDf+soMz/YGDPBfdofhiUb1tFwx68HEYaRkAPDDLC7F4+tMI5+xBfHoy4jIboVrTZjD8cfAmxMGTnA5PXBwHQc3QmUhYdhB2KATDMVC6Zyt2Lf0OK+fPQemezajMz4cTorIDZTUII0VcLwVcFnTtE/4drceFd4EwEFujDm6fPgtJjZtx1kVMvqbgLvB0SMdBpIgSyXwRgjjwtdB1UWaHBWj0txQ4SFdAehD21+YpnuIZItJhgYpNumVi5YIFeOP+cSjZswmOE3ZHbFPGwc3EyMa4o/Vo7EfY6L5TZs+9d8wXdcTVqoX4lGpo0aEzmnfpjpadu8LSvXAUDQ6NcnciyF/9EyZcfgGsYIkg7g4pXCi7J18nMwKSIJyId59qjiLRL9LH1Bbo7q6595myAJoHelIyMpq0Qe2O3dCkay+kN24GeDUoOgUbmzUAIkjSYEYfNM2BE6rEug8/wJavP8T2FUthBcphmxYs20Jio3a45KEnkNiwGQcjp7IMS56egiVvvggrUMadDqwr4AWMtqq0uxdjpqvCDGsgXPEU/0yFkZSO7tfehDYXXw74kqBrDrKXfoZ5k+5B4baNgBoL3R+LuNQU1GjVBqddeS0Sm7WASkOmTOq0cLg7Q9UMLnuQitshFX9JIbYt+xZbvl+InSt+QMmuzW4phNrCSPJn8m6a0KTAygr+o2QDwK1q0BFXow5umz4LKYchCKL3k1pQqVSkAGaYgz4TsSgLY8kBmVxR1oUyQK4wVRHumIJo6Dxngyy1qY1UJwzCAbwzdRIWvvEqgHJOV7Manr0RpDbhWFhGRJmItD709bOhKaQnMHDD1EfRoEtPxCSnw1Q8cBR9355BVaFZEeSvWomJV0iCcCzcx2PpHCRBOJbuxv/wXDhAEEXgdLubfuYpjAo03Yf4Bk3Q/uJLUe/U7kipUx8Op+rFVEU24ykrR96Gjdixdg0CoSA6Dx0GPT4WmuPgh2nTsOSl+xCq3AvNLViqiRnoP3YKGvc9F47HD80OY/tX7+Pde25ApKRE6OHIlIeCDe9i9+1ueUUjoRxfv1BQU81CVMjFzjaleRb63DIZNTueCccwYRbl4ofnnsDy2a8hEgxQSBNTKNMbY9gLbyCuYSP+3cjeHCyfOxdptaujWrNWSKxdHaZCHgKUcqVdtolwyV7k/7wSGxZ+gvULPuU/K6GAaOvjUyMiI3wAjt6LRGUG4mrWxpjps5DsEoSouRGbSrG01GKNhxIOYtOSRbDMENeSmeA4DnSPgYTkFFSv2wgaTbk0fLCYshFPo/ZPIgkeIWAkPwQrwroU3XGw95fVmDhkOMIVu6BSqyjpQNwMxdHF5ujdlWPpkwXpFjNQ6H4QQbYVH56c9yk8jdsy8bMoc6iI7ACVCXk9MMOSIBxLN/IYOhdJEI6hm/G/OhWRLqbWAVIMWmx8I1oGvTBSauK0i0ag5fkXwkirDt0fJxzVKBhGggjt3YM9y37Ad2+/ifI9OxEsL4KakorrXpkDvWZdTj2Wb/gZr189FGV7f+GRzo5uoG7P83DR5KegxscLMpCTg5dvGIiCDctY/GibUSGcCLh8XrSI0S5UsWGRMJHWK3qf6pB0QAQt+jEFcm8c2lx4JbpcexOM5Hh4FAP5a5bjk0ljsGfDT/A6FizFQEa7Hrjo0acRm1EbiISw5r2Z+PKph9gx0IipjppZzdH+vAHIyGoH3Z8Mk0iFRol1G4G9e1G4ZiUWzXgB2auXQqksFdkG2oxz/eOPTIH4X93Fg49DIlKdSwxjX56NlEZNuQBAjSIcFyglrFDLIqBZKir27sK9gwfCLMtxLapFpob+UXUP/CmZ6NyvD86+ahQsfwoiDglEbe6J5yQJCxjpJfQNdK+0UDnuumAQ9m5aAQU08MpkSsLvOqrk6a/C/Pg6LqtJ9m9xpdZlLRFT3/8I/qatudxAg07YNYO0K3SPKUNkBbF39SpMvPwCmMESnrUiSwzH173/q85WEoS/CtmjfFzqFiCJu0b7QxL1GQmIq9Ua3a+7CQ16doEam8KLgBMJwwyUIZi3E2s+fBcbv/wSxds2wDIreIeh2iq0+FScc/cTqNv7bBgeL5yyQswZOxpbv/oAmu5BTK16uOThp5DcsjOASjilFfjisalY895zbHIkpkOrZNzGffuUxlYUA6rXB0+8lw2XbDuCcHkISpj+O8zchgWPEVrUyJQJ8KRlYuD9j6FWt55Q9Bg4pUF88+IT+OHVR2FXBgAjHufeOQnNBg2Ekm6cAAAgAElEQVSBYyhQKkuw8PH7sWLmNCYLDgweBAWPHzVbdcQplw5H7banQk9Kh+rVoRtebvEL5+7C4unPY/3892AX58GkHTiLGY/mTRUW079NEKhaYLP+QLMcNpQac3YP2JX5VfLFA86eSjdeD2q164xR9z6ChLrNeMAWCTpJyCYyA+IVbaLUzACmjRuHFe+/DscqqzLckQ6LR/O52PfZXGIQI1RFyzAVmvRETHn/Q8Q2zxLdSfSdp64gLj0Rl7eg2yHkr16Ne6UG4di4kcfQWUiCcAzdjP/lqfDoZkeDSm2DXj/qdeuLLsOuRWbWKVC9Xl4szIpSFGxai60L52HVJx+isjAPdoDcCU04GgUb2uUTz4hBWodzMOzZF6DGebgzIfurBXjn9n/wgtT+slE4beS/ocals+o9d+lizH9wAvK2r4UWoV0m7W1oJ24DuhdxqTWQ1jgLKU1aoX6rFqSTRHlBAbJ/3YKcNWuwd8tahCsKhPEPjYum0KXTvkZDZvvTMfy5V+H4EmBZKpzcXZhx8xAU/LwWiXWaoM/4B1D3tO5wbBPFmzfgi8l3YtcPX8OmrAQdiTIeXIM3ofnjUa1lR2SdPRC1O3dDQs2aUA2D50U4ZSVYOXc2Vs1+HcVb1sEyg6KL42iJELh3/bcIgnC/pGvie24rCO7ZgFuZIBTuF+ijnR5iloNmR+DExKLbZdfggn+PgTchUWhP3OAhOhncHILiwLAC2PDV53jmnyNgo4J8HLmcQS9poPS//Pb+N8eizI/wMhGeInRHiCAkYMrcefA3beuWy1wfLfY64G8ldNIgrP0J9w79IxqEoyTC+W8gkb/z/0ZAEoT/N4TH3gGEn74rBaRdYqez0Gv0HUht3JRdDckjwCrci5/nzcGaeXNQ8MsvsM1K0ffM+gAFlkNOe2L/SOI+Pbk2hv3ndSS1aAFV02Dm5eCVq4fBE6Oi163jUb3DqZyKDuzZjcVPPoR1H8/hoMpWzK5oytHjkNLsVHS9YgRqtGmD2MzqUHRqXaQAR4K4CPK3bMf2RZ9gzYfvoHD7ejgmpUGJIpAeQIXiT0a3a25HxytHsTeCEg5hx9cf492Jt6FZzz4488bxiMmoCTtYiU2ffIhPH7gdZkk2ItTGyT4KYvekUHCknZamw0jMQK12p6DdBZei/um9AR9pFDSY5UHs/PZzLH72AeT/soY1gGQrLc6VhIu0vP5d1sO/RRDEbl/s8sUMBSoHhHM249Y+XWBXluxXKogSBLqvmlB7aBqqNe2AKydMQZ32beGoGmwyVzjYjpHuoR1G5bb1uK3PGTwTgzTuwn/BDRrcGeH6NkV1JVwPF2p4/hlltqLDpqg3n40f9ws6bAUtnkPx1+Lf4hmgLoyoW+R+Y6OoLMJ2GdTnL6aMclmKy0N0j1xvCDcpwh0y/HALG+mqFAlfiWiLpQ4QRsv1lxAiXzEgSwhXKWPjun3ye3/7SRCoR4O3Kxh1yIvCHXDG3TvCXIz8Cigjw3G+iqAJe2xB1ghzwkc8d/wW+oIpRAc0Jnf0syrZryceU97/DDGN6N66RxAXJkSpfMUm8lYtw6Rhl8AmG3WFLLUF0RDvIVJNHVEi6yDu51FNpx17i+4JekbSKOkEvLG0OGpkKqAbSGjSCpc9NA0xdRsIF8NwJdSCbMx96AHsXLoYoZK9cJwQLxTUiXDwF59375oOSzfQ7orR6HXDWGg+H6xgGda9Nxt7c/ag68h/QvUnQFMD2PPV5/jw3vHsvqeAhggpQj+neJHUojMGjn8I8Q2aQ/OS+REJKDVe61hURRY9YQV2IAc7v12ARc8+iYLN61kMR+SBU98w4K+dhSFP/QfJjVqKts2yEnzx1P1IbdIcbc4fCiMmBqHibCx+5EGsmP0yVIuCmbvgRQcViRwsZxPIuRGaioSajdDy3MvQYdAl8KbWQCSiQItQ18Y7+P7Fx1CWvctdwMNQLCIIRFr+LvHi7xEEd5/PWQQbmmMjnLsNN/XuBLuy7NDFnII93xSKWwq8STUwYvJjaN2rD2AQYTu82RJ5VoR2/oKbep4GFWFYHCjp3uxX+I52pHCEE4GLG2s18tkwoOhxSKvdCFmdT0ViZjpSMtKhEP7k2xe2kL8nG3s2bcamtT+hcM82qHYIDplt2fScCL1K1bAhEa4E4ePOXRuqZQMquW9StsiCQ06a7CZFk0oNOKoXSdVroVGL5kirWQNJGRlITEuG5jUEUYWCwtw8lOblY8cvP2Pjyh9gBSrhWBE3KFM7LGky3O4b1mzQwCxuhj3MakJkhdqORZ5FMCVBiDUS7SoGLEeHHpuEhq3aokGrlohPS0NiWhp/70SABsLBEAoLClBRUIgta1di15YNbCluR4JQI5T1iUBXdISNGM40UXmQzys2Ho+8Ox9GjYZu79C+eyXslOk8Ishftxr3j7yGTcWEMacQC/NwJ8okmiV83WTXDJ5lIgnCCRg6DrkkSRBOxLvMC6YGb3pNDH/kZcS0bgN/vBdm0ETJumWYeeftCGxbB9umQUc8zk30+h+m7VnUNVWomoK0tj0w9KmXoaVkQLNDCBcWIhCOIDazBmsE7JKd+ODO0TxYybaoPGHCogCseeCr1RBX/ec5xDZoA5PbLqmbQpQPuHOBBw5ZMMMqDMOGU1mJ715+CUtffQwW7WqiHgVUIlBjkXXZcPQdO55V+FyJqCxgPQSMJJDjc8nmn/D61VchkLOZSyU2lxbojUJ0GN3qcmiiMdVkIEO7PG8CWg4YiDP/eQM81eow0bJLi/HpI/di9ZwZ0O0ILCJUbMDkivn+lsmQf4Ag0O5Z3Y8gnNUJdsVhCAKHQdKBiCq0HpeGEfc/gTZ9zwODdxg3Rg7FVgjlv67FHef1guJQyYVpJTTKErlOjFVhgyIoCeBUMsDyQY9PRZseZ+H8f1yNzHoNYdoUrOleUraKxg7TAySmCWoIQ4kEsGnVj/hy9iys/PIzhEuLuD9fDBpigcp+1R43m0BGWzRplHbT1FJL91n3Q/Umoe3pZ6BZ59PR49wLYBl+2HSdnAEgYiFaX1nAyfMIqBWXcwlApByfz34bn70+HcU7tgBmJSzuABACWsqI8EAxQvKw8z2IIPjYmRIgIi5aSRXNCyM+EXWz2qH3xYOQ1bU7NF88QkRmNOooIrEMZUHEkC3OelB2hQSE4QAixflY8fXneHnqZKCsiA3LlNgkTFu4BE5corBLNi0eoBaCl4eniXzBfoGdOTJlkSzoTgTeMM31oNEeNA+FFsYQt0DGRkIY0rkN7FAZi4q5v0gShBMxchxKEJKTk52iIvryydeJggClx8n8qPn5l6HH9RPgzUyGaoVR/PNqzHvobuT+tBKKXQGLPQdoldA4kFPd/uAXrROGasBSbHjT66LLtePQbuBg3nnqPjIh4i0R7FAldi/4ELPvGg2noti1WKGw4UD1paLbv29E2yFXQfenipZGWvRcfwEmCFwTNaERuVGBcKUJtaQAM28ZjrwVi2CatChHw5CGuLot0PfO+1Gn65lQvD7ADDGRIVdGhCuwYdY0zHtoPO29OAVLwiyOKbzr31cx30+LxwuyTinauCS0PncQeo6+E058Co2UQtnGNZhx/QhU5mzjzAjDRos5ZxD+jpTrkQgCpb6JIDhVGYSbe58Kq7L0MOlgoUHg2VyODU9KdYx44Gm06tGfs06HW/w5tW0G8NWrL+GdB++CooSFgyYNeiKpG2+RxdRHN1yy0VZy9Tpo0r4bzr3qWmQ0bcmZKIvHDKuwqB0zGvwoUPMsACr72FCpJBShKeAhbF25FJ+89gLWfrcQ4coSbrUlGsEte/zAktETmUSpHOA5CBoxaHZqV3S7cDAatu2MpOrVYBk6IuTEafjgRP2EXavwaBtr9Ny53ZfKMJSQMEOIFOViwZyZ+OqdN1C0exvvouk99Nyy8E8MTD7M94eCu2gf5tKJoiExszrqtuuKPlf8Aw3bd2Ay4Dj0lDmcTRGx1/U04CDuTl90SwpMxyIRxERKMe6KS7Fn1TLuPFDjUvDMl0uBxHTuzolqd8giPcr59sv1uOdKHiFWFUHj7woreVmlxPc3NliBkR2b8QRW+mwidDJ/cKJEi9+/DplBOAHvMy26MZnV0PuWB9Ds7Et4h0DagEVPPIz1n86CFQrz9D5aGMQUF7Eg2A6tJId+9Q3aJ9JCrseg2dmXo/eYO+FJSYfH74UVMXmn4uTnYdqIwSjaulrYL/OiZkFXVcTUaIp+Ex9E3U69OQAJd0aRxhYLsyAZ4v+bPKeeiUc4gg1zX8G8SWPgRGgCpKjfckekkYhWFwzH6dffIjIYVDfWVViUFMnfhpeuHIKybSvEDi9qiBgVS5KeYb/7ziSBa90UsKhjQoPijUe3f9yOjsP/AdWjAcEKfDJpPDZ+/AYsnklAwZEHLrup5796yfx9DQIv6AcRhFt6nwYrQM54bv26atdHQYv2yKJnPr1pKwyf9ATqZXVmTYIwSTroi+E4MEJleOjqYdiyZCETLyII9KIBT0wQ6N4QaVA8LEat3qwlzh51HTqddTbCqheW6hEzAZg+0j3gwR1V53dg8luIbElH4CHyV1GK96c9g8/feAmoKGKNQIjndYgWXXHCFGiplKHBSMrEfe+8j/iajWHpZPwkzi/6GRzYRY7APYeqn7jHcmd7iNSJOxgshLULPsX0iZMQKNgJKIEqO28hYI3+Q4/SvqvR2KyM+k9jULfNKegz7Cpk9eoHx0stxrRbdzMZrmxQDCMjnAgfoQOIvljoS6TbBmLCZbhj8EXIWbucz9GIS8bjXy6FmlQNFs9eECUneq9b4zhktatChP0+SMsh5jUw+aHftQB/uALDsxpAd8p5YNfhSykn4EIqLwmSIJyADwEFufSWbXDW7Y+iJosHbexY9Ak+unssKvJ3uJMMaUdOO04VqhjTxy1Phwtz0X0aBc64uk0x4J6HUbNzD84iUN+8Ewhh+cxXsWjKeFhWORxKUVpi9wHDQIPT++OsO+5DbM3G0DxCHCbIwT7weUHl06BBQWEOYFZYgbntJzx5UW84NGBJTLUXdVHdh4S6jXDBxKlIa3MGVIPStgqUSAgrX38en025D4jQ7pkWX2ElTLs0IXjbV0sRWQX3ZFSaZkkiPSH8S2jUBlc+9zq8NerxZ5YuX4IXR54HxwxynV6kW4ki/NXkQESx3+piiEoABEGgEoODcO5W/C5BUFXoZKHt8aDb4GG4aPRdMGLTARrExeWeg182lILduPXc3gjt3cmeC4QB3ROd/BCi7XV0plo8GrY/HZfdejvSm7WG6osVDpbuREFhhCWuiQPnAS83WEbr/C62imlCqSjH/FefwycvPwm7ooTvE4VuKmXR8WwYbkregZFcHZPf+xT+Go3E55DpkyuIrLL2/g2pHe/2+QGNenfwvHEmCQgEkLdyFe6/YRQipXsAasnljiF6rvbhdgBBoPKJ5sOpZw9C3yuvQUbzVoDXgMliQyr1UIbLtTZzrb2jFtkH+Bq42REmp7YCf7gct192PvLW/MjPqychA49+vhRaYhpzfsciK2VhZ/7bI7zo52JGA3c/sgBXZNm408XS4A2XYURWPWhOBRMwEufK18mBgCQIJ+J9VnTU7tQLfSc+irSGjWAGFWx772l8eP/dnD2gMa5cR+UkpNBf03rt2uofgggRDqG4Jk8EP864bhxaXzICmt/Ptd7Q7jy89e9R2Lt+MRQnQCN++GAi7etFu4GXo+fYe6HEpgj9GNfv3RkR0RSz+6kcvG3ybtC4xm3nbMbTF57BYkpW3tOoZtrlk2gt1kHWhcPQ46Yp0H3xXOdVKvZixtWDkb1qKS+MOn2WGmR7aXaS48DEIwv3tX25Y4w9tIyqMTARgW2b8CanoPuYSci68Ao2mVG278DUi9pDCVHZgna3VNagOQ1/h6b7SCUG0nyQWRKVGIBw7paDCMK+AU28Q2UyFIP0Rs3xz4enolrzTjBJyEeleTec0HPCMyBogqZl4aMXn8DHj0/mUkPU51IQBB7UAVulQK0hJr0BpsycC7VmTZgaaet1WK6LpqAUImsU9c6M8isxhyOqC6CSuztPgtttRRlHKy/DO49MwOI5MxAOUdAWZQ4RSD2cSdKoHJZaDRM/+BT+zGZMXmgXLSYZ8q0TnR+ulTR/B1jgKXb+FKwJx2hrrkhcUdpLEBotXIb18z/Af24fDTNSwoE1GjP3H/wVTU44igcZLTpi8ow5iPgTxfNL3xJDA2kqbe5gEAMyBGFy52EckDlwOUuUMNkqfKFSjBtyDnLXLOHr8iRm4JFPl8JIShVJQdMQmQQ2ujp0oRNEzYJm6qzBoX/EoC7SJZDewwDdUq9ZgpFt6kJBBRyaxCoJwokYNQ57TbLN8US81SoRhJ7oO2EqUho0hBXUsGPeS/hgwliYITIucpd39ven5VosvoclCO4seY0mB1J9OzEeZ153J1oNHAE9zst12sieQrxz63XIXjmf7Xoti9oIac2j2QAetLlgMHrdPhlqQjqvfaJuK4AXO62o0EuUJSiLoJI5gglEsjfimYt7IlRUwO2VvJNUPXBowY7V0fHyUejyj3ugGTFQ9AgQKMbbN47Ajh++YJMlFpApNJPAhkbjkbluLMRZPAPCzSDQwk6lFEX1wiQfCAoyyXXQ/96paNyrN2zHgL1lCx4bdAqUEC2eOjTWbNDEhqOXQRAjrokEUdsm1csNDpJWzhaM7t8ddkWh2FWzMJ0IhLhgw+9HRsNmGHzreDTu0A2W5mM3S+4EYBtLOialxUPQghFU7s7Bs7eMxOaVP7D5FtHLaKCg42pk6+tYiE+tgSvvn4JWZ56HiJssop29qNOT9sDk4ztBE2agGJWlBTAD5XxuPn8S/MlpUKhLhoYJ8c2xOUNBgdPSRfDa8eNyTBt7I/buXCMyQ5yFp2dKdGYoigVvWjVMeO8LxFdrIFJVXEqzgWAAFcWFiAQqYIeDcCIhETypfdXn5xHhCWkZMDV6sg129LSIcZHDJ2WNCCMnjLIdW/D0v0Yib/0ykNMHVwRYl+Im7VlLIyaiZDTpgIkvvQIrLRO2Fiu6Bwln1WKybCuuUbht8gwF4YJKGSoLjhkW+gCVNBfCMIx28JptwBsuwp3DBiBn9RLWfqj+RDz15TIoidUEdrZKE9SF/kawn4NyJqSaiEC3vOSlzc8N00PTFfS6Ez5jzFKMaNcMsIp53KcYLP53PPMn4uJ8fF2TzCAcX/frD50tLUw07a/3HQ+hfuee/GXOWboYH999K0p2boTNamharEU/OC18VOulZf/QL77Y5/EuS1WR2LAlzr3nYdQ45QxefGjRtSvCWPfu2/hk8hhWt3NtmgcHsTURqrfvjr7jH0Byg1ZQPdTyJXq9owThAFEci9SCYoRzUEflxiV4ZnA/IBzmRZ5FcZRZ0PxIbkzn8iAyWneGQiUGWlcjYexc8CFm3X4DnMoiIWRzU9Aih0oEwe0hp6Ahus7cIEJxQueUKy3aSU27YuSLr0BNTYZimdg8by7m3PkPqLbJu1vKSggvur9jsTx8BkEEfwog1IZHntA0Y8JCOG8HnrjxGoTK8uFYog2POjK8sTFIyshEg6yO6Nz/PCTUrsvkgDMAFJxUGsFNvEdoAFhfUJKP+S/+B5/NeBbhQJnIDLlZl+g9VGmnavgw6Prb0GfU9QjqccLzIDpRw50VQTMcvFYEO1atxHfz38eGFUu4ndHjjUFmnUZo2aU7Ovc7H/G1G8DUhHZA4zZXEf9t24YnHMKbD9yNr2e+KGZCREVz7LlB5mAKvOk1MGHOAiRWqw3FDKI4Zxe2r12B3evXYdev65G9fSsK83MRqQzAMU02yIpLS0eD1q3R8cw+6NBvAJSYJETIp8NlIew86k41VSpK8NUrz+C9Jx/iFkh+BkS/rhiVTUIb+r5k1sA/730M9buejrCHorVXmEuxBpF0QO5sEvo7h7wsTYSK8lG0ayd2bP4FVigoND2kq4iJR/V69ZFSqzb8iWnw2iHcMViUGFhNEROP8a/OghKXLEppFn1PFGTUbSCcR6PdO9FsHREb3YYS0uFEylCUvVOQc7r39D1hfwcFHrsSY8/vD82q4OdeEoQ/tAyfEG+SGYQT4jYeeBEU+L2pKTjrtslofs5QOF4PIvl5WPLCo1g+ezqciqCbNRA7H4VSy1SKdEgZeGiwox0qZUUdzYfm5w5Dr9vu5DSmEePlgG1FLJh5+Xj16qEo+mUFHMs1ctFIPKbAm9II597zAOqefhaXJaLjhveRhP3TpyRCtEDdak4wgqUvPYxvXniIRzZzb7djQddV2Hoi2l52LU67+kb4U+NgkwCO0rVhB05xHt688SrkrVjoLtzU96/A5J71qBBzn2/9PpGiziSDyYa3Ji6c8ATq9ezOmWu1sgSzxtyIbV/NEwSBuhdYpPf35A9+V4PAOguLHRS5fEOxPViCvE2/csaoqp4CFd4YH+KTk+FPzYRteKDqlA+IdgxSSUjMx9A4YFFqPoDv57yBD/7zKIqzt4vsU9S0Zz/9AGV3GrTvjKsffBpxtZuwoRSo/58oFHUt2KIjQLeD2Lr0K7w19T7s3Liap2dyfy1nc1TovgRk9TgXV917H5SEJNgK3VdXQOq2NtJzWrppNe65+HxYgfwqMyN6iigtztmI1Gq47515iIuPx9fz5mL1ooXYvmYZKvbm8jPEHFYIB6rMwYSltwe+xGRc+K9bcMYlVyDkTeAppJqrW6GdOJmIeR0T37/3Bt5+YDzCJeRWKQyWouU6blNU/eg26BJcdPN4qMmpfF+o4ELkiwotlJGjbAd1xZB/gxoxseLzz7D8s49RsG0DsndtQ4QJgsV+IYY3Buk16iCzfnO07tYDXc7sgrv/MRI5a5exkRj5LdRq2Qma18PCZOrU0Lyx+PcDU+Gp3sDNHu1bK8R4cBMey0DRlvV4ceJd3MoozKaEJ4Rotwxh24rvoVhh7o5wmyNPwJVTXtLBCMgMwgn4TNBQH9oRNeozAL1ueQC+arWgqxYC23/Fx5PuxPbvF0OxK2Fxi5pwcWNt9OGMEGjpUzSe56Cn10O3GyYg67xBIvUb44UTsni3RCLCoh8XY8a/h8GsKBYtgGqYA4WupaH9JVfi1GuvQUz1mqDcMy8/PHmOFlahQudATUQkAoQDFpSCbMz49xAU/LJcdIgppsiEqiqSG3dAn3EPoUanU6FSjlj1wArTsCENZjCAvEUf4q07roNFvdtszEclEtFxIARY+yYgi7ozNzmymZQTm4RuV92G9sOvgh7rhxUJY++yRXhn7LUI5udB4R2jEHHtL3j8ax8l0S4XX6Mubps+GymNm5CDAafHWUVCan5LlIxoA8gBw9VaRGv9wila5P2Z4LhlFqq1s9cFtw4S1yCXPwuGWYklc9/GW4/dj0BRjrCgPkz/O+GnGzEYeNMd6DliNCIG9dwT6KK2blMmyVKgmzYKtm3Es3dchz2rl4sOANqxMmkTWRvqRFBjkjFk3D3oMnAIHC2GKStfH7Ww8ogRB55wKW4/tx+KNq8QAZ730CIrRhkEX1wCLh89FnPffguFO3cgEiI/CJcAuyUUeqg018GBmIxFzyLrA3TUbtUBwyZMQWarjqw/oHN0eMdPIj1WVWDb8u/x+oRbkbNhjevyGBUsWlB1HYlp9TH07slo2fNcmDq1Orrk1C0rUIaBvnmqFYERKccLk8bh5y/mI1hUCNsyhZsp1yP2bf2F4SJlglLQoGUL7NyyCWUFu0UZzaRzIxEJ4eB+nzx+THn3S8Q2as06kKo2DjfM0/dNi1jIW7MUEy8fCCdQzBoWyibxJBc2vrJhECnmRk5RYpCvkwMBmUE4Ae+zAg8MCnRx8ehz0yS0uPhyaD4FTphIwka8O+Eu5K7+AXY4wPVMlXb6lFOoauc/aAFgzwKg5mnn4uIpz8BIrgZDMVGxazcqwiaS69ZlwVW4dDc+Hn8TtnzxKS9w1DZJi5nieKGnVMPghx9GRvuugBEndpe6KDcIhxwxktgKUQbBgVVUjEXPPoI1c1+BSfVi2kWRCJHa6DwpaD10FHrfeBM7ONrhMAJ7shGGjYQ69bkeG9qzCW+Nvhb565ayBwQUg4OMyBG77Wj76yCoju6oPO2y3SUj0HHIcOgpqfAYBkK5+fjkwTuw8Yt3oYZJRElCT166xRSCv8U0xiUI1evgtpfnHEQQ3ADKtWYhOBBCQ9Gtwbyg6jl3O0ios4NLLfusc3RS0ls2bDOCyvxcfD97JmY9PxWqWcFBl54V0c530IsIW2Y9DJ/wMJpTMKzq+xcsjIM7hdDyUsx5/BF8/faLcIJFfDxO20dP0rUCJjJXs11XjH/5Tdj+ZDgsgKRAKlLzbGplBvHdjJfw+oN3cFmJ3Rzp+XCvnDIdtuaFppFDoxgfTneMFfj0TFJkdEtETBDdcxA0yQFiM3DJHZPQddBQMeRLJYJAXSuEH+lPAJQVYvq467Dssw9Y7W8TARH1GVDJpUXXfrj+0ReB+DSh/ucSjiPEsUwphEeZU16EF8bdjNWfvwvDHW5GRCSqCdr//lFVjLwrqN7CokI2eXK9PTjrIwyw+IroGLoPU99dhLgmrbhVeX+CEP0DEZS8tUswcegFQFD4ZrjVODG3hO27xT3nzMvf8ryfgAvzcXhJMoNwHN60I50y7YRVjUa92vBk1sEF9z6Hmp1OFdOfSeRXko/Pn34Cm7/+DGV5u6CQ2I6C8j6G4H6EML2hlC31x59y9Vh0v+ZmqN5YWIFirHrzLRQW5KH7P69jq1hFCWDP4q/w4aQ7ULprs6hnwsMtVIquwVu9PgbcPAHVO54GPTYeikekuEULuQliKFZEhV28C2vmvoWlb76M8txd+9IKHOB1xNTJwuX/eQFJjZoL9XhxMT568B6kNWmIU4deCyUmBk4gHz+9+hq+fu5hmKFi3oVxvzm3rtEeyLUIpjVTIwdFHRmNWqLthaPQvN95MIhNbKQAACAASURBVFLiQO66dmkZVr79Cpa/+TzK87NdUSX9gMKIOM7fs2BGMwh1cNt0QRCoKyMqQBR2/EKVzokSGuvLGovozIL9KAJHHCJbQjFPrXCUMdCDYeRsXIdfV3yHrz54H7s3rAMi1F7qzhqwf6MNVtXR6ZyLcNXER2HGpXBKno4b7QTgEZpOBAWb1uP1u8dhy4+L4NDUT1as7mt7jRJFpqPxdfDYxwvhyawJk8yruPThkg0eSGXB3L0Bowd0h1NR4ZYZRBcFB38uN9CzSx0pYjCR+D+XHLqEgHv/6fguiWKUVA2e5Bq4ZMzd6HzBINjkVSDaIIT9MNEdU4UnEsJLd1yNJZ+8A4UUme7cB2q7pLbbniP/jYtH3wtTp1Kc69jJH0C7exKDKjCsMH6Y+w7emjoBwYLdTGCrRmhXnVW08kclCSIARKrIRYrSHm6nDn1/+U6RuJFaP0lcScITPxOE2CYtDiUIUVMr20L+mu9w7+XnwyGCQN0wvClwr5m9LXSR8dlPw3OkdUj+/PhHQBKE4/8eHnIFIqi7i56uIrHJKeh72zjUIk8Ew8ux2Czai81ffYLl789E/rq1sEKlbncDBRphQOOazbLYypNSF1e+8BoSmrbgfvxIzk68eu1QaIoPvW6/C7U7dWHjm0h+Dr75z8NY+d5Mtqml1jtKS5Iznq3qiMtsglZnX4RG3bois3kLqDF+2Ba15kUQqSjCrnUbsXnBR9j41TwE8vcItz5VZ7tkWmX1+DR0Hz0eWQOHQvHGQAmH8cv7b+PjR+5BjdYd0XvM/Uht3BhOJIhd3y7CJ5NuRumeTW6vOtUvxI5VZ/c/Wl11eJNroumZPZE14GJktuoMeGhYUwRWWTl+nf8Rvpv2GIp3/sriTiY73L8uMPp7yIEwuqFFOq56PYzhEkNzvg52NGZTGzEESegHKBVuwNSjvhG0c6YMjCjt0LkTmaBsjNjGmkCwBAtmvoFV8z7C9p9/hBWuEKJQSsJTyyq1cx6mBMUpfd1A10uvwuXj74ep+92gT0HGJS3sVRDC6s/nYebkiajI3Q6bjJaqDBzcR5h3qaTuV4G4TNz98juo1rItTHIa5Fq9cJzg3TvFqpI83HLuGQjk7WKNgChFMOMT0y1ZWEtpfXfEuBgKIv6eOYwBX2wsqtWqh5SM6vAmJCAlI5P/20hKQ4O2pyC5Tn0xoIvLUiLdz+dgKdDCAbx812j88NFMJltiVgT9z4LuT8PYl99CjbadYancO7qvVOAKE1XTQcHmtXh98h3YuGwRQP4arh8CG42JmtB+32+iJ4JQKaxfEAkxIgTR8dyiK0d0TzCp0WIx9d0FiG3SGqbm/n2VCEgcmsjh3rXLMGHIAEEQXGKyz96c/kIQ4v3NoE7ApVNe0kEIyBLDifpIcGqf/jFZtJSedRq6jRiNOqedAdXvh2lZMMvLEcnegVVz38Gyj96EVZoDm+r4KmDSDocFAbTe6sjofDaGP/0iLK+H68lb583Fu3ddwz9rc+kIdLnmRngTarB3e/bSbzD/wbuQv30lfJaDEK9aolOC97axCYitXgfx1eohLiUVMfFxKC8qQmVuHsp270B5wS7YdkDU97mu7jruqToyOp6BK56ezkptx1Jh5uzAq9dehuJNq+BJrY1z7nkEDXv05V73cN5OfHHfXVj/+YcsyuRY6O6OYDgs4KJU9qkDhyOj7SmISaU2TOpiCANlBVj80vP4ed57qMjeCtsK/U2GSL/xQPJETAOx1epjzMuzkNqkFeMTzRpQxZgbHikdbFvC2ZB74EUUEdgTqRH5E1bauwSBB/2YlSj55VfMe3kavvl0DhAiB0aaz+Fa/nL76aEGOUQQNI8PZ474Fy6+ZRx3l5Agke4zBWvaOXN7rBPC7jWrsHrhQiGEE2HODZr7V7XF7lrxJ+D0i4cgsVYdFpeyVqEqEyDIgFpSirEX9kDpzo2cdufZDpyVEO2ynJ3ichJdgwdGfDKaZHVAveZZyKzfANVq1oPuj4MvIQ5GjI/Jot8fy1ki26CmV5oVIUiVaxrpBmzRVaGHA5gx4XYsmfMqfx4RKUFkHHgTG+CxLxYBial0Jgc4K0bvsGbZWLNgLqbdORqR8gKYFrVcRl1NDzMY5XfXKre44hoccaaMx6vHY+p7nyKuSVtEyEiMxZHuXAfXdkKzwzzuecLQAbADpNWg8hMbaJ+oq6O8rj+IgCQIfxCo4+1tnEEg5ThMGIrNwjFPSlP0uP5mNO7TE0ZCCu9IuV0gEAGKdmPhjKewceEChAtyYEXKud7M/dW+RFzy2DRkdu0DnXYhwRLMvu0abF04DyoJxtLrYtDDz6Jax56wKC9fWYmvn5qKlbOfhhquhMWBSAFJHUxKgVOPu2tcIzaRQhtAi5JO8xhUBRSOKbCoFkmlFDi6B3pKHVwx9XnEtusAX4wHdmkAC598BMtnPgPFLOfBPF2vGo0Oo66FEeeDaplYMv15fPfcI3BCJPxSoRoeeOITkdykDbpePgr1O3WD6YuB7qU0uI5wZRnKt23C1y89g18WfAAtRO5xYhDP3zfa+TBPW5QgVK+PMdMPIgi8kIuWwKgyn5TxOo3KJmxpiqJmwDbdUcOU+aCMAzvoEQcTMzOMsAO7pBTvPvcwvp49jUdF2yYdk1IBojPlYAUCBVN/YipGPvg0Wpw1ABEy1+HBS6SqF/oSarWjf2uWAzVMY8QdnmRIA73EAQ8MoDzWmSr6pKPRyV+Bzo8GCREIRACoFVMBiktw16C+KNy61jU18gjrLycClUYWs3gyDjWatUHfS4eiTa++0OKpm8DgND5nVFQVphWBZlBOiZU47rkLcyHOcjBJoGmQ0d08BVDAYwbxxr3j8M2sV3hcOvkNCDtnG770pnj6y28R9sbx4KT9nRWjd1e3wljx/ut4ftxoFiqSowYRBOFT8mfdCo9EENogohM2BxIEumKDxqyv+Qn3DD0PdqBUOI9KgnC8Lfl/yflKgvCXwHp0D8rLGO/YRV2U1jX2MaCWsbhkZPW7AK0uGMhpasOfyAZEtmlDC4ZQ8OsGrFkwDzkblqNo56+oyM+DJ7UarnvjIxjV6sK2IihdvxIzrx+Kyuzt/DnUr16ve38MfPB5wB/D3QBW3h7MvGkkcsjljSbNcfcA1Y5FUGKBGKfGRVVXOOjRYqVyLCJ3OVowo0V21ZuANhePRJdrboE3mUZL68hd/g0+nTwOOZtWQyeVtaYjpnYWRrz0EmLrNEIkYKNgzTJ8cPetMMvzEFetPjJbtEWj07uj7imnQotPdhdvkWatzM3Bjm8X48dZbyCf0uxmucgM8+nuV7s+Grf3twiCODthHOW+eMpCoBjfz3sXoM4DRUNKejVUq98YyTXr8sAkIgiip5923jwyEE7Egc5DB0vx+avP4OMXnkCkvFjEcNpVs6jvQIpAgS+leh1MfGse9JoNEXHnO/DulYc5uTa+XGYgzw1xS4mUiN29+KfKVZH5ogbTjkDTo5oBMfci2ozJ3Rn0tuJS3D24Pwo2r+LSCpMkPlcioR5kNsrChdfcjLbdewM+L2cFTK7fuzMHiD4JcUAVdiT6sywiMW6w5+dWlGXEt4iyCRTIFeiRAGZOGofF77wM2FQeEOUHEgmmNOiIBz6YD8sby46gh3s5wXJ8Ne1RzHniAZ7UKJwrXYLwp90Kj0QQshDR3RLb/hkEKgw6Eexd+xPuphIDZRAkQTga3/Bj8jMlQTgmb8v//6RIdS4WPmq+dgcj2aIFjIKrv359tLvgYjTq1hdJdRvz9Lto2xWsMAKFhdizZh3yNm6A49XQcfCV7L7nhCL4cQbtyh9glz4ypmEy4k9Er9F3o+3goTyUxgmHsWfJ13j3zpsQLNzNuzqbFvyI8MUnwRnXg3nXS6lg2hnSAklZi2ivtZjgSALJ6q1Pw1m3TUBa1ikk44ZdXITFT0zFyvdfhxWi+noFVHJY9FbD4IeeRjWa8ugxoIaCWDtvHgyficxmzZFQoy4UD43f1UQrphlBuDgXe1Z+jw0LPsWm7xbDLC0UY31Fb6VIzbNV85/d1f3/7+O+yOWWGA7OILhCSfJIFi1xZIusIpy9BTf168HzKKgtUNF9aNahC868ZDiyeveFSWOymUeKGr14kehN2GBX5u7B3CcewndzX+fBTFQ2oM6U/TEQ7aEO0uo2xIOzFyCSlAlHo524IH8qOxtFg6bono/2TIj7ftiw6RoNi5q/MGWiwE8ZEm6GFBkEKgCUlWPcJf2wd9NP0PmZcumLx4/2Z52HfsP/hVqkYfDQOe3f4ifGm4uGD9JpUHKE3iHoIOlemESQR4RII7iaDdG2Se2ORHS1SABvTB6HxW9PryIIfEWqgtpte+Cet+YgxG5irpXyQZcbKsnHtLHXYsOCj0SXAxMECuJut8Wfenz+GEEQ2aADSwyqFcLedatwz2XnwAlVyBLDn8L9xH6zJAgn5P2NTlkQbWy06EQ7kzg4c7+3AiMxCWlNW6Nhlz5oedbZiK1eA7ZHZS8A2yJDF8CKRNgISfHFw6M7cIJBrHxrBr577RmYlSXcOknGSDS7IKZ2Ewx9/GkkNW0t+u0rKrDylafw1fTHYVWWCdEbjW3mnZsgBqI+7IqxXNUdCyR5R+VwG5cnORPdrrkNbQddBtsTx1a/eT9+ibkT7kLx7i1QlURoMQo0nx+1s9qhxYBBaHLWAE7rWpYKOxJhHwi6ZtXjEcOeghGYRfnYufYbrJ3/LnYtX4mKvTmi5MLtgqKOLV6q2953DBCEgzQIIuySIt4jygAkPbA0hHasw+jenaEgKLoUoEBX4xFfqyEG3jgabfqex+ZS5NmvuXMIqrIDRNBMB6HsnXj4+mHI2fQTVJPuMQXVfXXp/QnCw7MXIJyYyToADqp8D7lhsGpQEPtPuP4LTALdiZ7RzICgKCIjIrIKoiVQTF0Uolvx94IgqGUVGDeoL/ZuWsUZKiql0cTINt3PwZDbJyO+bkMWavJ0Sjo2ZzSinyLGVFMmS8wfUKiZESHKouVlo2TvXiTVqoX4mjW5JMF5B+4OoXKI0LNo4SBm3ncXFr01DY4T4J8Li2oN9U/tg3GvvYUQezscniCESwsw4+7R+GneHOF2ycflKUuiO+ZPrU2HJwiKkYAp785HXBORQZAE4U+BetK/WXYxnJCPgNvqxTMI3BAcnX8gBs8JMRsp1BUPtJhYeNLS0LJ3f3S88FLE1G5GMisSg8OIUVh8ZUbC0D0+QRYiQaC8AMGyAuxYtQIlu3Yjd+dO5Py8GfV79EWv6/4FJSYWVkhDxa9L8cn/sfcdcFLV1/fntZmd2Qa7LL13WECKoKIioqKAhWLFii2xJJIYW1CxRI39r0b82YLGAopdY+wKCAqKgqLSey8LW6e89v/c+32zuzTdlbrsncRgljevnPf23fO999xz77sOq2fPhuNQzTkRDNlNKeppdG3wAlddWyq4sHI9BFhRNOzRFyMf/he0zFx4fghe8RZ8+NgdSG5ch0atWiCzXmfU79YF9Zs0BUImEIlCJzc51kZS6pwU+DaxHY6hpWuWYvG0zzHn/dexdfkC2MVFzAtohDCTpxB55CtfHZ5UsS+7FXb1PHIVxuIyyfXPTUJO2/zyQMqiQ8fiATtMwjwNyRVzMfq4wwITIkojq1Dt6RbqtGyFKx4Yh+adD0XcMGFQ5kXJ75VfgOOxMZXuJWGvXYobTz8FycLV3MWgujaC9snyDEJb3DvpYzjZjVhv4HAsp/NQ44q5h54rXUG6nlb/3AlSUdVPXXaq3JT6G2V+pJ4PFTCVzwB3O5TE8PczB2Hzoh+UQZLvILNxK5x7wz/RjfQQIY1nGVDGjMosKmNFXRAOTNeBs6UAv3w3CwvnzMaapYuwYvEvKCnYyIE6klEPZ//tBvQ86VTVmcFDq1QXQ2rao2nH8fI/UgRBDQRT/gQGmhzSH7e9+gaSv0IQtGQZvn7+cbx4723KLpqnjv42QUgRsxRmKaMv9r7YpUjxtwnCrWcPBpJlkkE4KGPC77soySD8PtxqxLe2f5Hw6zV4qasLqFR7NXQYoQiMaF007HwYup50Mhp164CMvGYI1c3hOip1Dejk3U4aNM+Ha9NoYXKnU33XtOJjJz7ynKfVimvBj8VQtHgOVsyZjoL161G6aSOSpVthx6hOTMd31IQ4Wm3yC5am0mUio34OMuvUR27DlqjX/VDUbdWazY5opaXrCQ721K6p4p6pHPAoQ0BKbTI9snQ45NjoUFU8jqIVy1G4aBkWf/Up5k/9L4rWroJGkyGDoJdCQtWQKyYfHjg3Ws1iyGhcyQeBDIlUkkhlEdgnQIdFM4mW/4LRA3srU6dKcy/UbTfQ97QzMOq2B2FH67J6n+9v4BGhdkqtkjqMWBKT//MU3nr8TjilhdwLQkOvVGslbWegTl5TjPnPG8hslc/kgI2FAtdAWm27CCGccLFl+Xws+YVW+xrcQJfC3RWEN2s8ghxBcDNYnUCBMyCQqRZF5bpJMwRK8NrT41C8bg1oLCIJE1v2PR43PPkinHAWZzIMdmtULbbsLqm7iK/bgK/fmIAPXngWxQUb4XlktEQuker5o080pzHOvvku9BoyFD7ZeLN2gS5O2VHTs27aSUy4ZyymvjyOXSbVaSsxZ17nw3HHa+8haUVgaJSbIIKybQbKcGx8/8bLeHbsaHhOnH93uLskcDTYWQaB3UeDRg3VjhwQ6uC7brlLqBq2pWvpePDtDxGlLobtMgisD+HZJgY2/fg1xo4cBNiJYNJ0UvlIyadWIyAEoVbf/oqL5xUY9/iTCCsCLZKNzMb1cNi5l6DzaeexD7xaZcc5sJO5kOeY8KmrgXv0+W3OCnZ+sXOfts+rd9I0kAkSlQvItIZWuKSOZ7EZ+fSzfSyVGqisQS9zn7MX/ALkTDQdL1T+ftVNcl0MbN1o7UvHofcyqeJdNWQmmYghjTo16N2cLMEH/7gTc9+bBCS2wie3Ou6cUEVrCkKVCcKB+UjsaJSkrJaD8ciBZTDbAPs+kst/wTUDD4XvJsovp0JJr8FMy8Z5N92BI0deDJsyNTxhkNb4wVwHIm7kJ+D4KFu2EC/cMwY/ffkJfCeh7l9qgiFMhDPq4owb70Tf08+Hr9No58BkR00cYKJhJm1Mf/V5vHzfbRyE6MOEMCgvKTfDICRWvhmp2hjfqhQbSjEIavNMuUUSOTQx7C83YuClo2HracoNMHBfpLIVnYufKMPHzz6D/40fB7twAzx6NgOdQaoOR2efkdcUZ998L7qfRASBCKhqE1VzCuheuIog/HMsvnxpHNtxB/SG/8ho0h4P/PczuGQcFXgXbP9cUUvw3M8/wL9vGY3k5tVweCiVIhK7KjGw9iJwN1StlykDKDUhlQSU/FPuViBX0l8nCCpp5GPT3K8w9mwiCDS7g0pqqZklB+Zvg5zVvkFACMK+wfmAPwoFb9IyqgyywZ7uejgNfS8fjd4XXQUrmsb2uz++/S4Hk4ZtGyFUJw+5zVshlJaunPvY8Y5Wj1Trp6BPwV/NW3Bs9QLTLSpZsF+rqkEzqSCiEIzkpWCt63BttaI1LQ0utefRi5lWeDROl2u1DuDZvFClNPLGZUtZWLdh2SJsXrkUeloWThp9I/zMKNxYGb5+7CFMe/5Bbn1UpIDYjrImrlEEoVELXDe+8iyGnREED8nl83ZJEFSQsRCq1wQ3/HsC8tp1Y/dAmplApIPCvw6byw5kP20mkvjxi4/w4t03o2jNUsad534GpI5aR4+58Eqc9bdb4elhNR6Z6/2qPED7pS6R7956CxNuvwFO0XqesskkY/sOhkrWz0Eho+InnC2i76ieB+X3oyYOsqtkKB2P/vdT6M06wNfDyrTI17lERHMQOMO1eTPuPO90bF40R1kjswlUQBZVaOXntUGr9hh564NoeeQA5Y1B32dxX2qOyM4IgurIICoSqdccD7z7MfR6TYPyxs5eAS5K163AhNvHYO5nb8OhwVXc1EvI7FyDwJLZQOCpCJUys2ISwskSW9lO016qQBDoO9RWvOHHqbjtjCHQnBg1pAZj1yWFcMC/uPfyCQpB2MsA15jdE0GgFDObp2jsKaBnNUS/0TfhkKFnQrc8FCychTev+QuK162DFdbZcTCcnQMzIwONO3TkUbRpdXP5n+wGLZBWpyGMnFw2rOFVPrewJ6C7MV75kSzMJhU5a+sow0BiSkr1UsdaFJpJc+ppRgJlyuMoWbcShStWoHTTZiS2FGD9koVY/dN3SMRL4cTK4MZK4MRL4NsJRBu1xkVPvoRQi/Z8TaXfTsMTlw2H7nhwuSVNrbRUSKi89jtQ7xjJDGlYUzNcR0ZJ7TqSX5+q73P6m2ytg0FC/s4JQuXrtUjAaaWhywmn44/3PgQvEg04G6XTKYWvhIAcfBwPWrwUL9x5C7757yToiUI4ngOXFfeK0B0xbCQuvONhOGY6vBANZyIbaGUnzJMF4SGxahWeG3Mt5k//mBX7Nq/+g9YDTkEFIsVUbj1YIacIHItMqUbPgZoyHGqdrcSMFoxQFh7/fAa83CZMctWESEVMyRmTPkVLl2DssMHwS9bAoSxJYA2hOm1VFouyU52O6o+Lxj6EjBYduQuEhzWVEwR6np3yDMLUF8fBs+l5UqSTgnUkqz7GvjARdTv0gk2DmrZxRAyeN9/nmRJzPnwXE+6+GVs3rOL7aZhke07XVqG9KC8TsRN0MHLZp7ZgukaS7QbiIhp/zdlAEke68PR0PPTGB0jvsPMSAyFuaB7W/zQDd59/BuySjcGcCpqlEkzZLJ+9UKEEOVB/S+S89iwCQhD2LJ41dm9KwmWxPS4L1TwTGS06YeDN96LV0QPY037TV5/ixasvgl1cqBTz/HIPxF/0PjYs7hLQWckeZVvlUY8+inDzZoAZ4g6B0uXL8PWEF5Dcsh5m2IBhZQUTYKhbIs5GS35GLvJPHYomXXvxvsi8ZcW0Kfhs3AMoWrcIfoxG2VL5gkoFNDiJPkFGIvDVNzNycPRfxqLH6efxZMvE/Dl46vKhsAs2B1MJ1eqocod69VTj+/pWUynHRGbj5myUlLMbBIHOXLW7Gkiv1wIX3XEvOg44Hi4PtKLgp0pNqm0wmPRIwaJgI+645Dys+/lrtr6m0gEbXGk+evQbhAvufAR6/cbQwhoTBPImUC2sygLa9GL48D+P4/0nH0Zs6ybAoQxOiqWlCELFlE1OGFBQpoFEAZEwuI7usHaEDJTInEiRJA16NBdPffUD4hk5gW6BymWq/ZMyGKSZiK1bjTGnnQJ702KeZ8BfDb5PNICCbTgrF0P+cDVOuvBKuJEs1X5IzyUTWPW8VxCEWzH1xSe2JQjk96Eb6DPsTFwy9v8hGUovbzWu/NQQeaJUfhgJjL/9Vsx4+w341DqMRKDvSPVtVgxIImEx6WzoXCLRDPixBDwnyYPKVMVMDe9WgkUXvpGB+1/7AFmde7LVsmr3VG2OasCVEuduXvILHv/r1diwaA6NUuVSIf0uKjvnwHBrXz/ycrz9joAQhP1+Cw6ME+CgQKszbnuwOdFZv/tROO2ux5HZuj2nlVe99xpeueEP8Gm4Ewuk1HCcoHcsGIRESzGlVje1KBoePRCDx4xFVuO2cD0PXtlWzHruOcyc+CwShWt5mBPb8RpKTKdHs3H0H0fj0HMuhR7Khu/HEVs9Hx/fcw8WTfsAvkPZhxBA7nzkraD61lJ+O4HQjoSSUfS85K849qprYZhhJFcvw9MXDUXZ6gXqhcep6XJNWjVbyvbHPavQIKQIApcDdpJBsHwfiZ1oECqfNZE5g9oWDQtdjxmE8265BxnNWqrkNptsKX0DtzWSmRIlzl0HSyZ/iEeuvQJO4Va1og4GAKdlNcI5Nz+AQ4cOg2f60Eigyq2lFKcs6BxkbOh2Ed569D588fJ4OCVFKpGu1IiB2DLIYAXNEqmx4PR/ybGxc4/eKFi7GssW/ASfSkxUIuL7TwQhD+Omfw8nK0fZLVN5gVwk6dy5NGXDj5Xg3zffiu8/eBVesjDwOAiswI0Qe2T0PnEIzrzuFoTqNQWsMDQvyQSHZyoEMx4UQUiwBqGCICj3SArOhu6hRZ/Dcfkd45DdogMcHmBVOTWiGjrVgEUHRlkMb497DN9//hbWL1sENxlTjo7bW1PpJjJzG6F1t67o07cf3vzPiyhYsZR/TypGmVMGQc2P8LV03DL+VTTqcwyfA/uNVCIInuYirJlIlm7BzNdewVtPPoiyTauC0psq35A/isvlj+Cm1IDflv3xG3owHlMIwsF4V3/HNSmhIa3o6AVHKw8dbY49HcPvfgTIyIKWjGHqw7dhxn+eVLXboN0rNStQvTMqdUVwolKHmVEPPc+7DH0u/APMOjkgC+DipcvwxWMPYcHnbwKJRNB36cC3wugy6Cz0/+tNSMtrCt81oJWsxeeP3IpZr78O344FrXHUnkkvV9WOt+18enUOZOfc7exLMPBvY6FFM+Fs2ogXrzgfm36cxuUFHvtbgz7q/tCwJtIgvIrc1p3hkUCUlWoEBpE2VYu3PD/oYthWpLgNQdANdjak75iRDIwYfT2OvuByeGnpwepSrfwZS+5oIM2Hh7CdxLuP3It3n/kXNDepOj6olVFLQ7+zL8fQa2+EVTcbLnU6+GoFCk/pUlR13oURK8LX776Obz74Lxb98D2S5NboJNmCWS3mVaqf/t2KZqFFh85o1qETOvQ5Ap26HYL3nnoMn7zyPDSeh0zmTcqJ0w/Vw1OTv4Jbrz4PWGKxHVsvBy6M5IDo2lgzZw7e+/c4/DTtYzhkLewZ0PQw6rVojT4DB2HAiDMQbdKaPRU0smD2k9A9mk6p5lcokaIDi7sYbsMUKjGQtqV83oeK/Gm5DTH8iutw9JkXImmFYYSpU0dpa9jJkghxMDiJpqyGkjEs+WkWfp45E6vm/4AV839G8datHJwj0XQ0a9UK9Zq3Roc+/dCuezc0qJeDa886kWHPLwAAIABJREFUExvnfcdkWfXmKikn211z9SmEQZePxtDRY5CkFlTN4lZehZ0a8mSSsNhLIrF+Daa9NRHffPRfrFuxHKGQhWZt2+PQw3vjPw/dF+yffgVlRkMNenXs1qkKQdgt+A6eL6tYQC9TJXrzTAPtB1+MoXf8E1o4DBQXYfwfTsem72dwipcNa2jlv6vVhGYyQaCdRRs3x4k3jkXbAYE5j5dE2aJf8OZt12H9j1+zHwOZOeV1Pwyn3fUg0hu3gGGmAfEYZr/8BD574n645avNqhUC6IWff/KZOPmWe+Fl5cApLsSnd92Eue+8xG1t+2wK4x56RLYlCK8gt1U+XEPZF6eyPtzOR10FHhBb8QtGn7BrgsB6BU1lCXTNR52W7XDjvyci2rKjmhDIC3AKsKo8QASEB0ORmdCqxXjqxmuwYMaXLIRjTwLfQBqJHseNR+4hh3Jro0GkhXQCwTly2YLL2j77UsQ2bMDm5Uuxct6P2LyO3DbJx4EyUuTeZKJB40Zo16Uri2FJ62KlZ8Bwknjlrhvx6cRn1chtVu0rkmSEc3D/m+8irU0HgLoYKOFOGLFhk/JJ5LHWTgJlmzdg5YIfsWzBz5xRqt+4GZq174TMJk1hZWSzBwddLrtp8j4CQ6+dEoQnVDo+GOPMvxuk+DWjqN+mEy7/x4Noln8oqM/Bo3kIVMLz6ZwUCVKTNUkaqLB0kkk4sRKUFRbCiatMgmFZCGVmIRTNgEWj0mn3ThnGnDEUG376qvzeKIKgxkKzw6mmo1nX3rjtlXeRAE34jCjiwBMuCQ9qjVWjqEkX5BZvQWzTRi4zUMtkODMTOelRXHRYN5icvSMa5O5PT9E99Bslu6kKAkIQqoJSLdmG06OsgPYAy0DH4VdhyJjbAXIfLCjAs5eeii3z5gZOb/Ri27XWmtsWaWVGLz1LR1brDhh5/1PIaNkD7D7rlqFg7ixMvHYU4hu3IL1lF5x2+32on98DepoBt8TG2q8/wXt3/w0la2i6o11Rr67C/dB0C/mDz8RJY+6Glp3HrXXTH7kT059/DD4NlKphHxaOkgahYQtc99yOBMHXqZef2tNMhH0gvuIXXFMFgqD8LOl+Z2DQpddg2FV/QxllEVjYpxwvOY1PuXDWFCQRchKY+dYkTLjnViSKNwGUmmeXZx91W+fjn6++BzuD5lzQuGHVrMLiVyYIZCRE1smKeGieA/ID4OCqKY9E3bBUCYgnNCpzI/YI0EMIxcow4e7r8dnEZzjbReOced+cq7fQc9g5uPwfD8FDJpe63BDpFWiqKRkQEaMl4aQDsuDQee6BD49LIT4cLnNQm6YKnnRgwwhxaSw1VpvdIdm12a2UQXgCXpCCZytowjRscVuwEYqi98kjcNlNdyOensNTRnWNxJEkNFSOpqrYEEzYJG8OJhgmh2EiTZxloCNqNLiMVvsONENDmpvATcNOxvq50yp1egR6AdJBkHiRrLCbt8Htr7wHM6spz01h/ypqJSZb7mCEN90TzsLQqbguDGYPaix4JF6CC3u2hW7ThE8ifNvm7GrYr5KcbjUQ0LKzs/3CQrrx8qnNCKhXEK+xlAOhaaDTWVdj8A23cV3WXb8az140BEVLFyizGG4h+zWCQO8bGs6kcynAMww07nsChoy5i2vdvmdBs20sn/4GZr31DroOPhdtBwyCnubDT/jY+suP+PDBW7By1hRW0SvxlVr7VNRyd33HKLXa8siTcNLYfyKjaSsgnsDUh8di5kv0Mk/1rNecO/5rBIFdB3SbswFEEEK+j/iK+bjmhF7b+CCkrlbda0qZq3tDo5KpL9VNq4ebHn8WzfseCzeomafGJSuLYao+JAHbgRUrwcv33oxpr7/EZlTBHuGbaTj+rIsw6MrRiOY1p+o6tz1yy2NQw2ZXQxIVsi6BxHWqcVHjVTo9f9QZkTJiCoyreDSDDzMZx6v3jMHnE55lh08qWbHzRlBpadqjL/78wFNIb9wOPnUDUDmMtRoG758zRyz4p+OylI//4UwIGQtRcHcdbFixDLYZRsMmLYIMCJEkIjQU4QnJgCDcfTumvDQuwIB+LwKbaDLsCso/WiSKS268DT1OPgd+WjY00yR9pvodYu2PeqS5uOe6XB5gx4fAAEuJM4LmznKXJCCcjOGWM07DurlflrdqpkZyq9KfKjNEs+vg3JvuQp9TL4AbCvH9UMkgKnGo3yvO8jDzCVpIeSYFZSk8RJ0SXNC9DXS3KMhxVBhK1ZzfIDnT34OAWC3/HtQOwu+UEwReqaoxuD1G/Q3H/+Xv0PQ02KsW4snzTmCvAU6Pcpp05wRB9agHCmnf4s56WqH5kXS0O24Q+l9zPdIbtucg5bulKFqzBhn1mkEPW9BMF7FlyzH5iUcw7+M34MRK+ThuNY1byKq5cc/+GDj2PtRr1wkoTWLKY7dg5otPBC/zmnUTtycIOa068/ArSp+rbkCVaqfBRhZlEJbPxzUDe/4KQaB7qAIat7dScPJDaNixB64b9yyTKpdU+7S65kBlcWKJhI2sP/EdLJ81Gf/392tQtHyJUvqrmaEw06Pod+aFGHT+1Yg0asHzEGjFS6l8TqNzv75aOauZHEF0p7PgWE+eA7SyDzpT2KCICKkLw4nhlXvG4IsJz8OjuR4etXdSBoDIjg8zMxen/vFaDLjwcrhpaUEpiQiCCoC8VueqjDoPymqogY6UwaCR1A5KV6/Gq48/hvxj+qP3CScCWhpoNAlbIXMXA5GloM3x7jsw5aV/wXdUOUUpAFQpRuln2WgAeloGTrn4ahxxypk8HI1W8hSaWWubuv7yf1ep/3LlbTkxDuQ6PGESCNsJjDn9NKz/iQgCBXk1Nr2CSAf/punIP/J4XHT7A8ho3pL1GWrIWpDh40MFBC6YlxFMcYHhuojGSnBRjw6AQ5MeiYTWLP1OzfpNP7DOVkoMB9b92G9no4JMpRe1YaDX5Tfh2KuvB7Qwkst+wv+NPA7Jwi2q9svVaUqC7kQTEIyXprq0T4GBB/eQstuCFongkNPPw2GXXYVovYbwXHLx06GZDreSoXQrJj/xMGa/PgFeSQGnd+llSMOgqvXRdDTq2Q8n3voA8jp2gV8Sx9THbsXMF56okSUGDr2kYG/YAn+jEkPrfJ57QARBxQ8KXkqDwBmEXyEI6lbzujnIBCnlPX2MtHQMGnUlhl51AxJWFDT/mQSKPk2L9HUYTqBRoZW2XYKpE8Zjwv23wbfLgpZXD5rpIRSti3a9+2PkNdehfocOSNJgKAR+ANxfryru205jCFwxWdwS2HfzMps6K2ioFKn9izDhnpsx+bUXqTTPehiup+tEAlTffk7z9rjgptvQ4cjjeGolWSUHBh+BEZgSX6oyh1qdk6DS9BLQtxbi4euvx8LvZuDsG27AkWecA2jpTBBU+6/KvJSLFDmD8LhyZExdTWBUFMgAVfg3Q9DTouhx9LEYdsWfkNeuCxwjolpFVYGFhY2pqZOVzZsq2jAV+aCZDzQ4K+IkcdPwU7BxwddqMBmTt+1/H1XmIZJVDwNGXoAhl10NKzMXSZ26TKjskspOVIxfDxgTJy6IIEQShbioR0fApvHnRLJU1kc+Bz8CWk5Ojl9QUHDwX6lc4W8ioKx4VaCAYeDQK8bg2CuuY3fExJKf8PjIY+EXFwGuGulLK71diRRZKQ0amGRDM8gBkUSLYTY9QlYOjvjTNdzKqIUiyhnOs+GU2Zg78Wl88eSD8ImIaEmWQ1IhW7VZ/fqn8gwFMpNp2us4DLztAeS27QS3OI6pj96CbyiD4Ka8E35rjwfO37PETlddDNePn4B6rfLZs4KCtlqLB/3vlEHwXJStXIhrTurNHv87+yiCkCoV0RZUg1aeBq269MEFYx9E48494Ro2tzly7Z1Xz5SqV1kFCq7heAHGjjodK2eTeJVWpcQ7HBi8StURrpOHoZddiYEjR8EOZcPhwKSW17Q9L1iDxDVn0rlRQA0bI62A5jpMDHQ/iWRxMd4fPx5TX/sPYptWwyYfgcAhkUpKRFhpW5cwyG6Ms/86BkePOAuOEeK6OxMqfta48VG5BbiUCSPLqTIsnj0DT4+5GVuWLeGR4mePGYvjzh+FZJICOX1X+S7w3A+S/Nk2XiKCMOFJ7gIgdb+6H0GmgpkYYJKugRMWDnTDg5GehZPOvwqnXno1DxYjUkfXzF0j5PvB3wummdL+KPATNny/XYSoZdN1sGXlcvzj4nNRvPrHgERvX31LUTDSddDktSgGnHkxRl7/d7hmGndpuIbSg1B5hbsqAu0Ft7gynklE44W44NBO0JJBBoFHcAtBOHDeDnvvTCSDsPewrXF7Js0AtzoaJIIy0XXkNRh47VjoRhje2oV4ZPixcChwU6Dwk/xiVx3yO37YsDcoV/BEPyYeFBxC3KVwxGV/RpdTR8BMiypRl6XDi5dhwfvv44vHHsDWVT8rK2U6H35BqhSoEruxbp7TyqmUbqpDu/xk9DDa9x+ME2/5JyKNm8MtK8WUB+/Aty/TyzxR415wHM40DZG8xjjt4iuR3aAJGxvxSpOW0kGbKonKwp6L2Ma1ePrBf8KlXv9gvVyVB5KEbUY4gqMGDUPXo0iLYHFLHgdx9hYI7nbQ0UpkoWztMrz46H1wHafSxEd1NF7ZGxayG7bEUSedho69D0d2k6ZIy8rmeR56yIARokFKZK/twLNd1hYQwSwt3IpkyRasnvcTZn76MeZ9+xWcGGWw1DTHykFKFUlUyysJZNU0UBNHDhmK7seejObtO8FKz4YWToMRsuA4SXh2EnasBEUrV+CrD97DzM/eR+lmKqF53CZ79JCh6Hr0MXD1NM5+sFCQLl8n/uDDdBP4/M2JmDdjMhAMW1JtmoHYLwA86GRUePD/0MAlC2lZuRgw/Gzk9+mL7KatEM6qA518FwwdZtjiZ9tN0lAyG77tIpmII15chK0rVmP6J+9j7rTPEd+6DpqXUJ0IuwjaqjylyilULqnboi0GjbwI7Q/tg2jdPOiRCMiAilsjPcBO2tD4eCU8Ev2HLz7EK08/Ct2Nq5kdu/idr8rzJdvULASEINSs+7VXz5Zeyvz2I4GYbqLTGZdjyN/vAsw06IWrMO7MgShbuZR77dVqaVciRcqW0iqLUsqkiPbgmzQ8JozMJq1w9GWj0XbAyTAystmBzqAaNU92JEvfBBZ/9D6mjh+HTQu+h6Yl1OqJZjkEWgYeG8zTmoiEBIGI/qgcu7QQOg86A0Nuvw/IyoVTUowp9/8ds159jrMVNW0FRCtf5TlgBfMugkwPtxgGY5S5t56wUXV5IguOm6oXV23FR8cwaRXLrYaUmlc0UBEDpXznEMFp9EAySvoQKgEFAjcS2qU+BpGAwAKaVvl6WgR16tdHkxatYUUzkZaZgbRomFfdyXgcibIY7LIyOIkE1qxaiS0b18GNl0Bz40yGHJfKHTsKVSsTBEWW1D+U8TAiddC0TTvkNmqCSFYdRDKiSCRiiG3dik2r12LN0qV8DNchC27SUtD50+8BkQwK5qoVgzUTtLImAqIGgQM0DIuMlMiRIegI+LVf0nLL5aAMR8cgfUJO4xZo2ro1zEgU4WgYaZE0Jsfx0jLES8lKPM6eCKuWL4ddVMSGYZS1UGSJsi507wN30+1OQGWLyEqdhjfRgS1oVhTp9fLQqGV7ZOTkIT0rilAohGTSRrw0hkRpGUq3bsLKxfOQKC7gEhLfeS5jVegs9uoLSXa+3xEQkeJ+vwUHygkoiRmv2NmBLYSOIy7AyX+/BwhnAIlNmHDZOVg760vlfs/xZle1SJXSpM5uUsjzMKZIOhp174+jzr8SjQ89DHp6OtvY2JvWYcl3P6BJl25Iq9cQWigBvyyBNd98j2nPPoK1cybDdWjFHzAB1TgetMGpUT+qo6LC0JERJaOkEZfgpJv/AS8Ugbu5EK/+7VysmjFZTX2sYZ3cHAB1lXpX4JNnQBC0VU5aBTWNZxZyWYBU/yp+VI0cqIhvwqCaffn9pWdBtSHyOOhUcE6JDFPmWMHt4aeifE6wmgnA557aH90rgyke4NKzpiaBqtvKqSGVFeF7nFL6qXkL/JWgJLH9FaXyB+oalHESTyelQM5tecG00KBtk0kAHSPYH1OOQCTICSueMxHkJIg0UC2EzCFS3IQ7LijjlhpwRrqA39bJKNKiBo+lJqgS+SAvECYf3GGgJIJE2Hm1nhIF0kTKwP5ataByxzH8VPcHE5sdBYRKX0Jtjy6XSThTwB0v9I8qBQV3QD1HwQAndr6k3zAa7c5jrOl3OiCMNez350B5y9a085AMQk27Y3vpfFNdDOpFS+p1DW1OHIphtz0EPzMPhleKWeMfx6eP3gODhi15FpLcQqZe1ZXXdPRiNkie7VLwNuGHs9DllHNw5CVXItqgOY9gpheuW7QRH917DxZPn4KOA/qj78V/RrRRI+jhdPhxG86Gdfjo0Xsx739vAF4xp6+5/s0vc/WS86lNKyAHdFzWwJOxTHo2+lx+I4665CpeCSaWLcXTVwxDYtUSJgg1rpObAx7183O1JegX8OBxO2BAAniCYnBHOMFA47WDEclVJAkcqiq13vHgYapPB8JBlabeNjyrleWOJITDM/fuU2peJaZTPE9lI8rjUfkzxKcZEB+qg7O3A7dxKodPdT1VJzwUZLm85fM4sODcA8U+ezsECfNglyyoZZdQnQdNEbRsC8S7UOdM4lseRc46gRSxILKx8xX8rn5lmZJrJK5URJczaIQ1j5amjyI3qrFAnSCV7cjzgc+Fmw+Cvw9mQO4KGc4ilLNohasiKhVnp7pKUj9IOavS/69UWmJtgnQx7KXX8AG3WyEIB9wt2T8nlCIIaklEQQKo07kHBo99APU6HQpL97H668l47YY/wtmyBpqrw9FTL+yAIqRax6AhrBlImmFkt+iC7sMvQI9hI2DWrcMBXXPiiK9ehC/G3Y+fPvwf2y3rkRC6n3IOel94JTJatYUeMmHHfVhFxfh20guYOWkCYutXwnMLOYXOr0d+yakXWHmwoUBq6Mhq2RGnP/Qsslt35yzGlu+mYPyfzoVXshVeDSQIgTGeGmxF184lFhWkgsK2Wjxyy6L6cCaomi1pajZSauUcOBcEA7BI3KciOfcFVoosdJyd2++W9/kHHCZlWKBW9BUEoWJvKkiqtrvUhdDqOshsBXbCVf4tofZHju7BSGe+tMDimH9Oq2ISXW57/qqLIDUXImXVrFoJFcIBUeEppcrzoCJzUsWzC0gfB/nySE2dHCoLwm2LlT5sBuVRRkY99iqYU/BWAfvXtAGqPMWFhuAZCX53AtOjSndTZXP4FILsC/3OpjwZGMaqE7QqIiGbHaAICEE4QG/M/jitVN2WXt6czK6bg2OvvR3dh53HKuvi5cvw4Z1/xYqZn7JoileWQY2bX5pBapdqzVmN26FZ737oPvwMNOp2CLSQCcdxWPy05tvpmPHCE1g+6wv4sTh8GoJDpjdpaWjcvS+OvvRPaNbnCB4nTfun8c3rZs/G95MmYvk3n6B061r4fpJ1CWpRpF5Y/AKk+QQhE51POQMDr78PeiQPKCvGl+Pu5GPCoRp2zcsgcJALZiOolWvgR7Bd9ka12lVkEnZphb2LB4wDBaecUxGdRw8FRGPngYHPZ6dBQ3UNlDv0cdCtWKFSGNpRTRDwHQp3ZLCkIiF3HqgVb/XmADAWAeEpTzxwhiR1ZNpn5ZVz6vh0/YoYqOmWKhgrWlBBytSCW2UiFNZVD54qyZOyj0rdkFRXSpAxIDJTnvlQx0k5K6pSX9DhULkUsZN7m9IhVJSIUnc4yACmyjmclVNJHDbgYmIQmEsRORKCsD9ezfvtmEIQ9hv0B9aBldKZXgDqpUgaAt8Koeuwc9B/9N8Rzs6DXZbEsk/ewBfj7kXhiuWqBkopX1rNUio5LR0ZjZqjzeF90eqoE9Cy55EwsurA123AjcEvK8Pst97A3DdewfqFP0Dzk/CIYHBNVK3WKBjVbd8Vvc6+AJ1OHIJQ3Ubq7z0bJetWY/0P32LBFx9i8VeTkSjcCI9V3sGq0/Chh9JRp2NXDL3lNuR2PBxAGP6GdXjqwhEoWTGXTV6oVFHTNAiqqKDU6EokmBpXrdZ+/H5PpVFSP6mYFlzlh03tLZUpUKtFfjY4jgTDlKocBlUgLl+JcrFg2/1sf2JqemOK7QUBt/z4QUCs8tWoDSvlVMp9F8pJA2NZscPUtsFIEoVFkHVIbaiwDjI5gXAvUFVUGZlKKAcnmVrDK6wrTimVsUidIwskUimEAM3Ud3ed+q/AILWf7bITlTAt/5vytEKlu1Z1/lPNuySbH4gIiEjxQLwr++GcKlqh6OBmMIdWR3rT5hh+14Oon384fCsbXslmLPn8bUx54QmUbNzAqVVqiWzUoSNa9z0GbY84DuHcRojm5sLzQ3AcahCzsXne95j67yew6rvJiG1aH6w4K608uc3fAhxFNtJyGqPd8YPR/w9XIZTXRCnHSc/g+khs3oji5UuwZPonWPzNl9iwcAV8Lcntay169UXfC65EXv4h0CM6YJdixrPP4MvH7oPmFnMNV6ns5U23Hx4zOaQgIAjUIAQkg1CDbtbePFVFEKiWSmtVUjYHkxpDGejQ/2QMuuVuWDmNoBkuDFLHlyRQVrKRhWPhaBY0KwzXpJ538qpXPdXcNrZlI3763zv49tWXUbj0R8CxQWZ87C3P/eJBipMXZFQfDRZIVNc1MxFp2hKD/3Q9mhzRH0Y4nQ2c9JDFpQcv7gJOKZBwUbSlAJH0NITrZMC1wtA9cgG0UbroO7z+99FMUFj5TWI1ynhIHXVvPk6yb0FAEDgIEJAMwkFwE/fEJXAKknVLQSubpsGgfngSUKXn4JhL/4zOw85CJK+RMjxKibRowI1BYiZqhXdAc+2pLbFw1QqULF2IOW9PwKJvJsOLl0KjUkBg0KzU45U+PDhIh06ueUFfN7VJ0vZGVg46DDgJnU84FfU79UBaTkP2TVAaRSovUAnCDNrjXPbop778ovk/Y8qTD2PhlHd5JgE78armTBFa7YmHRvYhCAgCBzUCQhAO6ttbvYtTddVKNdtAzky96uE6DdBx4BloP2AIGnfuACszyit5bo8mGYKbRGzLRmxeshDr5s7G0m+/xNo5c+GUkvOiHZABGh9LAXrHFH8g3FbtZSSUou1ojkNwDmYohPTcxmh26FFo1LUPmnQ5BHWbN4WZnqksh7kFkDIQHmKbN2LdnFn47vUXsXrml/CTRXB4WA/914VXTaFb9VCUrQUBQUAQODgQEIJwcNzHPXIVKYJQ0V+m7FnZWIXKD6FsZDVsirrtWqJRp3yYZqbqMvAdbF6zAsVrVqJk9SqUbloHJ1GkhIDchaVGO/H+6d930arG5ICyBixcd5WKnQY5kXELC+RMOKYJKzMD2Y0aIaNhC9Rv0wmR7DqoWycPsTIPJVs3YfXcmShYMg+xTavgJckdjzINag/c0iYEYY88L7ITQUAQOLgREA3CwX1/q3V1amJgpa8ouTZMslYml7iwD8Oj+j/pDWgwT0IN6AkU7iAbXI9S/mT3G4z/5T5zykq4oH9j05ud2hQFLoFkEqOTIZIGk6bWMc3QlTMjT4Uk9zqDh+mwkp/KIDo5vpH7XxiwqUuhmCbscquWS5MAqReeiAbvz9uhv7xaIMnGgoAgIAjUEgSEINSSG13dy6wsINz+u6ptjX66Jx3VUm1jyoK2soiwvHN+uyE43PMflEXobOicKr5aoXD4tWupLi6yvSAgCAgCtQUBIQi15U7LdQoCgoAgIAgIAtVAQAhCNcCSTQUBQUAQEAQEgdqCgBCE2nKn5ToFAUFAEBAEBIFqICAEoRpgyaaCgCAgCAgCgkBtQUAIQm2503KdgoAgIAgIAoJANRDQ6tbN9bdu2brTxrNq7Ec2FQQEAUFAEBAEBIGDCAGtQ4fOvm6E1FhV+QgCgoAgIAgIAoJArURgexagde7S0zdDkQAMGi1aMeeuYmL6jj+rjJ58J5gIG4BSk3Bjc+WUeUDKU6DcUKBi8m+FyUDli0xNVqpsQiDfUbOXU79SKXOGAxy38tG+tfK9KBe9HQLl7/TUs5x6J9B2O/3Zbz3nwe/ENvupCd+pnQvn1C3WOnfp7euhiCIG8pKQF4UgIAgIAoKAICAI0MRdyiDo4YxKeQPBRRAQBAQBQUAQEARqOwJa5/yevhlOr+04yPULAoKAICAICAKCQCUEtPz8HoogVK6bCkSCgCAgCAgCgoAgUKsR0PLze/pGOL3yhN9aDYhcvCAgCAgCgoAgIAhAaRDMkJQY5GEQBAQBQUAQEAQEgQoEtM5devlmKCqYCAKCgCAgCAgCgoAgUI6AEAR5GAQBQUAQEAQEAUFgBwS0zl17+aYlGQR5NgQBQUAQEAQEAUFgmxKDaBDkgRAEBAFBQBAQBASBbRHQOnXp6VsiUpTnQhAQBAQBQUAQEAQqIaDld+3lG1JikIdCEBAEBAFBQBAQBCoTBNIgWKEoz+KRjyAgCAgCgoAgIAgIAoSA+CDIcyAICAKCgCAgCAgCOyAgBEEeCkFAEBAEBAFBQBDYCUGQNkd5LAQBQUAQEAQEAUFgOwQkgyCPhCAgCAgCgoAgIAhIBkGeAUFAEBAEBAFBQBD4bQTESfG3MZItBAFBQBAQBASBWoeAEIRad8vlggUBQUAQEAQEgd9GQAjCb2MkWwgCgoAgIAgIArUOAZnmWOtuuVywICAICAKCgCDw2wgIQfhtjGQLQUAQEAQEAUGg1iEgBKHW3XK5YEFAEBAEBAFB4LcREILw2xjJFoKAICAICAKCQK1DQESKte6WywULAoKAICAICAK/jYDWKb+Hb4UzfntL2UIQEAQEAUFAEBAEag0CYrVca261XKggIAgIAoKAIFB1BIQgVB0r2VIQEAQEAUFAEKg1CIgGodbcarlQQUAQEAQEAUGg6ghIF0PVsZItBQFBQBBtfskkAAAgAElEQVQQBASBWoOAZBBqza2WCxUEBAFBQBAQBKqOgGgQqo6VbCkICAKCgCAgCNQaBLTOXXv6ppVeay5YLlQQqOkIeBqg+9W9Cg1AVb5E29GnKttW9xx2tT0dK3XcPbVP2Y8gIAjsLgKiQdhdBOX7goAgIAgIAoLAQYiAaBAOwpsqlyQI/H4EUpmDbVf0+yavsPNj//5rkW8KAoLA7iAgBGF30JPvCgJ7EAGf0vq6D4PipGdsk+TX4MLXfE7E+5oOj4+rQ+d/8eHvNEOvqX3w93xovvqT/6NpvA9tu9S+pnnQfPo72qEOnf70aDs+O/4e4AKaOgPa1ofO56QF8V0VDPin8Onvd3JutK3G+1LnQ4fx4fE18n7pP54e7ImOq4BOHWMPwi67EgQEgV0gICJFeTQEgQMGARUoKZDrMOBqPihG6j4FbR+6Z3CApJ+5OkVMDxoJEnbx8VLBlngHNOhEEDigA/Q1FXS3/b7hqwDNBEHjEM9BnAkCkQLN5Z/RfjSfSIEiMkQcSBdB+/R0Dbrn8XnTlezsFNWh1d/TvuiLTGLK6YEH3yfiQbTBAzMhPuHUPwfMTZMTEQQOWgSEIBy0t1YurMYh4AMGBVvdp3wB/0mLbI7ZHgVki4Oox6t3CtZEHCjA0kp7x49OAZjIBQdVIwiwFdtXUIOK1D4HZI0oAB0jRQqCVT4dxtegu3SWRB7UCl/zXZhwmCgQcXENIgg+DFcdYWcEQadj+JQV0eDpZnB9lBEhKqPIj8/pEcpWEPNQ+Q6VmxBBY417tuWEayQCMqypRt42OemDEoFgpe/SUlx3oLk+DE+DrxvwiDIEMZ7iJi+oocFjBsEJ+R0gobU9BW/mF3pQXNB0yu1z6l+jAB9kDDjbz8HXDfIHqiSh0v8Gr+Y5D+FR2YE2pTIEBXF1DNPjo8DR1bE032SCoMoZO94tgzMQGhzdgW8Q2QkyCW5QoGBy5IF2S/zA8E1urPiVhMlB+UjIRQkC+xMBrVN+T98KS5vj/rwJcmxBgBHgCgOtwGnV78JyiAiYsA2LV9MeEtAMA4brw7QpEOtwiDTsojbPa3EO8kQkKCPBeQf4ug5PJ/qgV2Qo+ASoPpBEyHWhw+XvcoQ2Q3ApoGs+XNofBXODSIYDgzIHHmUUTJiuC893AFODRwSBSYUqUuzw8XX195oD0D6oomGYcIkgEJnxHWieo4iPZsLTLaU/YEKzL1sw5dkUBGovAlJiqL33Xq78QENASRDgmhScAdM24OoWjNx6MDIyOTYauo9EQQG0wmLoWhKOQWUEtRrf/kNrfErhu4aFpGYhnFUHOQ0bo2Gz5sitnwcrlAYzpFbmtp1EWVkc8eISrF+5AptWLUOiaDPMZILivSoBeA5cy0SoXgP4VoQzC7rnctAuK9kKr6gIYTisU3BgqozDLoI5kRaWQTK70eCYIUTzGsIPpcEnvYWTAEoKES8sAOVPiAzRtRAGIlQ80B5cOZ+DFQHxQThY76xcV41DIBX4iCDopC3wDCSsEI4962wcduIp8IwIDC+JKW+9ielvvo6wWwxXd3hbeGbQCUApfyU3oGqCaxnIaNQc+Uf0Q8eehyG7cTPOCKhASxsGq3HKCgRrc811UFawDj9M/RQz3n8bfmkRLBcwjRDiZghHn34WjjjpFDhmVGkR4oWY9s4kTH//XUQpsHsuXCpLcN2CdBLB+QR+SCkZJCcefAO2mYZex52Ak86+AAkrDZrnIZyMYdK4f2HxrBkIeQl4msvX4/GXRINQ4x5uOeEaiYAQhBp52+SkD0YEVOufC5c6F1yT/7RDFo45+yL0GnwaZxNMx8WU117F929OhOaXceZA11yYjgWP2h8NG5qfhK2HEc5tgPy+/dCt/4nIatAE4FU44GikI6ACA2kQgiIArc41VUZgbaAHlKxegGfHjIZpl8L3IirYuzbS23TA4MuuRl7rfC4t+JqDgkXz8OH4x1CwfD6dNHTPAvQkNDhcxkgJESg7wE0LOokh6XpDyG7dBuf+7UaYWQ1ZU+HbCfw8+SN8+p+nYCYceNzTQaUIG/CtXbR0HoxPhFyTILB/ERCCsH/xl6MLAuUI7EAQDB+2FcIxZ49CryGnwdUsGK6LqZOIIEwoJwiUxjd5ZU26BA+2oSFUvwmOGnY6OvY+AmakDgde9lJwbTgJG8myUsRjMV6N64aJUDiEtGgEeigE3YjA83UUr1mMZ275M0LJrdBci/sryYHBs9LR/tgT0e/Mc5GWWQ8etU8mSzDrwzcw88034JXRfn3VnsmtkSpnQKUQ/pN1ECoRYGXlYsD5l6B9337wNItbMdcs+AVv/N/D8DaugGbT1mHofhKa5sD3iZDIQyMICAL7AgEhCPsCZTmGIFAFBHYkCIBtBRmEIUPh6iYMx8PUSa/g+7cmQvNKAd/kar7h0zrbYTEf6jTAMSPPQ/vDj4IRjrLQUPcSKFi3CgtmfYe1i5eidMsm2HaCBYy6ocEMh5GdUwd1GjZE266HoUGTFigtWIenxl4HK7kFOncbWtA1B66rwchpguNGXYI2vY+EBwu67iK+YS3efvwxbJz/I3QkQJ0KxANSfgxeZdMkEkpqJroecyz6njMKZlZ9aL4DZ2sB3n/+WSyZNQVhpxQ+SRz0EAyXro+EmioLIh9BQBDY+wiIk+Lex1iOIAhUCYFdEwTKIJwaZBB8TJk0kUsMul/GBIHFgojD8F3YRia6Dx6GI4afBWTV4c4CPVGMH76ejC9efwP2pgKYdgxGyvSIzIh06nIgOYAGzzCgRzLQ6ZDD0b1rPiY89ThMt4y6LjmrwEwBDlwtjLzOPXDaVX9FOKcet2KSTmHpzOmY+PgDSHcKYbDhYjBZik2P2N0ALlwYVhoyGjbDwAsvQYOuvWBoEXjJGH787H1Mm/QivOICaEgGXgtBB4N0L1TpOZKNBIE9hYB0MewpJGU/gsBuIlB9glDKq3oq8mtQ2YC0Bi0x+LI/oWHXHtzKaCRKMX/6Z/h0wovwt2xhEsFB3gMMj5QI9AkIAq/MybzIg6NZiGZmI15SBJ1IhmbC9T141IKpkTCSyh8Z6DviPPQ+ZRg8g8SFBhAvxjtP/wvLvp0KI5GA5ZPlkgstZQ9NsgfyUAin49CTh+Pwk0+FnpYFMlAoWLmEdQyb5v0Ak6mE8mmobAstHQy7+ZDJ1wWBaiAgJYZqgCWbCgJ7E4HfJAiwYHgeplCJgTMIQYmBZy0k4OohNDnkCAwcdQXSGzThwBrbuBYfPvcEVn8zEyHHhadTwFXCQXZgLLcUqJy61+CS+ZGhwaHSBa/+A08F/qILw7fhaib83CYYceVf0KjjIdxOafgOilYswCuPPIyyNcsRdsnLgMoMJIL0KfcA3bSQ06ojTrn6L8hs3AjwLGhlCUye9AJ++PQdJjU+iR99pXkgNkOCTY3cID3xUdybz6DsWxCojICW37WXb1jUriQfQUAQ2J8IKCNhCuIUg00W8iVJg3DOKPQcMgxkaGy6DqZMehnfv00ixTjghYIBTzG4egRt+w/BCedeAo0Eh5qPdQt+wQfPPIbYimXQHINNkkDZBnIp5JkJ5c2NwaWnZh345FfE63j+LxMKlW2gf9HZoZH8C9LQoFN3DLvqWhg5ddn5QLPjmPm/9zD9zRdglJUgjDA8x4dt2vAMH3okFydfciVaH3EEXCPEGYoV33+D9598Au7WTYCf5KyIEhukBlQpwyfJIOzPJ1SOXdsQECfF2nbH5XoPWATURAWXRX2aR+6JRBCoi+FC9BwyglfsppvElFcVQSAhoO+FOWAbiMPT0tBx4DAcf97F8MIWGxutnf8T/vfk/0Ny9XLWDdBK3qQAzHF/99V+OmUGonXRa/hZ6D1kCDQtDaZuYMvqRfjg+cex7qc5MJMGdF9DwkzCNU0ccvQQnHDBxXDD6cwB7K0b8O87b4O9crkqgfCsCXFLPGAfVDmxWoOAaBBqza2WCz3QEahMEHTXoonPTBD6nUM+CMPLCcLUV1/Gd+9MgO4TQQipkUl6HK6fhrb9TsTxF10KPSsbnuehdPUKfPbMOKydO4tFiDQ/yfQ85bm8JwhCkEXIbN0OJ108Cg1bdYNn065L8POXn2DyhJfgFm1lPwQa4pTZrDXO+tONSG/QEr5mwXeKMfW1iZj93tuIuHQNVAIRcnCgP6tyfrUDAdEg1I77LFdZAxD43QSBgqpBWYEQ6uf3wvGXXobspq3h+Qa0eAm+eetVfP/BO3DKiqEGOHHhYI8QBJJHsg1yKIwuAwbiiOHnI5yRA9eIw9myCR+Nfw7LZk2H5pQBGVk4asS56HbCEEBL57kPy2bPwMfPPw1n0yrOHlAuJKhqlN+xwICxBtxBOUVB4OBCQDIIB9f9lKupwQhsW2IgDYKGZCiEfmddhF5Ddp5BgBuC4ftwDRp4pMOq0xAnXnwZWvQ6EjDTAN9G6ZrlmPrm65j39dewkmXQXRuaniIJuw+YcmDUYGXXx3GjLkebw44CTaSkoVIr58zB6/96EIhtRYtefXD8yEu4vZG6E4o2rMYnLz6LNbNnAE6Mr9d0lPZAvA52/77IHgSB3UVACMLuIijfFwT2EAK70iD0I6vlXyEIpk9dgi4804Omp6HjkcdhAAkVM7PZftnwXMQ3b8CsyZ/g+88/glOwCSGalOg7gc/A7l0AtTySD4ILA1nt2uHCm26Gn57HvglaPI6PXngGi3/8DiedewFaH9oPlCSAW4rvPvwAX056CXrZFmiawW2Z5NtAFQYeYy0fQUAQ2K8ICEHYr/DLwQWBCgRUSKQJjF4lkaKFfmeNQq+Td51BIILgGkQQXGiuDjecg2NGXohDjj0OCKWz+yCZGxl+GVb/+B2mvfseNiz4BX4iBm27tkGq/3O7ZTBlcRfDmre5bXzevgabqgMhC10HnowBZ10KjwYv0QSFzSvw4ZuvY/C5F0MLZXP3RdH6xZhw//1w1q2ERQZPZLRkk42yzRqEPSGglGdLEBAEdg8BIQi7h598WxDYYwhwYKZGR8Pl9kMXOmwzjGPOOh+9TqUuBvJBSHAXw+y3J7J9MnsIEKHgPkSP7YttQ4eRkY7jh49EuyOOg5mZAdfQ4ZO3gesiUbgFi2Z/j3nfzsSmJQthF23msgP5DmgGjXX21MAmkMmRz+2QigQoWeP2EkKlHdDgGGoeBKK5OO3qv6Jx9+7wdZqvYKOkoAAZ9RqqAdCFG/H+809i8cxpMG0Hvu3CoJ7KYKaTSBT32CMlOxIEdgsBESnuFnzyZUFgzyGQIgiOTqt9nQlC0gih/9kXoteplEHYCUFgJ0UV0JVvAaXqNdg6EMrMRrdj+qHLUccis2krGHqE5jEqHwPbRdnWAiyfNxuLv5uOVT/NgVu8hWcekH0zDX2iyYvUnkjaBipVkG5A30n0VmZGPlz2VdBha2E0O/RwDBx1KdLrN+EBUdSySa6PWjKBHz//Lz57+TkYyRh0nhPhs+0Bk5Fyv4U9h6vsSRAQBH4fAkIQfh9u8i1BYI8jsGuCcMGuMwg8/pjcDqm078P3KJhr8A0a3WTDjFio16YTuh11Ijr27KN0CYbOpQXqGPBtG7Etm7By7izM+ex/2LR4EXSPzJpIC+BwwKc9M0HgDogdL1ujaY6asmjWvBATGz0nD31HXohu/Qey+6FDXg2aieJ1a/Dag3ehaOU8mFCuzzRuio2byJuBWA7tT9IIe/z5kh0KAtVFQAhCdRGT7QWBvYTA9gSBZhEkQ2k4avi56D3s9PIMwpevkA/CRDZKoi4GWnvTVIWgEKBEfqQDpKy9QcOgaQhTBA3bdcJRQ4eicadO0MMROJ4BjaZBUunAS8IrLcGUd1/H3C8+hFtaSP6H8D2b5j1C85l+KMvj7YI3lTc01g6QqaOFmO8i2qgFThj1BzTr3geGpjFBoLHSKCnGpPvvwtr5s2F6DgzKfKTKGaQ9CCydxSdpLz1ksltBoBoIyDTHaoAlmwoCexOBqhIEMkr6njQIfgKaSyUGWnEHzgaV1P80PIm1AZbN8xN834KZXR+te/RC1yOOQF6rtjAyctiwiLiErtnwYiVYMGMavnz7HZStXc7OjVTsIBJAhIWdmbf7MAWhQU5UitBNxMNhHD54GI469Qz4kXQeQ+34DjQzjVsfC5fNxwsP3YPk5nUwPR8mmSdqVNII2hsle7A3HzPZtyBQZQREpFhlqGRDQWDvIlAuUtRdVfsPMghHDj8XfSplENhq+Z2JLFgkgqCy8tT9kDo/FWFTQ5ZI9EgWzrz8N0JwjBCiOTlo16MX2vY6DA3bdoARiUAzTC49OIkyLJ45A9PffBVlq1dA9+M8H4KEBDzgabuPrtF0SBJBhpAMaWiY3w1DLr8a6fWaQfNdFG1ai80b16NV567wtRAMN4E5H76LL157DkgkYThMPcrVj5xQkI8gIAjsdwS0Tl16+lYofb+fiJyAIFDbEaAsAIVflwYqsbcAkDDTcOTw83D40BFwdYu7EGjq4az3JiJkk0ZA9RWkVvaKGlQ0CVLKnmv69FMqJehKUuhSKl83kNW4Mdr07I1u/QagTuPWcHWThQFaaRnmfzUdH45/EqFYMVwzzgGcSggkWuR+Bm6F9HiCIzQLLsIw8/Iw4pprUK9NF3iGBT0Rx6eT/oPCjRtxysVXwcjM5UFPya1r8fF/nsSSGV/BdFODmJSWgq5F7JZr+2+DXP+BgIBMczwQ7oKcgyDAIZe6BKitkEYde/ANH0kzgqNOvxB9Th4KzwzBsB18+sp4zP7gdYSTDqfsKXOws9T/rkDlcgKNcLYAm8hFKB0N2nbFieddhDotW7LAkZIOWkkJ3n36USyb8RXPVtDgwfNYWsi+B5ywoNHPms/CRC+Ugf5nXYBDBg1hvQRlNlb/8gMmPXIvLMNDvxEXo0u/E7mVkiY2rvrxW3wy/hmUrV3FyQ36mI6axSBVBvmVEAT2PwKsQbBCUV5dyEcQEAT2JwIBQdDIT0C5FSWtdBw78mL0OGkIHMOC6Tj46IUn8eOn78Ii/wDuMFQk4dc+FeOaeTo0txY6FpERH75jwTOzkN2mDc7601VIa9CER0uHPBcFi2Zj/D/uhJkoYktn+MrroGIoNE2f1OBZYbTs2QcnXXAVzLwG8Lw4nMKteO+pcVj1w7fQUIpGHXpg0IV/RlbTZnAtDW5JMWa+/Tq+++8b8Jw4ly9MjzwVUkfYn/dCji0ICAKiQZBnQBA4UBAgpT+J/diLmPIJPmwrAydecgXyjz0eDlkR2zbefeZRLPzyA5gOpeRVOSIVUqvM87njgLQOPhyPnBjDcEIR5PcfgBNH/ZENmogQaMVr8fxdd6J4+ZLAI0GdGZcsaKWvUwujhfQmrXDCueej2SGHw9FD0O1izP3sY3z92itIFm2GpcdghzNw2Cnno/eQ0+BFI9A8DUWrluCDZx7Fhl9+gklZDRpFTaJLbtqUjyAgCOxPBIQg7E/05diCQGUEyEeArIw8U80i0IBkKBNn/G0MmnbrwdoEI5bApMfuwZrvp0J3PWgatSnSyr7qUNKmlAggMqKR+pDKGgbYHyHSpDUuGHMXzOw8khdAswvx/v/9PyydPg2GrwyZUlbInkbfM+BHM9F7yHD0HjQEWiQLmquhYMUSfPjcv1Aw7xf+joEkkpaO9MbtcNoV1yC3ZTt4pgnNTWD5t9Pw9qOPIJRMwvUT0JXPc9UvSLYUBASBvYKAtDnuFVhlp4JA1RDYxrqYDY/INtmEwyJCDW56XVx42z+Q2awNdzX4hUWY8ODtKFwwO1AdkpdB9QiCyjbQmGYlZ1ROhj7PctDrNcLpf70Vuc06kN0RPLsUn73wOOZ98gkLJHkwU2C/TBmNpGGhWcduGHblnxCu1wCupkOPJTH5lZfw/cevwUzGYXArJlkxO0hqGlof1h8j/jgabiTCpMdMxDD55Rcw639vI+Q6TJKqxXiqBrVsJQgIAtVEQDII1QRMNhcE9iQCKdMh1hBw2t/nVb1jUADXkdGkJUbeNBZGvUYwfCC2di1eefhOxJb/wjGU3BBTC262KWZTI/qzom2Qzpe7GYIPtVByaYG0A5SVCAiCbbnQc/Nw0a33I5rbBBr5GiRieP+Zh7D8qy9hJB3oPAFSdVrYeghW3Xo4f/T1yGrTnjMQ0HSs/flHvHbfPdDjm3n7kE1GSWF4ug1Pj8MO1cHJl1yD9v2OgW2EWWHpbVmNiffdiaKlK7grwvdtJYaUjyAgCOw3BCSDsN+glwPXVgR8jVbiajYBB2/fhm/Smt6A7urwdTJJ9uGG6uCQAYPQ/+xz4KdnQrMdLPr6M3z+/DNIlGyG5ZBBEdXtdbjkNuQBaXXy4Njgvw8ZHjyyU+RMQaBT8HQYrFh04Rg+HF2D5dKAJh3xsI4m3XrijGv+Di+SxiUGs3ALnr77dsRXLYWeJD8FyjlQoPfhR3Nw5Ijz0GPwEEAPw/UdJLeux2uP3o/CeT8DrtqerlU5JFLNgjQPPnJa5+PUq0YjvWVTODBZcLl4xpf45MXn4BVtBJCA67owvRBAJRfyZKZ/PBr3JB9BQBDYFwgIQdgXKMsxBIFKCLAzIafRDR6eRC1+tKJX5kg098CBo5nIbNoWgy66DI3zu8LRLWglRZg84TnM/fR/0PykciBUzZEcPB3dRIe+x6BB89aYM+NrFKxZDiRiygkRdoXbIp8LZQ+INujQXBOukYa0xg0x5NxRaNntMNhEWDwbBQsX4Pl7/oFQ2VY1v0FzWJhI1s1tDu+HEy64GFZmLmshPLsEX7/9Oma++QqidoKHN9HAp1S5IDURkn7mpmWh++BT0Xf4aUA0h02YnIJ1mPb6RMz98hNoyWIYVNLwLFA/JhGE1ChqeZgEAUFg3yAgBGHf4CxHEQTKEVDDjShVb7KZkB0OwbQBP06ZhBBc3YNVty4OP3koeh5zAvRIFnw42DDvR3z8zDMoWrmQMwBqsqISCpJ3kYMQeg46Df1OHYGNmzdi1dKFmP/NDKxZugROSRHPPqDOBdUSacEjd0XyUNDT0KBNBxw9YgSad+4G34zw/lFShPeefhbLp0+FhmK2W9Z0F7ZhoU6TDjjuokvQqGsXaJ7FTojL5s7C5888hbLVi1nQyH4OvN5X3ohEZojO0FAm1zQRadgCg0ddjIbd+8BFCIYTx5ZFP+Gdf/8fSlcvgWEnYLhEMki0WdkpUh4mQUAQ2BcICEHYFyjLMQSBSgjwXAOu/2vQsnMw8pq/4Jvp36Jg/Xo4jo/chg3Qs/9RqN+mIzQjjTUFTmwLvnxtAn54/38Iu3G4PNhIaQ183YCuu3C1KLoNHoZ+I0bCD4UB3QbKkijduBEr5y/A0oXzUbx1M2JlMd5nNDMddZs0QJv8TmjWPh9mRi6TDVezYblJzHj7v/hq4qsIuaUA4vBJq2AaQHpd9DnlDPQadAr8aBSe78Ap2oJPX3gei6d8CMOPc8mCCNAuxYaazq2VHQ7vh36jLkYopwFgu7DcUnz7wX/x0cQXkOXEoCcpY6FmSvA8CdElyO+SILDPEJBpjvsMajmQIKAQoMmI1EFAAkE/txH+8sgj7B3g2mRnrMPULcA02b6YZygkSjBn8seY/MpEmEWFMOEq50IuTVD5gMSBNlw9gq6DhrOboWdZ8A0TVPYnPwPdszmQe64Lz1NdAtQlYaaFecgSj37m+r4NJ1aA+dO/wrTX34C9dRPIb9FwPeiahbhmoVmPw3DKpZcjlFsPHukfnBgWfDUZn78wHijcAJjkl2wGUxp3ThG4XAATfjQbAy+7BO37HgNPCykfiKJCvPzow9j882yEnDhRoCADQX/SucpHEBAE9gUCQhD2BcpyDEGgMgKUPeCUuQGvblNc+9gTcMwIXJImagZrC6j1kCyTyrasw/yvPse0997hFkfDT7DI0PcN2Ca49ZBKFr7pwvMpeB+Nw4eMQF6r5kA0wiSBPz4JBpVAkVL85GFAcxl4pc8zIFwgGcfGlUvxy/QvMe/r6UgUrIOuO5w5YGtlIwKrTmOMuPoa1O/QngWOpJsoWbcW7z79L2z6ZTZCNDaauh98gzsYOMdRqYMiBQMPp6ZSg26gTrt2OPvaa2FlN2BSpNPEx8Xz8eoj9yO2aTXPg+Zx1jykQf9N10h52AQBQWDPICAEYc/gKHsRBKqMgEapclLz6yF4mfVx9di7kJbXEA6l70FdBT5KNm/AioXzMO/br7Bm7nfwiosDS2VXBUomGYFtMhkd8TwGDUjLRGbDxshr1hh5LVujQcv2yMnLQzQ7G4YVZmEkT4FieSSQKC1FccFGrFu+GKsXzsPG5UuxeflyaJTN8Gz2R1CFDGWn3PWwo9G579Fww2HWL9AkxgXfzsSczz+AkYyxxoAieGXtQeUWyxRIVGahoO9oOpxwGrocfTQ6H96XdQvUXmnGyjB36mT89O0M6E6SNQ1s6MSDouQjCAgC+wIBIQj7AmU5hiBQCQEOnxzsLDhGGOn1GiBarz4iWZnwPBdlRVsRK9yC2NbNQKIMYZpPwFmDHWcuUPymVXywuOaOCN8gMSGVCyxY4SyY0QgQTkNWnRxE0rPguR7ceCliZcWIxUtgx0rhlBZDSySge16lzoNK3gncjunBCKfBCafD04loQM1OiJfBtxM7mB9uYwK1/RNAGRS2ZQy0ClYYeiQKGCY86nxwHJhOEolYKQwSTGqUKQnGTf/W4Al52gQBQWCPICAEYY/AKDsRBKqOgBIXUordZ30ADzviEcxqUJGmaTBIn+CpNDz9Q+SAJzfv5DCqPZIX7kwO2DaZ9u0leSojGRiRIJJIhqYZXGYw2YjIh02lB43IhM5yB0Mz4O50chvVJZK8uoce4omPrGXwHZj0VdIvVCNwU7sktWHw4ChXg2GEkHRc6NSREXRnuI4N06Q2UFdNeySC4NHfixNC1Z822VIQ+P0IaJ3ye/hWOOP370G+KQgIAtVCgMcwBR0IbK1MyXbNgxvoEiiQ0waGZnJandFnaEcAAAU1SURBVM2QWKq3M3rATgZBGYDYBHVH0D5VxkHzSNBA31dJf1q0KwdGOgGlPyDiwYGar0IDKQe2dyPiI2uKZJCjI59XsEOP9Q2B1qGKSLCmgPYRbE+Ehs2U6CToOK4HoxIjShEgUiPIRxAQBPYNAmK1vG9wlqMIAuUIaEQEQHMXOMIGaQEV5Ln9MaXaJytDrv4H4T0Ytbw9lCrIKq2AchoIFACccVB/q7wXVFAmSuEhxPV8ogPkyUBEhY/l09+lhjlXHElxFvVzw+WeBz4iiR1pcyY11fioM1UpEdJjpOhPuZ6Rsh183upPvkJq7ZQehmqgLJsKAruHgBCE3cNPvi0IVBsBXo3zQjiYWhi4KAb1BfY4YHMhXk2r0KnzZKVU+r3yIVXg5xHJFEwD40JFEypmMKi0vBIzqmjLO+fMhapjKNMk6o7gjoXtAj4FZ0U3FMngjL/qLQjoSfUIAnVxUCkllargTgpOgCjSQA7RfLyAMXCZhY9dveNU++bIFwQBQaAcATFKkodBENjHCKjMQWpV7EHTSRiohiup0EvpeqUroA+v6mnSY+BIuP3pUvDWKeDyMp+CqAq77F/IZQSVmeAgH8RkKj0YVBrw1bHoS9SaqEofikikBkmljsechiN1QAp2SiKqBiadrw83mNuosgQ61RcCPQVnUfia1CkTeeAujYDYVO0ospUgIAjsDgIiUtwd9OS7gsDvQCA1fVGtkQMSEPxwW31g5dVy1eyBKgf1X19sB6LHVNahnLDs+oJ2tXav2pntQGs4O0DXq5IEqbkN2263rYXCzrf5HbdAviIICAJVQEAyCFUASTYRBAQBQUAQEARqGwKiQahtd1yuVxAQBAQBQUAQqAICkkGoAkiyiSAgCAgCgoAgUNsQEA1Cbbvjcr2CgCAgCAgCgkAVEJAMQhVAkk0EAUFAEBAEBIHahoAQhNp2x+V6BQFBQBAQBASBKiAgIsUqgCSbCAKCgCAgCAgCtQ0BIQi17Y7L9QoCgoAgIAgIAlVAQIY1VQEk2UQQEAQEAUFAEKhtCAhBqG13XK5XEBAEBAFBQBCoAgJSYqgCSLKJICAICAKCgCBQ2xAQH4TadsflegUBQUAQEAQEgSogIAShCiDJJoKAICAICAKCQG1DQAhCbbvjcr2CgCAgCAgCgkAVEBCjpCqAJJsIAoKAICAICAK1DQEhCLXtjsv1CgKCgCAgCAgCVUBAuhiqAJJsIggIAoKAICAI1DYERINQ2+64XK8gIAgIAoKAIFAFBLT8rr18w4pWYVPZRBAQBAQBQUAQEARqCwJap/yevhVOry3XK9cpCAgCgoAgIAgIAlVAQDQIVQBJNhEEBAFBQBAQBGobAqJBqG13XK5XEBAEBAFBQBCoAgKSQagCSLKJICAICAKCgCBQ2xAQglDb7rhcryAgCAgCgoAgUAUEhCBUASTZRBAQBAQBQUAQqG0ICEGobXdcrlcQEAQEAUFAEKgCAiJSrAJIsokgIAgIAoKAIFDbEBCCUNvuuFyvICAICAKCgCBQBQSEIFQBJNlEEBAEBAFBQBCobQgIQahtd1yuVxAQBAQBQUAQqAICIlKsAkiyiSAgCAgCgoAgUNsQkFkMte2Oy/UKAoKAICAICAJVQECmOVYBJNlEEBAEBAFBQBCobQhonbv28q1QFL5f2y5drlcQEAQEAUFAEBAEdoWAaBDk2RAEBAFB4P+3W4dGAMAgAMRMUZ2lpvvvBg4DI2SF3IsnQIDAEDAIoiBAgAABAgSWQXg/T1w0BAgQIECAAIEWKHzcJXvJGQ1CAAAAAElFTkSuQmCC;clipPath=inset(2.11% 16% 5.63% 17.67%);" parent="1" vertex="1">
                    <mxGeometry x="381.04" y="1010" width="329.93" height="217.19" as="geometry"/>
                </mxCell>
                <mxCell id="117" value="" style="endArrow=classic;html=1;strokeWidth=5;strokeColor=#696969;startArrow=classic;exitX=0;exitY=0.5;exitDx=0;exitDy=0;entryX=1;entryY=0.25;entryDx=0;entryDy=0;startFill=1;" parent="1" source="99" target="115" edge="1">
                    <mxGeometry width="50" height="50" relative="1" as="geometry">
                        <mxPoint x="1264.5" y="916.7675032594525" as="sourcePoint"/>
                        <mxPoint x="1162.6" y="917" as="targetPoint"/>
                    </mxGeometry>
                </mxCell>
                <mxCell id="118" value="" style="endArrow=classic;html=1;strokeWidth=5;strokeColor=#696969;startArrow=classic;exitX=0;exitY=0.5;exitDx=0;exitDy=0;startFill=1;" parent="1" target="115" edge="1">
                    <mxGeometry width="50" height="50" relative="1" as="geometry">
                        <mxPoint x="929.5700000000002" y="1242.995" as="sourcePoint"/>
                        <mxPoint x="720.9699999999998" y="1074.2975000000001" as="targetPoint"/>
                    </mxGeometry>
                </mxCell>
                <mxCell id="122" value="DB関連" style="text;html=1;strokeColor=none;fillColor=none;align=center;verticalAlign=middle;whiteSpace=wrap;rounded=0;fontColor=#FF8000;fontFamily=Comic Sans MS;fontStyle=1;fontSize=17;" parent="1" vertex="1">
                    <mxGeometry x="791.01" y="973" width="180" height="30" as="geometry"/>
                </mxCell>
                <mxCell id="123" value="GoogleMap連携" style="text;html=1;strokeColor=none;fillColor=none;align=center;verticalAlign=middle;whiteSpace=wrap;rounded=0;fontColor=#FF8000;fontFamily=Comic Sans MS;fontStyle=1;fontSize=17;" parent="1" vertex="1">
                    <mxGeometry x="799.01" y="1172" width="180" height="30" as="geometry"/>
                </mxCell>
                <mxCell id="124" value="" style="endArrow=classic;html=1;strokeWidth=5;strokeColor=#696969;startArrow=classic;exitX=1;exitY=0.5;exitDx=0;exitDy=0;startFill=1;entryX=0;entryY=0.5;entryDx=0;entryDy=0;" parent="1" target="115" edge="1">
                    <mxGeometry width="50" height="50" relative="1" as="geometry">
                        <mxPoint x="178" y="1118" as="sourcePoint"/>
                        <mxPoint x="720.9699999999998" y="1182.0973946397612" as="targetPoint"/>
                    </mxGeometry>
                </mxCell>
                <mxCell id="125" value="" style="endArrow=none;dashed=1;html=1;fontSize=17;fontColor=#FF8000;strokeWidth=7;strokeColor=#000000;" parent="1" edge="1">
                    <mxGeometry width="50" height="50" relative="1" as="geometry">
                        <mxPoint x="800" y="1430" as="sourcePoint"/>
                        <mxPoint x="800" y="360" as="targetPoint"/>
                    </mxGeometry>
                </mxCell>
                <mxCell id="126" value="Front Side" style="text;html=1;align=center;verticalAlign=middle;whiteSpace=wrap;rounded=0;fontFamily=Comic Sans MS;fontStyle=1;fontSize=31;fillColor=default;" parent="1" vertex="1">
                    <mxGeometry x="11" y="389" width="750" height="40" as="geometry"/>
                </mxCell>
                <mxCell id="127" value="Back Side" style="text;html=1;align=center;verticalAlign=middle;whiteSpace=wrap;rounded=0;fontFamily=Comic Sans MS;fontStyle=1;fontSize=31;fillColor=default;" parent="1" vertex="1">
                    <mxGeometry x="840" y="389" width="750" height="40" as="geometry"/>
                </mxCell>
                <mxCell id="128" value="" style="image;html=1;image=img/lib/clip_art/computers/Netbook_128x128.png" vertex="1" parent="1">
                    <mxGeometry x="26" y="1053" width="160" height="160" as="geometry"/>
                </mxCell>
                <mxCell id="129" value="" style="shape=image;verticalLabelPosition=bottom;labelBackgroundColor=default;verticalAlign=top;aspect=fixed;imageAspect=0;image=data:image/png,iVBORw0KGgoAAAANSUhEUgAAAlgAAAJYCAYAAAC+ZpjcAAAACXBIWXMAAA7EAAAOxAGVKw4bAAAgAElEQVR4nOy9eXAk133n+XmFwtFoXI1Go9Hog93og81Wk6IoiiMRbQat4GhoBUdD3aIkmqZp2aNVeD0KLxQ7sbuxseGd2DAxWoVXMaGwNTLNlXWZtszgcLkKjYKrUDS0Ms2VaYri2fd9gGhcjaNQqN/+kVlAAQQaKKCq8mXl96OA+ElUNeplVma+X71v1kuHEEJERP8AaaAJaAMOGOxyxh7gsDl2OOgAOjAacKSAHJDBGMVxBbgAnAJ+bXDKwSmMC+YYdZDp641oxYQQicdF3QAhRLLoHwCgAegB7jLjvc5xMFzuBBqB1Kr/oAGODDAIXMB4Fcc/YLyM4yVgXIWWEKLSqMASQlSMcMTqNuDjwL3AAYIRrIYSvkwWGAWuAD8FngJe6OtlvISvIYQQN0QFlhCi7PQP0IhxGMdDwG8D7RV8+XGM53H8GfBLYLSvl1wFX18IkUBUYAkhykb/AClgh8FnnfFx4DYcdZE0JogOn8V4CsdLfb1kI2mHECIRqMASQpSF/gFaCGLAx8L/NlHMtVUlxgycYwJ4HePPcDwLDOn6LCFEOVCBJYQoGf1HAWgxx+0YX3aODwItkL8WPSBqN5hyxlHg2+Go1nDfEcWGQojSoQJLCFES+gdIYxwGPonjI8Ah8iNWUVdUS7hBzgVTPfwQ4wc4XuzrZWINqy6EEO9ABZYQYl2E0y60Y9wPfBnHQTOaXFzOLsaUOY654NuG/7mvlwtRN0kIEX/icgoUQnhGeAF7C/BhMx5xcA+OBk8GqNbqL2A8afCcc5zRtw2FEGtFBZYQomj6B2gEbsf4JPApHF1AyocKaV0ezBQ/ZPBzB9/A+IXB8FeO3GhrCCHEO0lH3QAhRLzoH6DT4PcwPu0cByicJLTwI1scPbhmrMPBh4FDOJ528G3gZYQQogg0giWEWJHHB0g52AHcDzyKcVd4b0A/Rp7K66eAbxg84+BEXy8ZhBBiBVRgCSGWJbyAvcWM9wN/QHCdVbsLvx0Yzi1FAnyU4Pqs7+F4BhjU/FlCiBuhAksIsSz9AxzCeATHgwQ3Y07yZQU5YAj4IfAk8KJGs4QQy6ECSwixgP4B6szY5RwfMeNLzrGbariAvXSew3EF4xkcXweOAVMa0RJCFJLkT6NCiEX0D9AOPOCCmzLf7Vw4C7s/UZ0PngK6gN8FDoeTlD5HUGgJIQSgESwhBNB/lDSOO4CHMT6Fo4MI7xsYI3LAsBm/cMFo1s80G7wQAlRgCZFYwgvYG4AeM77gHJ8AujFSHsRwsXMzhsKRrCcc/AKYUGwoRHJRgSVEQnl8gN0umHbhIeBuIO1RDBdXzxJM6/AE8AzG631HyC7e9kKI6kcFlhAJo3+ABuBujD+y4DqrdhQHlppRjJdwfAf4bl8v41E3SAhRWVRgCZEA+o8CjkaD92M87OABoCPqWC0BnjHjJ87xTTN+7uBKn267I0QiUIElRJXz+FHSzrHPjI84eAxHjxlpj2K16nbI4TgHPGfwLQev9PUyhRCiqlGBJUQVE8aBnwonC70DaIu6TQlmCnglnA3++329XIi6QUKI8qECS4gqpH+ADuD9wGMENy6ui7ZFooAs8ArQD/wUuNTXSy7SFgkhSo4KLCGqiP4B6oBDBo+5oLDaPTftgoVPkvvhjksYP8HxA+B5zZ8lRHWhAkuIKqF/gC6Djzl4GLgNaLSwU3cuuB5I7p1nMM4B38XxJHBCo1lCVAcqsISIMf0DpIBO4B6gD7gd3QIrjuQIbrXzbeD/NOPSV47oRtJCxBkVWELElPAC9nuBTwIfwtgReewlX6+P4/gJzMWGVxBCxBIVWELEjHDUajfwGYxHcewC6vLTA3gQe8nX4c6RBS6Z8bxzfBV4va9Xo1lCxA0VWELEhPCGzJ3AZ4FHgENoBvZq5wzw/XBqh1dVaAkRH1RgCRED+gdoJ4gDHzL4kIMWTyItefl9AngZ+JYZP3KOC7oQXgj/UYElhMf0D5AGDgBfBj4EdOdnYfcl0pKX3wkugh8EjgLfMvjJVzSaJYTXqMASwkP6B0gbHHTGJ3F8HuiJuk3CG0aB7wLfAV7SjaSF8BMVWEJ4RMG0C/cBfwDcjtEE+BJXyX1wRwZ4FXgG4wngXN8RsgghvEEFlhCeEMaB9wKPAh8kKLRSPkRUci89hzGB4+fAE8CP+noZRgjhBSqwhIiYx4/S6ByHCWZg/yzQHnGTRPwYB45ifNUcLzoY1YXwQkSLCiwhIiK8zqrbBUXVJ4HDGHWRx0/yeDpgxjHgGRfc3/AlTesgRHSowBIiAvoHaAI+aMYXnOMeoMksmNPKk/hJHkMPv3E4gXEMx9eBZ4Arfb0IISqMCiwhKkR4AXsTxm04/pjgOquWiJslqpeMGS84xxPAM2YMfeWIYkMhKoUKLCEqQP8A6bCw+qTBg844gCPlRbQkr14P5s8aBv4Wx1PALzStgxCVQQWWEGWkfwCAdjPud/CHOA5bOO1C1HGSPDnugmkdjhFEht8Azig2FKK8qMASogyEcWCLGfc7x2PAEaAh4mYJAfBLjCfN8ayDU/q2oRDlQQWWECWmf4BGgzsdfBz4FNBJeAG7F7GRPNke/HeYYP6sbwA/xxjqO4IQooSko26AENXE4wN0Ar/vgmkXDpjR4Jw/fatcThAZtgH3AweB5wguhP8lQoiSoREsIdZJ/wApjB047gceA+6EcMRKiDhgnAP+HHgax7G+XqaibpIQcUcFlhBrJLyAvcXg/Q6+ANyL0QF4MEwhl6/OzYEzMMeEgxeAH2A8jeOSLoQXYu3oU7YQa+cg8D84+DrGg0CHMd+HyeW+Oy78lB38txG4B/gTHH8K3NM/oC9mCLFWNIIlRBE8PkCdg93AA8AfYexAH1RETDG37HVaOecYwniWYEb414EJjWgJsXpUYAmxCvoHwKDdBSNVH8dxBGjB5jspuTyWfmNyGC/ieMqMZ53jdRVZQqwOFVhCrED/UdIGdzjHo8DHgHbCb+Aa8weRXB5HX8UTc8Ao8JLBVx0839fLBEKIG6ICS4gl6B+AcIqFfcAXMT5mjk5nigNF9bBsRLicG6PO8WPgCeAoMKoRLSGWRgWWEIsIvx24y4yPAJ90jrsx0pFHOXJ5ObxILLg+64TBd53x9zhe7esls4Y/JURVowJLiAIKZmH/98CdZrQ7R8qHKEcuL4ev9Q8YjDrHK8C3ge/29TKKEGIOFVgi8YQjVo3A3cDDBg84oz3SRglRAYqOCJf2LMbzzvEt4Geg+bOEABVYIuE8PkDawT7gQeARoMegzpv4Ri4vt5cAg5wzLuD4iQX3N3zZwZQKLZFkVGCJxNI/QBPBtwIfxbgdR5sPkY1cXkkv8R/LAK8SzAb/N31HOIEQCUUFlkgUYRzYAdxtxiPO8QBGXbStEiIaShQRLuVZg9cdfA3jJzgu9PWSLdd6COEjKrBEYghv+3EQ+IIZ9zvHLiDtRUwjl0fl5cS4AvwMx/eAH/f1Ml7ulxTCF8p+fAnhA/0DdAOfAB4GDsP8PdZ8iGnk8qi8Ai+SBS5h/DWO7wCvazRLJAEVWKJq6T9KCkcnxr04/tiM250LZ2A3cI6gExAioZQxIlzKcw5OAH8DfBO4AGR0IbyoVtJRN0CIcvD4AI0Y92B8Gsd9wA5X8HFizsOzf+QxjVwelbPwk3YZPQXsw/h3Brc7+B6O5wkKLSGqDrfyU4SID/0DpIAe4DNmPOocO4A6C+MKBxQ64EVMI5dH5RG9eA64AjwPfA14WbPBi2pDBZaIPf1HgSD66wQ+b8bDznEQSM9FgcCSbpE0WQgvqHBEuJxfcPC3wHeAl1BsKKoEFVgi9vQfpQPHPcBDwP1AU1F/wIeYRi6Pyj3AjCkcr2N8I7yZ9DldCC/iji/HlxBFE8aBh4A/xLgfR7cZacKOY7lYUBGhXL7o5O9LQ4xBHD83eNLBs4oNRZxRgSViR/8AdQTzWX0a+BSwb8UocDm3ijZdCK/wJCJcykcd/BB4EuOXfUd0I2kRP1RgidjQP0DKjC7gg87xReB2g8Z178Q+xDRyeVTuKQZZZxwzx9MOngBOKDYUccLn40uIOcI48IPAo2bcC3ThSDlYVRSoiFAuX9q9acjyDZwAfoHxJI5n+noZRogYoAJLeM3jR2lyjsPAQxifN2hfUxS4nFul1kQI//A4IlzKJwxecNAPvAAM9fWSK2Z9hagkKrCEl4QjVruAzwIfJ7iYveGG/2it+BDTyOVReYwIPxidAp41+IGDF3QhvPCVuB1fIgH0H6XJ4D7neNTgXqDFwbqiQEWEcvnS7k1DivMp4JgF0zo8bcalrxzRaJbwCxVYwgvCEasm4HYz/pjgQvYmoDRR4HJu5V4zIfwlZhHhUp5xweSk3wSeBQZ1IbzwBRVYInLC4uoO4OMGD7pgCobK4UNMI5dH5TEn/LA0hPEsju8BP+/r1bQOInqq4fgSMaV/AIB2jAfM8SUXXGfVVI4oUBGhXL60e9OQdbo5Mg5OAc8AXyeYDV6xoYgMFVii4oQjVm0Y9wOPmeNuBw1ljQKXcyvjigrhOVUQES7lOeB1ZzyB4xmME31HFBuKyqMCS1SU/qM0GtzhHA8BDwJdQCrSRpUjdpHL4+JViAX/N+ocLwB/bsZPnWNQN5EWlaRajy/hGf0DgNFp8G+d4+PAATMaCE/ylYwFFRHK5YtO/j40pAxukHNwDvgR8C2C2+5oNEtUBBVYoqz0HyVljl2OMA6EOzBSFY8Cl3Mrx1oLEQ+qNCJczgcd/IUZTznHm329TCBEGVGBJcpC/1HA0QLcDfwBcMSMducijgOXwog+ppHLo/JkMYHxS+DvcHwfuKIL4UW5SODxJSpB/1EOA4/geBDYbZB2EFkUqIhQLl/avWlIpdzIAaMGP3aObwJH+3qZQogSowJLlIz+AeowduN40Iwv4tg9d24zoo0Cl3Mr5RYQIl4kLCJcyocwnsPxnzBewTGuC+FFqVCBJdZNwbQLH8HxaYJYsCXiZq0eI/qYRi6PykUOeMmMvwOedvB6n267I0qAji+xLvoHqAPuBB4FPmJGh3OkfIj/FBHK5Su7Nw2J1nPAOPAy8FXgp329DCPEOlCBJYomnIG9AThg8EWMB4DufGHlTfy3GrdSbBEh4okiwiV93MFPMJ4AfkoQG2pESxSNCixRFGFx1QN8GHgI404cdZE2ar0Y0cc0cnlULt6BGTnnOAd8F/g74BVdCC+KRceXWDWPD9AI3O3gy8D7gTYzUoQnah8iP0WEcnlx7k1D/PQJ4FWD7zjjr/uOMIgQq0QFlrgh4YhVI0FB9YgZDzhHe+TRXqnc1rN1hIg3ighX7VkHR4FvAc8bXPqKYkOxAiqwxLL0D5DGOIDjI8BjGLtxpKNuV8kxoo9p5PKoXKyWHHAF+Anw58BLfb2MR9sk4TM6vsSS9A/QBHwCeBi404wWwhOyD9GeIkK5vDTuTUPi41kcrwM/AP6mr5c3EWIJVGCJOcI4sAPj/cAXcNxvRp03cV453Na0qYSoChQRrsuzBsccfB14DjjX16sbSYt5VGAJAPoHaAAOAV/AuB/HDqjCOHApjOhjGrk8KhfrZQj4GcGI1nN9vYxG3B7hCTq+BP1H6TbHJ4DPAbc7gmkXfIjwFBHK5eV1bxoSb89iXMHxN8CTBNM6aDQr4biVnyKqkccHSGF0Afc4Rx9wmILCypsIr9xuxW45IaoHRYQl95yDcxjfJ7iR9DlgSvc3TCYqsBLI4wM0OrjHjM85uA9HV9RtihQj+phGLo/KRTnIGPzMwQ8MfvyVXs5E3SBReXR8JYjwpsy7gc8Cj2LswFHnQ1SniFAuj8a9aUiVuTlyDgYJrs/6KsYv+46QQSQGt/JTRNwJb8jcBXzG4BEHB4C0LyeiyF2IBOPDIZgAv4LxNPBtHC+i2DARqIupcvoH6AA+iPFp4H6DRhw4Cw7+xHs5NroQQryTLMbrwDdxPAec0oXw1Y36lyrl8QFSDg6a8cfOcR/QDaQ9+CTnnQshRAUZBF4AngCe6etVbFitqI+pMsI48CDwaYzP49jlRRXjswuRYHw4BBPqU8APDZ5w8GJfL8OIqkJdTJUQXsDebcZ9LpiF/XaDRi9iOJ+95O+EEEKsEiMLnMDxLMGI1uuKDasH9S9VQP8AaeBejC/gOILRZY6UJ5/SvHchhIgUYwJ40RzfdvB0Xy+DUTdJrB/1MTEmvCHzYeBzBr/twhsyA35ULnFxIRKMD4egfM4zDn5h8DUHR4Ghvl5yiFiiLiaG9A+QMtjl4PPAR4HDGHWRx21x9FK+MUIIUQLMOOPgRzh+ABzVhfDxRP1LzOgfoMXgPgePAUeAJiAF3nwCi50LIYSHTBmccvAt4PvABY1mxQv1MTEgvIC9BbgD+CMzPugcTYAfFUrcXYgE48MhKL+hZ8142cGTBDeTHtSF8PFAXYzn9B8ljeN24JMGDzjjUOSxWjV5yd4pIYQoK0PAj4DvYRztO6JpHXxH/Yun9A+AQbuDBwhGrQ7kR608+ERVVS6EEDEhA1wAngX+DDih2NBf1Md4RhgHthEUVg8TXGfV4EUlUq0uRILx4RCUr8nfBL6N8UMcbyo29A91MR7RP0ATxh04HgIeBDoNUl5EadXqpXnrhBAiCsaBF4E/B54nuD5LI1qeoP7FE/oH6AZ+D+OT5tjnoMGDT0iJcCGEiCsGOQeXMH6M4wmCaR1UZHmA+pgIKZjP6sNmPOIcd3lRcSTNhUgwPhyC8tI4MOjgL4EfENx2ZwIRGepiIqB/AAius7oL+BJwN9COkYo8Mkuar+udFEII75gCXgaeQvNnRYr6lwh4/Ci3O8fDwEeA3QZpHz79JNWFEKLKyBFcn/VjjCdw/FSjWZVHfUyF6B+gDugBPmLwRWA3Bs7hR5WRZBciwfhwCMrL6Mawc/wY+BrwKsZ43xGNaFUCdTFlpv8o4OggmHbhc8BdZrQ4Fx4EUUVj8sDX9e4KIUQsyBEUVz/E8fcGL39FsWHZUf9SRsJRqzuBR8x40AWFVmrx87z4lJNgF0KIJGAwjvGyc3zdjB9/5QhDUbepmlEfU2LCC9gbDXpcEAU+aEYXkHIOzILn5V0RoQcuRILx4RCUV9wngJ8ZfNMF82eN6kL40qMupsT0D7AP+DDwaTPuco60AYTF1GL3IiZLsq/jvRZCiNhi5HBcIvim4d8BL+lC+NKi/qVE9A/QgHGPwR/heL8LpmF4Rxy4FB58mkm0CyFEgpnAeB14Csd/7utlMOoGVQvqY9ZBeAF7I3C3wSMumDC0fakocDlXROiBC5FgfDgE5V541uBFB98EfgKcU2y4PtTFrJH+AdLAQeABg0cd9BikCYsmA1bjXsRkSfY17wFCCFF15MwYco7ngT8PC67Rvt6omxVP0lE3II70D9AAfNbgYYzbnaMNws467LHlMXEhhBB5UuG33T8G3AY8bcYTwJvRNiueqI8pgv4BOoH3A39gxn3OUbfaKHA5V0TogQuRYHw4BOV+OkbOHGdcMEnpjzBO9R0hg1gV6mJWQThidRh4DPgwxg7LT7sAq4oCFRF66mvZIYQQIlkMA0cJbiL9XF+v5s9aDepfVqB/gG7gE2Z8DsdtDhpK/Ro+fFJJsgshhFiRLDCI8bc4ngBe7uslG3WjfEZ9zBI8PkDKQZcZ9+Loc3DYLLheba1R4HKuiNADFyLB+HAIymPlOYMLDv6W4BuHJ4ApXQj/TtTFLCKMA+/FeAi4z6C7FFHgcu5FTJZkL3oPEUIIAWSAowZPYTznHGdUZC1E/UtI/wApgqkWPoPxCLDLQV0ltpAHn0gS7UIIIdZEDhgEXsDox/FCXy9TUTfKFxLfx/QPkMboBj6D4xHgoNnS9w0shysi9MCFSDA+HILyqvAh4GmDJx28CEwkfUQr0V1M/wDtGPcBnza4zzlaDCAsfCrhXsRkSfbidhkhhBDLkwGOGTwJPO3gRJIvhE9k/9I/QJ3BAQd/DNwHdBHhpKsefPJItAshhCgpw8AvCQqtH/b1Mh5xeyIhUX1M/wB1wCGCEavPYuyqVBS4nCsi9MCFSDA+HILyqvUM8KzBEw5+DgwlKTZMRBfTP0DKjC7n+BDwBxi3maORsMAxICr3IiZLshezIwkhhCgKg6yDUwQzwX/LHK9+pTcZs8FXff/SP0Da4F5nPAZ8kOA+S6mo21WIR582EulCCCHKzhTGS7jg+qy+Xi5F3aByU7V9TP8ATQQThH4O+LxztEUZBS7nigg9cCESjA+HoDxRnnHwEsH9DZ/HGOw7Qo4qpOq6mP6jpHHsAD5vxkcdHDaoizoKXM69iMmS7KvdsYQQQpQO4xyOHxPc3/BoXy8TUTep1FRV/9I/QIvBh4DHHBwBGvEsDlwKTz5VJNaFEEJEgJEBzhh8yzn+BuNUNY1mxb6P6R8AjCYcdxJMu3CPGS1A5PHfalwRoQcuRILx4RCUJ96zBq86+A7w1wZXnJHtO0KsiWzupxLSheOzwGMYB3GkyBctQBx8blFeeUeIZOPk8ug97eA2oMeM9znHUwbPE9yGJ7bEun/pH6AT+F+ATwDtxCAOXAoPPj0k2oUQQnhDFriE8SMc/6Gvl1NRN2itxLKP6R8gDdwB/HszPuIcKV8iv2JdEaEHLkSC8eEQlMuX8V8Af4rxk74j8ZsNPpYjPgQXsP8J8GHy61DYWcbJLdiZDHkkLkTC8eVUKJcv4XcB/wH4bP8ADcQMt/JT/KJ/gEPAtzDuwFEXdXtKgQefEhLtQgghvCUHXAK+DDzT18tUxO1ZNbHpY/qPkjZ4v4P/DcfcdwvyMZsvkV+xrojQAxciwfhwCMrlq/AzZvyJc3w3LnNmxScidBxyjj4cd+WLlPx/w8fj6cbS0ZW8Mi5EwvHlVCiXr+A7nOOPgHuJCW7lp0RPOIHonzn4FMHkofOjP1WAB58MEu1CCCFiQRbj5zge6uvlQtSNWQmv+5j+AQBagP/W4H92S8zbpYhQvm4XIsH4cAjK5at1gmuy/g8Hf4Ix5PNkpL5HhHVm3Ac8igXFldl8kaKIUL5uFyLh+HIqlMtX4w5SDj4GfBDn92TpXhdYBjuALwC7Ckd8FjuEGz6Gnt9j5BG5EEKIeGF0A58DuqJuyo3wtsDqHyDt4Es47iWMBguvucp74WhWHB3AFQylyCvvQiQZk8vj5o60wX3Ap/qP+lvHeNsw4DDwCQcNKxUowMLhiDi5RRSNyRccuEIkFV9OhXJ5kd4IfNwcHXiKlwVW/1GagI8DO5aLBRURykviQggh4kjKjNudcVf4hTjv8K7AevwoKRy3YXwCSC0VCxa6DzGfIsJ4uxBJxuTymLpzNJrjc+DnKJZ3BZYLbn9zj7lg9ApWLlCCfxhTt4iiMfmCg1WIpOLLqVAuX6PfDuzzcRTLx684dgC/4aARx4IJRZdzKIh+5PJiXAghRGxxRjeOO4AXgWzU7SnEuxEs4LAFFWkKWDIWLHQfYj5FhPF2IZKMyeUxdnM0YXwAaMMz/CuwjDsdtBVToAALhyPi5FbmCEx+Yxci4fhyKpTL1+gpcxwE2vEMryLC/uAC91uBhpViQUWE8pK4EEKI2OIAjC5zdAFvRtycBXg1gmXQiXGAgnYpIpQrIhSifJhcHnMHmpxxEM/wqsByjjbCScMUEcor4kIkHF9OhXL5Wh1Hg8F2PMOriBBoIbz+ShGhvCIuhBAi7tQ55999Cb0awQIagMaVYsFC9yHmU0QYbxciyZhcHn9PGTThGX4VWEbaLGiTIkJ5RVyIhOPLqVAuX487/xI5zxrkwprDUEQor4wLIYSoBvwaMMLDBgErxoKF7kPMp4gw3i5EkjG5vIrcJ/wqsNZYoAALhyPi5FaG2Eu+ehci4fhyKpTL1+UentAVEcqT7UIIIeKPhyd0v0awQhQRyhURClEZTC6vIvcJvwqsNRYowMLqNU5uZYi95Kt3IRKOL6dCuXxd7uEJXRGhPNkuhBAi/nh4QvdrBCtEEaFcEaEQlcHk8ipyn/CrwFpjgQIsrF7j5FaG2Eu+ehci4fhyKpTL1+UentAVEcqT7UIIIeKPhyd0v0awQhQRyhURClEZTC6vIvcJvwqsNRYowMLqNU5uZYi95Kt3IRKOL6dCuXxd7uEJXRGhPNkuhBAi/nh4QvdrBCtEEaFcEaEQlcHk8ipyn/CrwFpjgQIsrF7j5FaG2Eu+ehci4fhyKpTL1+UentAVEcqT7UIIIeKPhyd0v0awQhQRyhURClEZTC6vIvcJvwqsNRYowMLqNU5uZYi95Kt3IRKOL6dCuXxd7uEJXRGhPNkuhBAi/nh4QvdrBCtEEaFcEaEQlcHk8ipyn/CrwFpjgQIsrF7j5FaG2Eu+ehci4fhyKpTL1+UentAVEcqT7UIIIeKPhyd0v0awQhQRyhURClEZTC6vIvcJvwqsNRYowMLqNU5uZYi95Kt3IRKOL6dCuXxd7uEJXRGhPNkuhBAi/nh4QvdrBCtEEaFcEaEQlcHk8ipyn/CrwFpjgQIsrF7j5FaG2Eu+ehci4fhyKpTL1+UentAVEcqT7UIIIeKPhyd070awoMjq1Qr+G0O3gnWRV97zy3J5Ul2IasDHfdqvAitPURUWQaHi4unFrqq8tO5DkSeXR+VAcNmFXB5zL9ynfcGviDBPuOGcW9kBCAsVi6EDRUei8tJ54UEplyfNYf6YkMurwX3CzxEsVr9RHeEJw+LpcwUj8ig8vyyXJ9WFqAZ83Kf9LLBckW54E/kV68Wuqry0bgXLcnnSHPAm4pHL1+OF+7QvKCKM2IHIY7Ike+FBKZcnzWH+mJDLq8F9ws8RLFa/UR3hCcPi6XMFI/IoPL8slyfVhagGfNyn/SywXJFueBP5FevFrqq8tG4Fy3J5NTtGEKvYomPA5jsnuTyuXrhP+4IiwogdiDwmS7IXHpRyebV6bibNxIXtTF3tJFU3zcbt56nfNIRLmRexjlxeKvcJP0UwkR0AACAASURBVAssitiocyVswQklRm5ufp3mikd5xXxuWS6vYh872cPb/3Qns1MNuFSOkTduYePOM7QeeIO6lhFczay3nZQQq8FWfkrFUUQYsRe7qvLSetQdn1xebjeDzLV2ZjP1uFTw2+xUI6PHDnD1hQ8w8uZBZkZb5iKXfEflS/Qjl6/Gffx84OcIVrjh8iNUN3IAwkLFYuhA5DFZkr3woJTLq9LNkcvWvvMxSzF1dQuZ4Vaun91J6y2v0th1gVRdNnhOwT+Qy+PiPuFngUURG3WuhC08ocTHFRFG63PLcnmVOrDg034hDkdupp7JK9uYensLG7ZeomXvMRq3nSdVl/G24xJiMUvt31GjiDBiL3ZV5aV1XzpBubycnscV/M4RFF5gmEEuG1wIf/XF9/H2S+9h8nIXuWzwGdyXGEguX859/Czg5whWuOEKo8DlHICwULEYOhB5TJZkLzwo5fJq9eUeC44HVzBS5chObGT02AEmLnXTtOs0rQfeIN14fdG/kcv9dJ/ws8CiiI06V8IWnEBi5IoIo/W5Zbm8Sp0lPM9S/ZJzYLk0M6NtXHuljetnd9Hcc4ymnWepbR4NL5QXwi983CsVEUbsxa6qvLTuSycol5fT87iC3zlYEBEu59MjbQy98m6u/MMHGDu9h+zkhvBxvImH5PKlPixEjZ8jWOGGK4wCl3MAwkLFYuhA5DFZkr3woJTLq9WXeyw4HhZGhO90Ry5Tx+TlLjKjrWzovETLvmM0bruAczb/NwteQC6Pyn3CzwKLIjbqXAlbcAKJkSsijNbnluXyKnWW8Dyr7ZfyhdbsZCPjp3uYuLCDpptO0rznOPXtQ6RqZ7zt5EQyWGr/jhpFhBF7sasqL6370gnK5eX0PK7gdw5WFREu5bOZOkaP7+fKCx/g2q/eTWaklVwuNdfJ+RIbyZPjPtb3fo5ghRsuP0J1IwcgLFQshg5EHpMl2QsPSrm8Wn25x/IjU/OjT0W4pZgZaWN4vJnJq1to7jlB087TpDdMeREVyZPpPuFngUURG3WuhC04gcTIFRFG63PLcnmVOkt4nvX3Sw6bTTN1tYupt7cw+tYB2m75NY1dF6lpmNI3DkXF8HFPU0QYsRe7qvLSui+doFxeTs/jCn7nYM0R4ZKeSzH1dgeD/99dXH3xLiYudmM5502EJK9uX/+HhdLjZ4E1d/Cu7AZzhUocHQrWSV5x96HIk8vL7cs9VhgRlspnpxoYP7Obqy/exeSVre94Pbm8HO4jfhZYLNxgN3JHuJEtnm4F6ySvvOeX5fIk+OKf8uDAUsyMtjH0z7czM9paxtcSIsDHfczPAssV6YY3kV+xXuyqykvrVrAsl1er53EFv3NQ2ohwCc+MbGJqsANywav6EifJq88X7+s+4OdF7uGGc25lByAsVCyGDuHO4eRReOFBKZdXqy/3WGG0l3+klJ6bqWVmrAWzFI7ZVScTcvla3Sf8HMFi9RvVEZ4sLJ4+VzAij8Lzy3J5EnzxT7kxc+SyNRV4JZF0KrE/F4ufBZYr0g1vIr9ivdhVlZfWrWBZLq9Wz+MKfueg7BHh/CuFbbL5jlAuV0QYBeGGc25lByAsVCyGDkQekyXZCw9KubxafbnHguOhfBHhYnyIkOTV7T7h5wgWq9+ojvBkYfH0uYIReRSeX5bLk+CLfypD5V5JJBcf9zI/CyxXpBveRH7FerGrKi+tW8GyXF6tnscV/M6BIkJ51fjifd0HFBFG7EDkMVmSvfCglMur1Zd7LDgeFBHKq8d9ws8RLFa/UR3hycLi6XMFI/IoPL8slyfBF/9Uhsq9kkguPu5lfhZYrkg3vIn8ivViV1VeWreCZbm8Wj2PK/idA0WE8qrxxfu6DygijNiByGOyJHvhQSmXV6sv91hwPCgilFeP+4SfI1isfqM6wpOFxdPnCkbkUXh+WS5Pgi/+qQyVeyWRXHzcy/wssFyRbngT+RXrxa6qvLRuBctyebV6HlfwOweKCOVV44v3dR9QRBixA5HHZEn2woNSLq9WX+6x4HhQRCivHvcJP0ewWP1GdYQnC4unzxWMyKPw/LJcngRf/FMZKvdKIrn4uJf5WWC5It3wJvIr1otdVXlp3QqW5fJq9Tyu4HcOFBHKq8YX7+s+oIgwYgcij8mS7IUHpVxerb7cY8HxoIhQXj3uE36OYLH6jeoITxYWT58rGJFH4flluTwJvvinMlTulURy8XEv87PAckW64U3kV6wXu6ry0roVLMvl1ep5XMHvHCgilFeNL97XfUARYcQORB6TJdkLD0q5vFp9uceC40ERobx63Cf8HMFi9RvVEZ4sLJ4+VzAij8Lzy3J5EnzxT2Wo3CuJ5OLjXuZngeWKdMObyK9YL3ZV5aV1K1iWy6vV87iC3zlQRCivGl+8r/uAIsKIHYg8JkuyFx6Ucnm1+nKPBceDIkJ59bhP+DmCxeo3qiM8WVg8fa5gRB6F55fl8iT44p/KULlXEsnFx73MzwLLFemGN5FfsV7sqspL61awLJdXq+dxBb9zoIhQXjW+eF/3AUWEETsQeUyWZC88KOXyavXlHguOB0WE8upxn/BzBIvVb1RHeLKwePpcwYg8Cs8vy+VJ8MU/laFyrySSi497mZ8FlivSDW8iv2K92FWVl9atYFkur1bP4wp+50ARobxqfPG+7gOKCCN2IPKYLMleeFDK5dXqyz0WHA+KCOXV4z7h5wgWq9+ojvBkYfH0uYIReRSeX5bLk+CLfypD5V5JJBcf9zI/CyxXpBveRH7FerGrKi+tW8GyXF6tnscV/M6BIkJ51fjifd0HFBFG7EDkMVmSvfCglMur1Zd7LDgeFBHKq8d9ws8RLFa/UR3hycLi6XMFI/IoPL8slyfBF/9Uhsq9kkguPu5lfhZYrkg3vIn8ivViV1VeWreCZbm8Wj2PK/idA0WE8qrxxfu6DygijNiByGOyJHvhQSmXV6sv91hwPCgilFeP+4SfI1isfqM6wpOFxdPnCkbkUXh+WS5Pgi/+qQyVeyWRXHzcy/wssFyRbngT+RXrxa6qvLRuBctyebV6HlfwOweKCOVV44v3dR9QRBixA5HHZEn2woNSLq9WX+6x4HhQRCivHvcJP0ewWP1GdYQnC4unzxWMyKPw/LJcngRf/FMZKvdKIrn4uJf5WWC5It3wJvIr1otdVXlp3QqW5fJq9Tyu4HcOFBHKq8YX7+s+oIgwYgcij8mS7IUHpVxerb7cY8HxoIhQXj3uE36OYLH6jeoITxYWT58rGJFH4flluTwJvvinMlTulURy8XEv87PAckW64U3kV6wXu6pz/zznsJk0NpsKCoY1/p2ke+G2890x5iMYi7498vh4HlfwOweKCOVV44v3dR9QRBixA0VFWpZzZMZamby8lcy1TdQ0TLFh6yUatlzB1eTW9DeT7IUHpc+eoobGuq1sqN0CwOTMVSZmLgOzkbdN7r8v95giQk+98Ny0+DwVdds8d5/ws8CiiI06V8IW7IQxcnPz6zRXPC7hlksxM97EyLGbGT9zE9nxJgwXfCJNz9C08zTNe9+iYfPbpOpmIo/e4uJzy556baqJjsbD3Lb19+lqeh+NtZ0ATMxc4dL4P/Ly5b9gcOIVZnLj3rRZXhrHIJepI5epJzebwtXkqKnNkKrL4FK2+r+zhOepTL+01CuLxVjOkZ1oZPJyF5NXupidrsc5o651mMZt56nbdI2aupmom+ktPu5lfhZYrkjPFyoWQ1/F6mXHm5i40M3YqR6mBjux2ZoFz7FsbfDY2x1s3HGWlr1vUdcyhkvlit6USXNfOtPFHatzKdobD7G//WMc2PxROhoPk3LB4WpmbKzrZHPjQbY2vYc33/573hr6IUMTr2KWA+fPusjX5rlMLVODWxg/vZvMSBu5TB2pugy1zaM0dl2kcfs5auqnV/VeF3Y873jMwDnDwmsXSu35EbI8Fr6wk887YDNprl/YztjJHqaubmV2qgHLBVfwpGpnGDuzm43bz9K6703SzeNz53Yv2u+J+ziK5WeBZeEJwK3swIIdNW4OC3eOQs9la5ga7GD4tcNMXu0kN12P4XBmWPikObcUM6OtjLzRxNTVLbTsPcbGHWdIb5iOPIbz2QuPSV+8rqaF3Zv+FXds+0O2NL6buppmXMHZI+8pl2ZL47tpre9hd9t9/NPF/8Tpkf/KVHbIm3WRF++Z4TbGju9l/OxNzIw3E1y4GZw5pga3MHF+Bxsvd9Hcc4yGLVdJ1eRW/JvLPaaIMFo3c2SutTF6soexk3uZndoAFhRWLhX0cDabZmaklZHxJqYGO2jpOT53bo+6/T66T/hZYFHERs1XWVZwAomRL44IISysrm5h9ORerp+9idlMPYWruvye5cjNppm82sX0UAdjJ/bSdujXNGy5MvdpN+pIzjefW47Qg2LPUVfTzE1t/5LDW36HXa2/SW3NRsxsrqBayvP/bkfLb7B14x2cGfl/eOXqX3F6+L+SmR0Lnxf9OspX2AdyjpnxJsbP3MTIWweZGW8qeFYeB+bITm9g5Ph+rp/bReP2c7Td/Bp1rSO49MyS7zVLeMFfrABLvXJyMYDZFDMTjYy+dTNjp/eQXfL9LsRhs2mmrmxj+u0tjJ7Yx6ZDr8yd230tMCqJj3uZnwWWK9LzhYrF0AvXO5ciM9LK9XM7GT2xL/j0mkvNf9osYrPYbJrJK9uYGW9m4/ZzNO0+OXch/Fo2cbV65B2rQTpVT+fGO9i/+aMc2vI5Gmu3knI1KxZXiz2damTPpt9ia9MdvHr1O7z19t9zdeIlZmYnFxaXnqy7PCA7Xc/1szsZP72HySudWLYOVvz3jux0A2Mne5ge2kzTztNs3HmG+k1D8yMf4XMLO56l9j9FhJX17PVGJi8Gl3xMXu7Ccqmiti2zNUxe7iI73kTj9vM07z7xjnN71OsYhftYZPpZYBnzowwrODC/kWPoEOwclk0zdrKH0VM9TL/dQS5bG8Z/4SouFQuuwmcmNjJyfD8Tl7to3f8GTTedIt04EXzSLdgpk+qFx2QU3li7hUOdD3NLx0Ns3nCI2prG+ecUnDFW644amuq6eU/Xl9jV+pu8NvgDXr3yJJPZq5Gto3xpJ5di6u3NjB7fz/iZm8hN1889Y9V/y1Jkhtu4Nt7E9fM7aL35NTZuP09Nw+Q7Opyl/k6+AJp/riLCcjnmmBrczPBr72LyclcQB+bf7zVs2+zERkaP72Py8lZa979J065TpDdeD/oWD9Y3su3sEX4WWBSxUfNVlhWcQGLiZjA73cDU5a2MHN/HxMXtkKspKBxLscc5yNWQGW1j8JfvY+zkPlp63qJp90lqGqYBmy9aIXE+t1wpN3AuRVPdNm5q+xC3bnmU7pa7caQoZrRqJa+taWTrxvfSufE97N/0EX519QlOD/+Y8cxFzHILt0UU2yGhboDNppgZa2b49UNcP7uL2akN2MLSq0gclq1laqiD6X+4m4b2t2nZ+xaNO85SU58hl6klO96yYCRr/l9WgqVeORnk3+/poXbGTu5l/MxuZicbV/x3qyM4t8+MtjH4yzsZPbGX1r1vsfGmU6QbpuZGMpOCj2vrZ4HlinTDn8hvlZ7Lppm+tonRY/uZuLCD7GQj+eGqYld/1W7BgT44+l6m3u6g6aZTbNh6acFXf8v22p56pTvZupomtja9j3dv/X12tX2QxnQH4EpaXBW6o4btLb1saryZM60f4p8v/wWXx/+Rmdx45MVGEj07Fow0Bd8I3oJZcAmAW+ffnfNcDZODW8iMtNF4sZuGjkGykxuYHmqHJZ6viLB8jgXX1U2c28HI8QNkhtvmvhlY8m1uKTLX2hl86b1MDnbStOskjVsvU9MwHfl2qJT7OIrlZ4FlzI8yrODA/EaOic+MNzF2qoex08FXsJlNrSn+W5tDLlvL2Kk9TF7tpGnHWVoPvkpt0/j8qEbBzlrtXnhMltvbGw7wrs7fYX/7g2zasH9u2oVC1hILruwpNtZ2cnPHJ+jc+G7eGnqaX1/5K65NvVnydZQv7blscN3M8Ou3MDXYSS5TB7gyvZ4jN1PH+NmbuH5xO+RS2Gx6yefnC6C1RFSr94LXdcnw3GyK6+d2MXps38L3u6zbORjJHD+9m6mrnTR2n2PTLb+mtmV00ftd3e4TfhZYFLFR81WWFZxkfHMAc2SvNzJxsZtrr97KzGhL8MnDLdo5KrQnmtWQHW/h2uvv4vr5nbT0BEPLdc1jCy+SdVS1zy2XwTGoSdXRXLeTPZs+zJ3dX6alfueC+azKNXK1lKdcms2Nt9C+4WZu6XiIf7zwv3Py2nOMZc4ym8uQ/wBQzm2SKDeCb35d3cLI8QNMnNvO7Ew9FcNS2EzdDZ9SmX7JVn5KlTCbqWNqsIOxE/sYP7sLy9ZWvhGWInu9idG3DjJ5sZum3Sdo3n2SutZRXCq38r+PKT7uZX4WWK5INyKP/G7kszN14UShe5i83EUu0wBmC+uedaz+en1mrJmhX7+biUvdtB54nQ1bL7/jItko21dOL2cnW59up2fThzm45SF2NB9ZMJ9VpYurhZ6itWE3v7Hrf2XPpvt5/er3OHHtOaZnh8q+TRLjOUdmtJXxs7sYO76PmfEWsGDEyov2ha6IsESeSzEz2szIsQNcP7eTmfFmLJcq67ZdjWfGm4N5FC9to2X/mzR2nye9ITi3e7HdSug+jmL5WWAZ86MMKzgwv5F9c3NMX9vE2Il9jJ3ePTeJnGELnl/+WHAldzATRBiZ0VYat52ndf+bNGy5MtdOWLgTV4sXHpOl8hQ1bNl4G4c7f5ebN3+CDbUd74gDyxMFFuf16Rb2tH2Iro13sK35X/DKlb/k6vWX0f0N1+e5mTRjp/YwdnIvU0Ob3zGKFHX7Cj1fAK0nllrZC17XVZ/PTtcxfuYmRk/sY2pwC+RqCh4vfyx4Yw/nzxrsJDPeQuPF7bT0HKOx+wLOzfWgkW/DUrpP+FlgUcRGze8jVnACidBxBN8SGm9m5Nh+xk71MDvRGD7kguJqgTs/9krnMCA72cjYif1cP7eTlr3HaN5zgrrWYVx6dr44Kfincfe55RJ4ytXTWt/DbVt/j5s7Pklz3XacS2E2fyKLduTqne6oYWNdF+/p+m/Y1/5veGPwKX515S8ZmTrBrE2WdPtUs2MwO10ffiP4ABMXu7Gwo/WZyvRLtvJTYoZZ+A3wK1u49uptTA+1Y7PedqeAIze1gfFTPUyc30Fzz3Gadx+nbtMwNbXVcX9DH/cyP/cIV6QbXkSB5iB7fSPXz21n/HQPk1c7YTYFLryYtaBjW+BrWOVyey7TwMgbtzB5ZStNu07RvOck6cbrZRv1icpL1cm21N3Envbf4sDmT7K9uZd0KrjWxociajUOjpb6nbxn25foarqTN99+iuPXnmVk+pQXBYzPzmwN08NtjB47wPXzO8he3zj3DB/adyNXRFi8Wy7F1JWtjJ3ezcT5HcxcbwrXl7Jsw1L7bKaOkTdvZvLyVjbuPENLzzFqm8YhZZFv2/W4j6NYfhZYxvwowwoOzG/kqNyBZWuYeruDa7++lanBLeF9Awufb8s4HkSES7vlaph+u4OZ0VamBjtp3f8GGzovk6rNRh7tlcoLj8m1eI2rp7ullzu6/pDtLb1sSG/GudT8cwqL6Bh4OlXPjpYjbG68hd1t/4oXL36NC6MDzNr0urdVNfrsREPwjeCTPWSG2xeMWvnQvpU8XwDN7wqKCJdzA7ITjYyd6mH0rQPMXG8K7rRRkW1YYrcUmeFNzIy1BPc33HuMjdvPUVM3E/l2Xq/7hJ8FFkVs1HyVZQUnkAq5GeRm00wNbmb0xL7wvoF1LB0FLufOj71y2b3VMRt+5XviYjcbu8/TdvDX1LVfI5WeWdB8I34+t1yk16Y20tX0Pg5t+Tz72v8NjbUdXoxElWTuLJdiQ7qDve0P0N1yNyeG/i9eufIkF8d/wUzuetHbqtrcco7ZqQYmLm3j2q9vJTPShtl8UR0nKtMv2cpP8Rgzx+xkA2On9zB2Yi/T19ohpu/3QoLrsyYv7mDqShcbOi+z6dAr1HcMkqrNeFu0LIePe5mfBZYr0o2KR4HkHJnRFsbP3sT4yR4yo60QThq4bBQYo4hwKbdsLeNnbiIz2sLGHWdpuukU9ZuG5p4QdfvW4sV2so4aNjXsZd/mBznU8du0bzhATao28qKoXN5Qs4mDHZ+hq+l9vHL1CY4P/ReGJ99ilqw3BU8lPZetYeJiN+On9zBxcRuzU42Rt2k9rojwxp6brmXyShfjp/Zw/fxOcjO1XsR8pXZma7h+YTsz401s3H6epptO0tBxNej0PHkvVnIfC0I/CyxjfpRhBQfmN3K5PXwDLfyW0OiJfUxfayc3U5tvBstHgcs5kUeBxXpmeBMz481MXuqm7eCvaew+T6o+844dPQ5eeEzeyM2gtmYjBzZ/nHdteZitTe+lIb1p/jmFxXKVeY2rZXPjQf7F9v+enrYP88qVv+KNt59iZrb6rslbzjHIjDUzenw/Yyd7gjsv5L8t5kH71ur5Amj+LVdEmGdmrInhVw9z/cL24Lo6q1n0PI8ivxL5zFgLI29tZOJSFy3736R51ylqGiffsX18dp/ws8CiiI2ar7Ks4ARSBjeD2akGpq6E9w28sIO5KReA4mLBQnd+7JVFuOEgW8vk4Bam/98jbOi8HNz7bPt5UrWZ8Dnz/9Rnn1u+gTfUdLCt+f0c7vwd9rX/a1KulqhHlqLwhvQmdrTcQ3fzB9jX/lFeufKXnB8dYGp2MPKRmLJ5zgU31T2xl7GTPcyMtrK++wb6RWXWxFZ+iieYOWZGWhg7vZvRE/vJjjdH3aQKE8SGmeF2Bl+8i7GTPbT0HKNp12lq6qe9vr+hjy3zs8ByRbpRvlgQyM3WBPcNfPNmJi5uJzvRGDSg2Cgw5hHhUm6zaSYudjN9rZ3moeM07TxFffsQqXQ85lK6USdb4+po33Az7976b9mz6bdoqd+Jo8abgicqr3F17G3/MFs23srJa/83v7ryLd6eeIVZy/hRFJXIs1MNTF7sZuzkHiYubyOXrcWFj/vQvlK4IsL8hoDZqQ1MXNrGyFsHmB7cQi6bLss2iY1biunBLbwdfsmpefcJGrZcoaZuJvL3ayn3cRTLzwLLeEcUuJwD8xu5DJ4Za2L81B7GTu8JLmbNpZgbfZp7/nqcyCO/9TtkJzcw8sZBJi5007T7JG373yDVMP/Ns6ijwOW88JgsbGtz/XYObP4Et3Q8xJaN7yadamAxvkR4UXjKpWlr2MOtW3+Xbc138erVv+bNt/+WsenzcxtyqW0bB7ecIzPSxtCvb2XyUtfcBMG+tK+Uni+A5t/a5EWEZo7Jy1sZPb6fiYvdzE5uKCgOb7ReyfBcpp6xk3uYurqFjTvO0nrza8G9a/PP8OR99BE/CyyK2Kj5KssKTiDr9ML7Bg6/fii4C3r4jLVHgcu582OvLIHnwqHlt1/axMS5nbTse5PG7gtz82dBQYHsic8tA44UG2o72dX6m9yx7d/RufHdsZvPqtKeTjXQ1XQnnRtv52DH5/jlxa9xduSnTMxcxshFPkJTjDObYnq4LZh24dQeshNNVDuV6Zds5adEQC5bQ2Z4E6On9jB2fF9wC7MQXzvsyLAaZsZaGX6tlevnd9Lcc4zmnaeDG0l7Ehv60YqF+FlguSLdKEkUCJDLprl+YXsw4+3lLnLT+fsG5nvnMvgaVtlvd0wNbmFmvJnrF3bSduA16jcPkqqb8aR98+Q72RpXz87W3+TmzZ9id9u/pKluuxcFTFw85dJ0N7+P5vr/yJnh53lt8LucHXmeWZtesJ29dAvmN5o4v4ORt24ORqpn0zhf2ldGT2REmHPMTm1g9Phexs/eRGZ4E7lsuqzboZo8M9rCtVduY/JidzA3YtdFahqmcC7a99fHotjPAsuofESYc0wPb2Ls+I3uG1gOx5OYr9QezB1z/exOMtfaaNp5mua9x6lvG448Fix0ZylaG3q4ZctD3Nr5KE113aRc3cLiV75qb6rdxsGOT7GjpZdXrjzJa4PfZ3jqLRy5+eeDN56bTTFxYTujx/cxeaWL3HT9gmdG3b5ye74Amn8LqzsinJ2pYfJSN6PH9zFxqRubqS1oqx+RnP/usGxteO/aFhq3XaBl7zE2bL2MD/c39Ak/CyyK2Kj599MKTiBF+ux0HcOvvYvRE3vJXm8KP92VOgpczl30Z50yupkjM9bKtVdvZez0Hja961c07zkZfNuwYNWNyntdTTOHOx/jcOfv0tF4CymX9mZEKK7unCNFLa0Ne/jAzv+Jmzs+w+uD3+OfL3+DyZmr5Il65GZ2Js300GbGTuxl7FQPuWwtSaQy/ZKt/JRyvrqBZdNMDW1m+LVDTF7qJrfoBtxiLThmJzfO37t23zFa9r5JXUSxYbR72dL4WWC5It1Y+zcEs2lGjx/g2mvvIjdTiwt/v67IL/ER4VLumBlv5tor7wYHLT3HIv2mYV1NK4c7f5cP7Pgf2VDbDkRfnFSbO1J0NB7kru3/HfXpNv7x/J+G12ZFV1xhMHO9iZFj+7l+9iYyI8EEwUTYpig9CRFhLlPH6Il9jL51IHi/ccFjZVjfpPrsdAMjbxwke30j7bf9E/VtIxV/r30cxfJzvn9j7gBYyY35YqloN8gMtzF6fG/wldxweNOw+UlFy+5BQywBjgvv5XViHzNjwfwyc+9nBd1Rw87We3lP1xfniitgYcErL5nX1TRzS8dn2NP2W8EcYsxTSccgM9LK4D+9l+HX3kVmuO0dxVXSPF8AOVceX8zcB9gK+vUL24P3e6SNoMsr3/om2W02zfVzOxl+4xCWcxV/r33EzwKLhRvsRu4IN7IV7+RSTF7Zykw4mVzlYsGFvuqVrQI3HNPXNjF9rT34FB0+pZK+oXYzt3Q8RFvD3uCxgipMXh7fWNvF/s0fZUNtZ/B75qmUz043QQpqMQAAIABJREFUcO3VWxk/vZtcthbDzX0ASOpPZajcKy1mdibN8OvvYma8ifnuWJQLm00zfno300ObK//aFX/FlfGzwHJFujE3IlSUu+Cka7M1OByY4cL/Vc7nVycxbsHs2MW+zaXyhnQ7rQ17cS6FD1FaEhyguX4XG9KbgmI3/F0lfWa0hcnLWymc0yryYyFiD+pfC9KAMvj8KwXkU4dKOMDMWCvZ8ab5x8q8vnJjdqohGLRwlXuvzfwsn/28BivccM6t7AC48GSxFs85sFJOHFqs48E3/irrwcfnoLY3Y36UqUKecrXUuGB+q6jjsyR5rdsQaUSYGW0Jvh0cwWv76sFbVJ3fIsSBZWvJZWsWtSXqb+FVt5NLYbmF0XtF33eP8HMEi9VvVEf4JlrxHvyR+QVFhJXxwjorCl9M1PFZUrywiy/8baXcwm8Kmn7mfipD5V5JJBcf9zI/C6xiP44Za4sIIRzWrHQsWOjzq5MkJ0IvxIf4LCmefxOs4P2opAc4L/Z/X7zcsdH8KwVUIipauqP1Iz5Lgi/c6uV7fxf7cuf4KEl8RDh/IraC31fS8SK2q3hEmN/uxvwoUwU9jy/xWaIcIvHFRNUOnzx4W6o0Ilz4ymVeR3neC1m4n1XGfcLPESxWv1Ed4ZtoxXvwR+YXFBFWxgvrrCh8MT7EZ0lwltaKevjxRj/v2C7lpHKvJJKLj3uZnwVWsR/HjMRFhKmaWWrqpnGpWRy25r8TlROhF+JLfJYEz78JVvB+VNIDFBEWerljo/lXCqhEVLR0R+tHfJYEX7jVy/f+LvblzvFRoohw7iWt4PeVdIqK2Grqptmw9SIbOi+Tqp9mdnIDU1e3MnGxG8vWRB7/KSIsr8/mMgDUuDov2rMmh0h8MVG1o3jPgTOwmpL//eBtUUTon+cgZeGdR1Lr+DuV90IW7meVcZ/ws8CiiI06V8IWvLWr9OCP5BeC8aTKR4RuxZV1GKmGaRo6rtJ++J+pbx8iVTs7tw652VeZOL+DkWMHmBrcwux0Q2X36CK9sM6KwhfjywjPjXxiZpCLY7/gV1eewCzLbVu/wLbm99NY2xF521brCwpr5o/FSjpzR6D/OJejrnWY5t0n2bD1IqPH9zNxYTvZyUbMShM+VKZfissWjxrD1cxS1zpCy743aOy6CMDYqT2Mn9nNzFgLNuttlx05Pu5lfr5brkg31nQvQuaGNQtiu7nOoIJ+o9V0OTZ0XqZp90k2dp+jtun63DrnSdXk2LjzLPXtQ1w/t4ORt25mZrQVcjVr3qTl9qhfO48PhceNPGdZhibe5OXLf8Hxa/+FsenTAFyd+BV7N/1rbt36KJs33EKNq/emzXGICKNsx8pu1DRM0rjtIq0HXqe+fQhXk6WudYSJbRcZO7WHiQvbyc2m1/1awaiuUY33IlxI+daxJA7UNY+ycftZmv5/9t49uo3svvP83MKTIPh+6E291S2pu2N7E8drdTxOxpvx8Xo9nsRJ23ESx7F9sjOenGw2y97Zs+fsnN09ezIxT5LNZpPJjMexEzvx23E8Hm9vJ+nx2s223bGddlstqUVJpCiKFN8PgCQIArj7R1URBYoSARKougB+33MEfAqEUPd3q+69P9xv4dbJUeLd8+DcMLnr4mVaDk6RHjtJ+s4J8ustZpT5AVxa6/4c653cCRNkZoKleagt6GWgWMl74GKHoz2v+8nsaKUpp5NNnrhN57mrhJMplFWwy+o5mVxWShNuTdN+9jqxnnlSt86QGj9OPtNihC0oFmHlvJ6bZ2T+S7wy+ymm098lr9e3/rayMcrL0x/lXvrvOd/3CzzS+xStkb7AyywW4X5ZE++bpuPsdRKHpgi1rG2ds6FYluTAGPG+GVZunmbl1llyqTbwJI2V7tdNgIqHRyxCv1mF8iT6p+m8cJl4zxxWNFsaUzhPS/8Msc4l4r1zrNw8y/psHxTCRpR/O3tVep75wybJzASLCirVHay159CWyfaHuBuGWISWJhzN0DowTvvp68R77G8y7ju2EswHsAoViPfNEu+Zo+3UCIuvPE5m5oB9S6Dt+wqIH1Z+P3i7TJnhUUqhdYH13DxTqe/wnbu/zXT6e+T1RjEGt8xAXq8zlf4W06vf5ersX/L6I4Mcbr9EItyLibcBKkmst8XiF7PVAs2SFcoRbV+m9cQonWdfxYpldy6/pYm0rtL9+MskB8ZI3TpLavTUnm1Df8YlE2s8aGlUOEe8b5r20zdoPTJBKLr5wHcrZSfYbadvkjgyweqd4yxff5Tscgc6H8KvI2myTDzLzEywVIWsaQiLUIU3aembIXl8lNaBcftXgtvaTdlVY2la+uYI/9iLrE4cJT1+nPXpQ3jvw1bR51WZg963KxMSD5cLOsfdlRe4Pv95bi58leXsWFnJQ0FvMpX+Fs+N/nec7Horj/Q+xZG2S4StmBFxuewWOrjkCuy2Hmw5tid8oZZ12k6MkhwYJdYzjwoVdv9/CmKdK0Qe/wHx3lnbNpw6TCEbr6gMYhH6z8oqEGlfJnnsNu2nbxBJprfswHLiCsU2aD9znVjXAqnbJ1i9M0A21e68L/gYS2vdn2MtFmEl0hRnHHZhoFjJe+Bih6M9r/vJoNCEWtbofPQqyWO3CbelsayCk/w55fOcQJVwuHWV9jMjJA5OsTzyCKmxk+TXE2iUWIRQmuQGxACr2Wmuz3+Rf7j3xyxnbpEvrJeU1fvuB3EqO87lmT/jzvI3eeLAB3mk9+doix5BqeLMhgnxlhNLLXi7giqHy8rKE++fpuPMdRJH7mJFsvefn7uwFcnRevQOsZ451iaPsHjlcTZTbbj3+ty1DMreKu5XLMJashXZJDlwm/bTI8S65++btaokxljPHJH2FVoPT7D4yhOszxyArYvgA7QIQ3lUKO9uVRzXftkkmZlgUUGluoN18Qty2Wx/iLsRjEVohfIkDt+l+/Ef2N9ePcXz5iN7ZbAvgo92rND7uu/SduIWS9cukBo7RckyaD62gGrEtd868SqoWZ2CzpPJLXJj4cv8cPpPmV79LgW9eX+5KZ/zeoPFzFW+Of6vuD7/BR7r/xXO9ryTeLgHS4UCjbcksa4wrmrOGJV+x/ZXCo2y8kQ6Vug6f5nWo3e27EBvuSqJS1macOsaHWdHSByaYuXWadJjJ8mudOxqG/ozLgVZ42bIimWI983QfuomyWO3UdaD60RryK21ks/ECEWzhFtXd3y/UhCKZkkcukesZ57Vu0dZuXmGzOwBdM6+PisIRdtWiHUu+n7YTTzLzEywVIWsqVuLsKX/Ht1PvESsa7H235wtTaxnnp7X/AObq0kyMwfwXh5b8/1TKj/396CuJqhkYzO/xlT6O1yb+ywj83/Fem7Gfo+nrPvhvGMbLqy/ymTqOzza924Ot/04UastkHjFIrSTq0gyRevAbZIDt4n3zu45kX4Qh5Npui68QuLgFEuvnmft3iEKmbiz9/v/j1iENWbLXmqj4+yrJI7cJdKaRll6xzIDFLJR1mf6WR45x2aqg3DLGu2nR0gcniQUzzww3lB0k7YTY8R75li5dYbV8eN2gl2wfI3XCudoPTZOpG3F12MtFmEl0hS/xe/CQLGS98DFDkd7XveJrTydj161kyvHu/bDGgsn03ScHmFzuZPcRtyuQrEIfeNsPs2Ldz/C9fkvsJy5Ra5QvNbOW7xqcCa3wNW5TzGZGuZcz7t4/ZFBYuEOX+O9j6sQ1154u3wthyoQ75uh54mXiPXM32cHVnOf9sXTM/Qm06zdPcLSq+fJLvbs+H/cBKhYFrEIq8eaWPc8va/9HvH+aaxQ4aFl3ljsZPnGOVYnBsilW9HaYnO5g+xyJ4mpSTrOvkq8bxbvdU6ln6OJtqfouniZWNcCc//wo+RS7b7Fq8KbJAfG6Dj76n0zbsEd92BlZoJFBZXqHsfiF+Sy2f4Qd8N/izDWPU+8b6aYXHniqzXH+6eJtC+Tm4k7vbJ/LcCvGB/E2+WvLZjjh9N/yosTv0Oe7FbV12zWREFBZ1nIvMqLd/8N0VAbP3bkt7BU2PfYSxLrWsW7C7PVAv2UJt49T/+PfYdY94I/8SqIJNZoPzNCpH2Zyb/9JxQK93f3/oxL/te4CVKhvL2sRv9MSXLllS5YbKaTpMePs/zqo+TWWnGPipv85tcTpG6dYW3yCO2nR0ieGCXasfTAzwxFNkkeHWd95gDL1y7WJrhiBPYabV1LtuV9ZAIrkqvxPh9UEvNkZoKlKmRNXVqEkcQaKlw8GSsNez9sRfJYkU0nuVO+79/v/T1oIPHbJivoHEuZG+R1cQbDrwSjoPMsb4yRL2xihcJiEfq471B8g1BLxv/YFUTbUqhwHrL3L0wqFmFtfy0YimdQqrh+obechWyE9MRx0mMnWZ/tp5CNOv+XHT8zt97C0rULrM/0kzw+RtuJUULxzM6xKwgn1tBo5281iBGIJlMkB8ZInhgj1j0PqvTc8utYi0VYiXSxc9iNgWIl74GLHY72vO4PowpbDcqTd/nEGlRhqw7FIvSJd/iapXxkuwC6sjJXm/dR/v3FXqog9h1k7Dv9zU2AiodHLMKqsqe9e/uhzVQbS9cukL59kvxGDLRV1rHQ+TCZ2QNkl7vYmO+l45GrxbUStx1gpbRznKsflwrlaemdpeviy8T7Zp0v65TIz2NtYnIFpiZYVFCp7glc/IJcNtsf4m74bxFuj0n7yGxjP1tAEPFuj90rf22yYo/r92wGO7FYhP7IsOPuyp9xKZAaN1cFy/7F342z6HxkDx+gKGRjpMdPEIqvE+1cJmQ9eJHS6kmjrAKxnlnaT98gOXCbUCzrw37Lk4lnmZkJlqqQNXVpEe437P1wEPvcvv8g9+3Kf5vMk2i6ZfCJi98pdECx+xvvdnajD2Tfbj34uM/7Y9/hnNAgFmGNYi8NfatsGoW7Ttl+6l9RuoOS2LUbtd3eq2F3hhNrtB65Q8e5a0Q6Vkpu3ebXMRWLsBrSFGccdmGgWMl74GKHoz2v+8Nb4XpODr95a9AVi9Afvj+vLisprBZ7XxGL0P99Bxn7Tn9zE6Di4RGLsKrsae87dH9VqP/7P995i+dpv7FoWg5O2ffHPDCFFduo+bGr3nEPVmYmWFRQqe7Z6s1ZymT7Q9wNsQj94iDi3R67V2IR+hV7aRn8jL146MUi9MqfcSmQGm8S1a5ulZUj2rlE26mbtJ++QShqjh24k0w8y8xMsHbIxB/KGrEIK+Qg9rl9/0Hu25VYhH7G7m+829mNPpB9u/Xg4z7vj32Hc0KDWIQ1ir009K2ylZRqH/XvbO1Yt25jt1+q/POtWIa242O0nbpBrGsRK5w3xgp8EJs4i2VmgqUpzjjswkCxkvfAxQ5He173h7fC9ZwcYhH6w67EIiyjzNXmfZR//7EHu+8gY9/pb24CVDw8YhFWlT3tfYfurwr1f//nO2/xPFXwmVaeeM8c7Weukzw2jhUtLifj57Gr3nEPVmYmWFRQqe7Z6s1ZymT7Q9wNsQj94iDi3R67V2IR+hV7aRn8jL146MUi9MqfcSmQGm8SVaNuNVgFIsk0Heeu2etrtaz7dG5UTyaeZWYmWDtk4g9ljViEFXIQ+9y+/yD37UosQj9j9zfe7exGH8i+3XrwcZ/3x77DOaFBLMIaxV4aurEWYTixTuLQXdpP3SDeP4PyrBBviv1XDps4i2VmgqUpzjjswkCxkvfAxQ5He173h7fC9ZwcYhH6w67EIiyjzNXmfZR//7EHu+8gY9/pb24CVDw8YhFWlT3tfYfurwr1f//nO2/xPD3o/2pinYt0XXyFxOEJZ9X5B39mvbBJMjPBooJKdc9Wb85SJtsf4m6IRegXBxHv9ti9EovQr9hLy+Bn7MVDLxahV/6MS4HUuLFSSqPCOVQoTyEX2XtyoLS9gvqD6lc96PUCkfYV2k7cov3UDSLJ1T0WwCyZeJaZmWDtkIk/lDViEVbIQexz+/6D3LcrsQj9jN3feLezG30g+3brwcd93h/7DueEtgd8sQhrEHtp6EWLUBVo6b9H+5kbpG6dJp+JV/z5VmyD5LFxWo/eQYXy99UtaMLxdec4u8dCY0U3SBy859xiZw7l3JjZFJtvP2ziLJaZCZamOOOwCwPFSt4DFzsc7XndH94K13NyiEXoD7sSi7CMMleb91H+/cce7L6DjH2nv7kJUPHwiEVYVfa0963XFEQ7lul+/AfEu+dZvnGWzGw/Oh/e/TNVgVjPPB2nr9M6ME4oVrT1ttdDvHeWaMcSmysdKCDWtUD7meu0HrtDOLHq67EI7rgHKzMTLCqoVPcE9uYsZbL9Ie6GWIR+cRDxbo/dK7EI/Yq9tAx+xl489GIReuXPuBRIjRstpSAUzZI8eYvE4QlWJ46xdO0C2eWOrUSrKO38yi9FxyPXaBsYI5TY/Vd+kbY0R37yb8ksdAPQ0jdDKJHx6Zj7LxPPMjMTLFUha8QirJCD2Of2/Qe5b1diEfoZu7/xbmc3+kD27daDj/u8P/YdzgkNYhHWKHatPMmSfmA5rViWtlM3iXYsk759nPTEAFln1klrRaR1lcSRCdpOjNLSP4332qrd6iHSliacTDvlsl/XPtW/WISmJlia4ozDLgwUK3kPXOxwtOd1f3grXM/JIRahP+zKb5vMIkxLpLe0DD5yPNxDyIruufxV4SrFUilvl5/7LmyGKeSskg7Xr/3nN+LofGjHv7kJUPHwiEVYLdYFi43FLgqbEUIPu3+f8xDrmSPSvkzi0CSL1y6Sme0n2rFM5/nLtBy4d99nlFsPzcYmycwEiwoq1R2svTlLmWx/iLshFqFfHES822P3ys+ZHEWIHznwayxnRrm99Lesbk6hydd0BkMRIhE5yLGON/Pag/8C5Wn2YhH6IcXGfC8LP3gtXRdeIdKxjArld/iSV13OZ6Nk5npZvHKRQn7nrt6fccn/GjdChRDp8ZOokKbzkauEkylUqPDAOlcKQtFNEoeniB+YRufCKKuA5VyILnq4TDzLzEywVIWsEYuwQg5in9v3H+S+XfltkymlaI0e4B+d+AhjS3/D1dm/YHz578jrDfs9nrJWg0MqxkDHP+bR3ndzvPMttEYO+h6vy27hgkuuwPvVxs99F/JhUqOn2Ey3kTw+RvLoOOFkuvQLQJX2ScFiI9XGysg5Vu8eYzPV9sBkTizC2nIhG2V55BzZpU6Sx8doPXKHSHJ11/JboQLayhbbjI/1Vq9s4iyWmQmWpjjjsAsDxUreAxc7HO153R/eCtdzcohF6A+7CsomS0T6eKTnXRxqez2vzPw5V2f/guXMGEoVV1H2FrVi1hZt8WNc7PslLva/j/bowJY1GES8zW4R2myRme0nu9zB2uRhui68QrxvBiucr9p+CtkIq3cGWL55lo25PnQ+tPWOnf6PmwAVD49YhNVmCiHWpw+SXepk7e4Rui5eJtYzhxXOVzVeYfNkZoJFBZXqDtbenKVMtj/E3RCL0C8OIt7tsXsVxCwWgKUidMXP8MZj/5pHep7iytwnuTL7SdazMxTIFcvtlrMMtu3Afh7pfTeP9b+f3sR5LBW2Z5ACjrcksa4wrmoxWy0wKCny2Tirk8fIzPbTOnDbvkVJ75xtG3rPV8pjre2ZksxcL0tXH2N95sADLcH7S+OHgq1xM6TIb7SweneA9ZkDtB6doP30CPG+WVQoZ2yCUE8y8SwzM8FSFbJGLMIKOYh9bt9/kPt2FVSyUXpdlkVf60V+PPavOND6Oq7NfYY7y18nk1+sKHmIhjo42v4TXOj7RU50/hPi4U5jYmx2i3AnLmzGSI2eYWOuj/YzI7QeHSeSTIOlK0quMnP9pMdOOHZge8XJmViE/nI+GyM1dpLMXC/tp2/QemycSNsyVujBvzQU3p1NTFLNTLA0xRmHXRgoVvIeuNjhaM/r/vBWuJ6TQyxCf9hVYDbZDhwPd3K2+59xMPmjjC49y3cnh1jOjKF1oXQy0BuABpRFR/wErz34G5zu+q9pjw0QsiLGxHUfe4rvJ29XUOUoKVPBIrvcxcIPf4TVySN0nBmh9djtrRvuPiyWXCbG6p3jLL36KJsrHY4dWFkZ3ASoeHjEIvSFtcVmqoPFVx5nbfIwbadu0nZitOSCdj/rqpHYJJmZYFFBpbqDtTdnKZPtD3E3xCL0i4OId3vsXpkyw6OUImRF6Iid5LUH/1tOdPxjLs98gpH5L7GYGaFA8VodDViE6Iyf5kzPO3ms/5fpTVwMvPwP45LEGkpi8YvZaoFmKZ+NsTZ1hPXpg7QdP0rb6RHiPfOEopulsWjbDlydOMbKzbOsz/ajC6E979efccnEGjdDhc0o6zOHWJ89QHr8OO1nbtDSf2/HGy+LHi4TzzIzEyxVIWvEIqyQg9jn9v0HuW9XJiQeD+LO+Blef+R/5HjnW/iHqT/izsrXyWwuANAS6eZY+5t5/MAHOdL2XxINtRtRZrEI98cUQqTGTpGZ7yV5dJz2MyNE2tJgFSjkQmzM95AaO0n6zgly6y1uz7Xn/dqzumIRBs4Fi7WpI2SXukgcmqT97HViXQso5wcQpthwJrOJCamZCZbmPivwQQwUK3kPXOxwtOd1f3grXM/J4Te7dSgWoZkcC7dzrP0f0Rk/za3FZ7g883HQBS72v4/T3W8nGT2Cpe6fwTCl/Duyt5w+8nYFVY5dWVtsrnSw9OoFMgv2dTrx3hlSt0+SdpZ60PlwVfblJkDFwyMWYWCsLXJrSVZGT5NZ6KXt+C2SJ0aJtqV9rbd6Z5NkZoJFBZXqDtbenKVMtj/E3RCL0C8OIt7tsXtlygzPg9miPTbAjxz4EGe7/ykaTWukH6UsA8pWPpck1hTbop/MVgs0XfZtVtbuHSYz208otsHmWoLSNKkae/FD9VHjxqgQIrvYzfxiJ6mxU3Q+co3E4QnCiTWUJXX5IJlYM1bQBdhRqkLWoNXeWDtTWlsWoY+837D3w97XVABczVj2GjuYkXhUwq3RA7RGDtRdcmWaRRjEOb9XLuTD5NZacb+UVfPz7W7I/vVaLbi4J1veWfNac6lqF2PtWLGx2M3cS69j9nuvJ31ngMJmGI1/dVhP/KA+PkiZOYPlVJw7Q/UwBkA5ncUeuNgRa8/r/vBWuJriTIvP7NahWITCvjEEwtsVVDlMYvuwiEVoMhc24qzeGSAz20fm+Bhtp28Q61y0l/PwsT7rhU2SmQkWFVTqVgrr6UDKZPtD3A2xCP3iIOLdHrtXpszwNDqXJNYU26KfzFYLFEFp0lU7SY3vW9oiv97K0rULpO8MkDx+m44zr9q3W3rI/Q2bSSaeZWIROlNaYhH6y9WMZa+xgxmJR7OwexCCS67A/WoTxDlvIt9vS4lFaDYrcqtJlq+dZ+Y7byR18wy51VYnQv/q1kR+UB8fpMycwXIqzp2hehgDoJzOYg9c7Ii153UfGIUVzoGyG87Wl3yfWCnAyrvV3VQWoUajtb2gnxGWWZOw1nk02ojE2u99m8r2IRKLsN5YO/c33FjqouXuUTrPv0K8V+5vaJrMnMGi/EpVOJ2FrpztDylu+GYRaoUV2STWvQiqGNNW8ugDq3CWeM88VmSzsgqvAgcRr5c3couks5Noba+WrYtftYVrxFprUtk7ZHPL9jZF+cbOInjaeU3++STl255KpUGFNrHCec9sWiNJ2ddnTRxn6hs/xcx33sja9EEKuVCDxvtwmRiymQlWpV/HNPVlESpNvHeGloOTwX2DDeVJHLpLtLN4vzvleU+tuWZxlcGZ3CJT6RfZLKxhin3W6JzNr3B76TlWN6ftZNc5Fn5yOLFq31CZ6pzDjcAPtqKqwyqUJxxfR+Em2sWBsOYMRJIpIslU8W81jjcozmfipEZPMfPtN7J09QLZ5U50wf2lsY91HiB7+3hTZGaCtXXy7M4a7BXaqZzB2xHrYtJVY452LdJ5/grR9hX7b25MPrJSEOtapOviZUItq6CL3+xrzUHE6+VcYZ0bC19mMvWtfdtewuXx2NLfcH3+i+QKa4El1tGOJfvXV063HFQ5TGL7ENn2Uy04FM8Q7V4Aq7C1P+++a8qAFc2SPD5KKJqtWYzGsLNA7cIrTzD7nTewcvM0hc2wv3UeIJuovd/Eqgb66V/lJIr3QWmFPYyV+5qunEGxPn2IzGwfYM8y1coWVEoTjmdoPTpO34+9SEvfDErZSZcbk8Z/jnYsE+uZQ+cjFDbi6FwYTfHMrcVga1kFWg5MEz8wHVjs65vTTKa+TTzcQyLST9hqQSnLiNmeRuGCzrO2OcvNhf/I12//D6xkxzxfaPCdrcgmVmSTjcVu8htxRMU6qomsPF3nL9M2cBvLuXm133L7OGUV2EwnKWQjFG/h06AqhMittrE6eYSNhR6UlScU30CFcg0dt4Yrf/OnfD7ocnhl5kXuqkLWGH0vQiucp+XgFG3HR0kcmiTcsm7/SVUeai24pX+aaNsKq5NHWBl5hI3FbnQ+vOv/2w/X6nMr4aXMCF8f++852fU2Hu15iqPtP0EklACCT07qnTfza9xNvcDVub9kbPEZ0ptTgSZXAFia1sN30fkQi5efIJvqANdGCahMQbPWUPX7D1oFIq1pWo/dpv3MCCqcK9mf+/3NL7YiWToeuUq0a4HlVx8lM9dPIRt1Eq3qxm4U50Os3T1KdrGbxOEJOs6+SrRzqWHvb2hi8mhmgqUpzjjswkCxkvfAxQ5He16vDoMm0rFM24lR2k/fIJxYBaVLygClJ0cQrBSEWtZpP3WTWPc8q+PHWRk9w2a6rSF/Rejltc1prs7+BRPLz/PYgV/h0d6n6IydxF0pHSgmy8K7MmiWMre5NvdpLs98gpWNMQo6G3gy7bKK5EgeHyPcssbKrbOs3jlGYTNmTPn8ZvvQVfGXbqE8yaN3aD9znXjfLKFoFq+8p4pvrCAU3aT1yATRjmVWJ46RunmGjcWe6sZuJCtya62s3DrDxkIPyROjtB0fJZLynmChAAAgAElEQVRcDeZY+MAmycwEiwoq1R2stacDKZPtD3E3qmgRWgXCLWu0nbxF++kRIm0plLsvT3KxNaumtjaDZaWJdS8S61wieWKUpasXWZs6Qm4tgdZW1VqAMfE6yussyxsjvDD+v3Bt7tNc6H0v5/t+gdbIIUJWxP4/Bs0OmcgFnWM1O821uc9wefYTLKxdRZMPfIZmJ7ZCBRKH7hHvmyVzupfFK4+TmeujsBGjdBGJxle1orWiG8S65mk/PUJyYBwrkqvSJ1dPSkG0LUXk0Su0HR9l6dXzpMePs5lug4JRV8tUX4UQmfleNhZ6WLl5hq7zr9huSgPd39DEKIw6q7auwfK2+nIYSuy2chmtWJs6RGb2AF6LcD8cjq+TPDpB18XL9qxVSwbKKE+5ofrBSkE4vkFL/z2iHcugFfm1VnQhZP/d+949sHKuwUocmA4sRlfbZzHXN2eYTH2LxcwNLBV2rs9KBJ7AmMzrm/OMLT3L96f+T34w/SesZu86tWlGQvXARMvShFtXaemfJpxYQ+fC5NYToK2qnOf1wPu2CEN5Iu0rdD16ha4Lr9ByYBorXDDGNtqJAaxojpa+WWJdi/b1Waut6HzYDGuvpgz5TAuZ2X6yqQ7Hzl21f4Rg0DHao0Uo12CVJe2ZZdiFgWIl74HV1i615/XKWVmaaNcCXecvkzg4Ragl477roWWArZPDOA7FNmk9eodY7yzpsVlWbp0hu9SF1lbDWITuMXAOCQC5who3F77CdPr7DHT+FD966DfpSZzHUuGtpAJoeta6wGLmBn9/93cZW3qW1c0JCro4c7FT3ZrGSkG4dZX2M9dJHJxieeQRUmMnyK8nABV4+WrN9iHdm/1kRTfs66xO3SDeO2cvgaG8n2s2q3COloNTxLoXaOmbYeXmWdZn+53ZrKCtvdpyIevc33Cuj8yJm7Sfukm0c8kelww6Rnthk2RmgkUFleoO1trTgZTJ9oe4G3uzCLHyxLsWaD91k+TxUXvGyvv5u5TBKItwJ7Y0kcQ6neevkBy4Tfr2CZZvnHOm1S320iKNiMtTtJ1mOTR5VrK3uTz9ccaX/pZHe3+B833vpqflApaK4NfskIlc0JvMr1/h+vwXuTb3GZYyN4yZldoLKwWECkQ7lul93d/TdvImKzfOkb4zQD4TR2szV7OphioflzShWIZ47yxdFy8T6ymuHl6PUgpCsQ3aTt+k9egdVieOsXTtAtmVDnQuzF5qqG6kLfJrrSxdeZz07ZO0nbxF5/lXCMU2jE1YHia9+1t8l1iEe7YIIZxM0XZilO4nfkDi8F2s6ObWosWVlqfcUANjZV8oGu+dI9a1iBUqkN+Io7Oxrfcqz/97GJtrEe48+G7kV5hZ/T73Vr+LpSK0RPqIhtrszzIg4fGPC6xuTnNj4St8a+J/Y2ThS6xtzgSeIFWTURBuWaelf4ZIaxqdD5PPtGxdo1PJeV4PXIlFiFWgpX+ajkeu0nnhCrGuRVCemXynIuuVVShPrGuReM8CViRLYSNGbiPuvG/3+qlfVujNKBtzfYRa1ol3L4CljTkuYhFWWxqzLULL+aXM6RHifbNY0Y09lwG2To76YEvTcuAe0c5FEocnWLpykcx8HwVnWYdGsAh34lxhnanUt1laH+Xo4jM8ceADDHT8JCEVtd9TMkPXeFzQee6uPM8Ppv8Dd5afY3VzCvdAlluHdcMKQtEsbSdGiffOsTpxlKVrF8mtJnDXZjamrPtk5QRcPOQ7sSbk/Gin48wI4WQKFSp4/j8NxbHuOSLtyyQO32XpykXW7h2GXMR91y51Vb+sCyHW7x2i48yNrXXLgj4We2GTZGaCRQWV6g7W2tOBlMn2h7gbu1uEoUiWWO8c7adukDw+Zp+E3nnJPZTBeItwB0bZF8Enj92h5cA0q3eOsXLzDJm5vpL1sx504IIuf0ks7naZvJ6b5vrC5xlb+hoX+n6ZC32/SG/rY8RC7YbMMlWXs/k0c2tXeHXus/xw5mNs5JfLrqt6Z2Vp+wLuC1doPTLBys0zpO8cZzPV3jC24UPHJVUgFM/QNjBG2+kR54Jw/bD/0RBSCkKRTRIHpol1z7E+dcS+Pmv6IIXNCLvUWh1LE4rb1w7Xo0wstZkJlqqQ3URFV8ZoeybDTa7wDDAlrArEOpZoPz1C69EJIskUSuk977eE9xG2CRyKZmk7OUq8b5aVm2dYvTNAdqUD9MO/6ZtS/r0OvpuFVX448zEmU9/iTPc7uND3S3TET6IIBZ4UVYM1BZYz41yb+zTX5/+KubWXyXvWswo6+fGbI+0rdD3+Mi2Hpli5/oh9U92NOKCMKN9e+UEWYSi6QcuBaZLHR2k9ese+KXyxawRV/P+NzKFIntZj48R65kndOkV6/AQbS13ofGjHeqtXtkJ5Yt3zdJy5HvjCsHtlE2exzEywNMVZhl0YKFbyHrjY4WjP6zZTUIRa1kkO3Kb99AixroWdV8HdRxmg9OSoR0YViLav0PXYD0kcuktq9AypsZPozXDDWIQ7cb6QZXbtJZYyN5hMfYcnDnyA453/FfFwZ/H9JTN39cGbhRRjS3/H5ZmPM7Hy/5HNp5wErBj7fuqtLllBKJIjcXCKaPsKa5OHWRk5R2ahF+WZzTKirBWwfUy9VpEm0pam68JlWo9MOOskld7mZj/2Tb1ypHWVzvNXSRyaJDV2ipWbZyhk4573mWHz7YXDrfa1xMkTo/YspSF1vlc2SWYmWFRQqe5grT0dSJmMxln/Q4MuWoQKCMXXaTlwj87zrxDvmUcpb1ZQ+b4exPVoET6IrcgmiYPTtPTP0Hp03LYNZw+Qy8RLDpxSgFUwosxb23tgpWzeLKS5vfz/cjf1TY61/ySvPfQvOdz248RCHdTL/Q21LpDNp7i3+j2+O/l73Fn+z+QKazvX3T7rra7ZGWzbz46QPDbO8o2zpG+fJLvcuXUdYj2pONYWiLYvkxwYo+3Ura0b0YuKssI54r3zxHrmSQ7cZnnkHGtTR8ivt+CpyfqQlSfSmiZxaJLOR68QaV8xNkkpV3r3t/guM3sEVSG7iYqujFGaSPsyVnSDfCaBxrlvYP80bSdv0nJoikiLM8js4fObwSLciZWlaT06Qax7nrXJIyyPPGKvn5WzTzcrskkkuRJ4OaG6g2+usMbo0n9iMTPC6a6380jvz3Mw+V9gKTvuoJOoB3FB55hOf5/rC3/FrYX/yNz6K2YkM4ZzKL5B5/krtPRPk75znNTo6ZLBNujylcf2dTctB6boOHeNWM/81irsplg/JnK8b4ZIW4r16QmWrz/CxnwvhZx7I+ngLb+HcShmr1+WHBgn3jdNKLqJ1sVzIui63SubmCAaVaSh5/kpFH+He7AV7MbAvg5Kbj3B0rXzrE4csy9sPHyXtlM3nNVti2ddrU4MKD05GooBChYbSx2kx06yNnUEjSJ55A4dj1wl3JIxopxVl4ZwqIXO+Flee/Bfcqb7HSQi/aia7XBv0lqznptndPEZvjf1eyysXydXWA26WHUnraGwGWFt6jArN86xPn2w9McepkoViPfN2NeWHr5LqGXdyEHKZOmCIptqY/XOcVK3TpNd7gq6SA+UCuW2jnfi8F1CsWypM1P/+sLgJX4u6EJ4ZVRz8iZYZX8F8z6zdy7kQ6AKKGf9j2p8Zjlcsi5WBWHXIxfyFmhQocKWvRZ02Wq9j5CKcTD541zs/2XOdP83tIR7cW8kHeR6VpncEreW/hOXpz/BZGqYvN4w4njUO+ezUdbuHmHp+qNsLPSgc2G0Wd0sVihHtHOJtuO3aD99g1B8I+gi1b20hs10kuVXL7A6cZTN1aQh9zfUWJFNol0LdD5yjcShu1jRbEMm0hq+8LRhCZaZX7NUhewmKnrvbIXs1YjdXxdW4zOb1SJ8ELtrq5hSHqj9gJvTG9xNfZPFzKvcXXmB833v4VDb64labYEkV9l8mun097g2/wVG5j9vLxSqNaja1kOzcCiaJXlilGjXIunx4/b1WUsdaKzAyweaUMs67adu0HrsNrHuBayQ2fcNrBcGiLSl6X7iH0gcmiR9+zjpO8cpZKOBWYFYBWLd87QNjJE4MmHfV9bT+ZlQb41uEZqZYGmnY1C7M1Cs5DpkKD05hP1lb5usHWtWs9NcnfsUk6lhzvW8iycOfJD22ABKWSXWYS05tXGXH0z/O0bmv8RS5ga5gn1LjO0dkz910risFEQ7lug6b19EvHT1ImuTRyhsRoMrU3iTxIF7tJ0eIXFoEiuyuXXcvcdfeH8citqXmcS6Z+2la26cJbPQ4+v9DbWGUGKN1qPjdJ67RqQtVXKfSD/qIUg2SUYVK0iLMChuJovQRA5q370tj3Oh/5c52/1P6YifQlFMtKo5cwWalY1xbi5+lSszn+Te6otG1HszcSEXYn36ICs3zrF275A9q+FD16vQqMgmsa4FOh+9QuLQFKFo9r5yimojrSGfaWH1zgCL1y6QSyfReTvRqsHeQNkzlG0nbtF2YtReVqgJFoZ1pcUiLFOqQnYTFV2HvI+whffPQQ2+s2s/5DsT/we3l/6O1xz8NY62/wTxcBegqpZcZfMr3E29wEv3/oTJ1DCZzQVJ6ANgFc6TODxp24a3j5MaO0V2sRudD9dw3wWiXYu0DdymdeA20Y6l4uyt572AMRZPw7HCtmTPXLeP/dhxVu8eI5tqd95nH4Vq2ILhFvuXoG0nRkkcmkQ5vwRtpuNr4iyWmQmWdjoBtTsDxUquQ4bSk0PYX/a2SV9ZQSa3xPjysyxmrnGy821c7H8fh9te73mP2jPPrL3MlZk/48bCX7OyMYamUHLO+RKjcJGVJpJYo+Psq/ayDrdPsnLzrH0j6SrvLxTdIHHoLl0XXrETq3Cu1E6hVCbYOg3LAJYm3jtDtGOJ1iN3Wbx6kfWZA1W5v6EK5Yl3L9Bx7iqJg1OE4pn7Zq2MqAcf2SSZmWBRQaW655L2dBx1xI200Gg98tZ2AIwCTYGVjTFemv5jbi5+hcf7f5VzvT9HV/w0YaulopmrXGGD5cwo1+f/ih9M/zGp7EQgcQk/mK1wgVjPArHuBWcx3rOsTR4lt5ZgP7ahQmNFsyQOTdJx5jrxA/fsC9jLKJuo9lLK/gFE4vAksd451iad+xvO9DvrA1ZyNDQqnCPePUfb6Zu0Hh0nLL8ELU64GCQzEyxVIbuJiq5D3kfYwvvnoAdcL6c2Jvju5O8xvvJ1znW/i0d6f5bWyEFA7Xqd1Vp2lpGFL/Pq/OeYSr1INp8qTSgNiVHYYQXxvlkibSkShyZZvv4omYUetHMz4Uo+S4VyRLsWtq69CcUzKFVmkg/GWDzNwqFoluTxMeK9s84NxAfILneWdX9DFcrbM2FH79B+6iaRZNq+G4kBcQXNJs5imZlgaYqzDLswUKzkOmQoPTmE/WVvmwyalbJvu3N35ZvMrf6QqfS3eaz/VznS9kYiIY+V5OlJ8nqDydS3uDLzKW4s/jWZ3ALQ5PcNrBdWEG7JkBy4Taxz0VkN/hTZ5a6yPysUt6/xSQ6MEe1YwgoXyvp/Xplg6zQfayJJ+56PiUOTpEZPkRo9TWEz6nlfqS0YimVoO32TtuOjxDoXt1bcDz4Ws9gkmZlgUUGlulmW9nQcdcRiEQbLW9tGsWYjv8i1ub9kbOkZTna+ndce+hd0xk8RthIA5AvrLG/c5gf3/j23Fr/CanYalDak/MIVsaWJdi7T1fEyyRO3WH71AumJY+RWW+1fnXkHD20PzuHEKonDd2k/PUK8b5aSL2wVlkEUnKxIjpb+GeJ9s7Qeu+Pcv7Wf/EbMGRwKhBP2fXHbT40Q75ujwVZfr5pMrBUzEyxVIbuJiq5D3kfYwvtnYwbZB/D65gLX5v6S6dUX6W99Da3RQwCsZaeZWXuZxfVXyRfsNY1MKbPwHllB1LNYZWr0JGv3DpPfiKPzFkpprPgGsa55Os5eJ3FwCiu2se/kyhSLp7lZkzh0l1jXPBuL3WSXOtGFEFZkk1jnAtHOpa0V2M0ps1ls4iyWmQmWLnY4uzFQrOQ6ZCg9OYT9ZW+bNJIVaHIsrF9jYf0aauvG0UV7wI3JmDIL74vtxSoniHXPsT5zgOxSF4VsxL5JenuKeO8skWRqxzWOKt0XlA5MwgGysi3jUHySxMEp7FuMFMwoWx2xSTIzwaKCSnX7GO3pOOqIxSIMlre264RxEitTyiNcG3YH27bjt+HEbUqkq7wvkVFSCrZsDlHZMrG2rKALsKNUhewkKvXIlYYqXF02YTAVFn54Um3/054xt5rJldbFwUlYuF7ZxC8MZs5gORXnzlA9jAFwEhVdhwwEbpM1M3sbpbBwszEU24SwcCOwSTJzBovyK1XhdBi6PnkrYUQ4CHa3hYWblUWiRpCJ57SZCZaqkDXGWH6VcqWhCleXtWdbWLjZGDDG4hEW3g97z2lTJBZhwAwEbpM1M3sbpbBwszEU24SwcCOwSTJzBovyK1XhdBi6PnkrYUQ4CHa3hYWblUWiRpCJ57SZCZaqkDXGWH6VcqWhCleXtWdbWLjZGDDG4hEW3g97z2lTJBZhwAwEbpM1M3sbpbBwszEU24SwcCOwSTJzBovyK1XhdBi6PnkrYUQ4CHa3hYWblUWiRpCJ57SZCZaqkDXGWH6VcqWhCleXtWdbWLjZGDDG4hEW3g97z2lTJBZhwAwEbpM1M3sbpbBwszEU24SwcCOwSTJzBovyK1XhdBi6PnkrYUQ4CHa3hYWblUWiRpCJ57SZCZaqkDXGWH6VcqWhCleXtWdbWLjZGDDG4hEW3g97z2lTJBZhwAwEbpM1M3sbpbBwszEU24SwcCOwSTJ2BmurwnZjBcpNtuqRnW2Eg2ORqEmlPc/CwvXOpsmsBMsZ9LwVtRsr50HVKeti2MIBMIDWwsLNyW47UMLCDcCmyawEy230no6gHPb+37pjU8rRrAylLVNYuNlYJBLVRGYlWK4q6CC086BVfbJytxEOgsGMMU5YOAjWnmdh4Xpn02RWguVNmiiPlfOg6pR1MWzhABgI3KYRFg6K3XaghIUbgE2TWQmW2+g9HYFYhMI1ZShtmcLCzcYikagmMivBclVBB6GdB1Msv0rZBJusmRnMGOOEhYNg7XkWFq53Nk1mJVjepInyWDkPqk5ZF8MWDoCBwG0aYeGg2G0HSli4Adg0mZVguY3e0xGIRShcU4bSliks3GwsEolqIrMSLFcVdBDaeTDF8quUTbDJmpnBjDFOWDgI1p5nYeF6Z9NkVoLlTZooj5XzoOqUdTFs4QAYCNymERYOit12oISFG4BNk1kJltvoPR2BWITCNWUobZnCws3GIpGoJjIrwXJVQQehnQdTLL9K2QSbrJkZzBjjhIWDYO15FhaudzZNZiVY3qSJ8lg5D6pOWRfDFg6AgcBtGmHhoNhtB0pYuAHYNJmVYLmN3tMRiEUoXFOG0pYpLNxsLBKJaiKzEixXFXQQ2nkwxfKrlE2wyZqZwYwxTlg4CNaeZ2HhemfTZFaC5U2aKI+V86DqlHUxbOEAGAjcphEWDorddqCEhRuATZNZCZbb6D0dgViEwjVlKG2ZwsLNxiKRqCYyK8FyVUEHoZ0HUyy/StkEm6yZGcwY44SFg2DteRYWrnc2TWYlWN6kifJYOQ+qTlkXwxYOgIHAbRph4aDYbQdKWLgB2DSZlWC5jd7TEYhFKFxThtKWKSzcbCwSiWoisxIsVxV0ENp5MMXyq5RNsMmamcGMMU5YOAjWnmdh4Xpn02RWguVNmiiPlfOg6pR1MWzhABgI3KYRFg6K3XaghIUbgE2TWQmW2+g9HYFYhMI1ZShtmcLCzcYikagmMivBclVBB6GdB1Msv0rZBJusmRnMGOOEhYNg7XkWFq53Nk1mJVjepInyWDkPqk5ZF8MWDoCBwG0aYeGg2G0HSli4Adg0mZVguY3e0xGIRShcU4bSliks3GwsEolqIrMSLFcVdBDaeTDF8quUTbDJmpnBjDFOWDgI1p5nYeF6Z9NkVoLlTZooj5XzoOqUdTFs4QAYCNymERYOit12oISFG4BNk1kJltvoPR2BWITCNWUobZnCws3GIpGoJjIrwXJVQQehnQdTLL9K2QSbrJkZzBjjhIWDYO15FhaudzZNZiVY3qSJ8lg5D6pOWRfDFg6AgcBtGmHhoNhtB0pYuAHYNJmVYLmN3tMRiEUoXFOG0pYpLNxsLBKJaiKzEixXFXQQ2nkwxfKrlE2wyZqZwYwxTlg4CNaeZ2HhemfTZFaC5U2aKI+V86DqlHUxbOEAGAjcphEWDorddqCEhRuATZNZCZbb6D0dgViEwjVlKG2ZwsLNxiKRqCYyK8FyVUEHoZ0HUyy/StkEm6yZGcwY44SFg2DteRYWrnc2TWYlWN6kifJYOQ+qTlkXwxYOgIHAbRph4aDYbQdKWLgB2DSZlWC5jd7TEYhFKFxThtKWKSzcbCwSiWoisxIsVxV0ENp5MMXyq5RNsMmamcGMMU5YOAjWnmdh4Xpn02RWguVNmiiPlfOg6pR1MWzhABgI3KYRFg6K3XaghIUbgE2TWQmW2+g9HYFYhMI1ZShtmcLCzcYikagmMivBclVBB6GdB1Msv0rZBJusmRnMGOOEhYNg7XkWFq53Nk1mJVjepInyWDkPqk5ZF8MWDoCBwG0aYeGg2G0HSli4Adg0mZVguY3e0xGIRShcU4bSliks3GwsEolqIrMSLFcVdBDaeTDF8quUTbDJmpnBjDFOWDgI1p5nYeF6Z9NkVoLlTZooj5XzoOqUdTFs4QAYCNymERYOit12oISFG4BNk1kJltvoPR2BWITCNWUobZnCws3GIpGoJjIrwXJVQQehnQdTLL9K2QSbrJkZzBjjhIWDYO15FhaudzZNZiVY3qSJ8lg5D6pOWRfDFg6AgcBtGmHhoNhtB0pYuAHYNJmVYLmN3tMRiEUoXFOG0pYpLNxsLBKJaiKzEixXFXQQ2nkwxfKrlE2wyZqZwYwxTlg4CNaeZ2HhemfTZFaC5U2aKI+V86DqlHUxbOEAGAjcphEWDorddqCEheufCxgmsxIsyAEFsQiFfWMozbaEhZuNRaJGkCYXdBG2y7QEKwNkKukgtPNgiuVXKZtgkzUzgxljnLBwEKw9z8LCdcwFFEsYJqMSLA0rwIIufe2hrJwHVaes3W3hQBgI3KYRFg6K3XaghIXrmLUmA0xjmIxKsJSTYIlFKOwbQ2m2JSzcbCwS1bsUWWA86GJsl1EJFjAHTFTSQWjnwRTLr1I2wSZrZgYzxjhh4SBYe56FheuVFSwAVzBMRiVYg5fIYldS1n3NOxDuxMp5UHXK2t0WDoSBwG0aYeGg2G0HSli4frmAZhyYwTAZlWABoPmB1qTdTbEIhWvKUJptCQs3G4tE9SxNTitexp7FMkrmJViK7yvFmGebh7F2Hkyx/CplE2yyZmYwY4wTFg6CtedZWLgeGcWcgv+sKU7MmCLzEiy4p+El7DWxSgbCnVg5D6pOWbvbwoEwELhNIywcFLvtQAkL1ykD14CXlSw0WpZWFHwT7DUtxCIUrilDabYlLNxsLBLVt/4fDZODl4Iuxv0yLsEavEQO+DrwMrBrB6GdB1Msv0rZBJusmRnMGOOEhYNg7XkWFq43Bq5o+MLTl8hgoIxLsAA0TAJ/DeR06ev3sXIeVJ2ydreFA2EgcJtGWDgodtuBEhauP14DvqDwXLNtmIxMsJ6+RBbNV4EbYhEK15ShNNsSFm42FonqTZoC8BKaL5poDboyMsECGHySW1rzURQrWy/u0EFo58EUy69SNsEma2YGM8Y4YeEgWHuehYXrhVFMoPkjrcxbXNQrYxMsABRfxr4e64G/KFTOg6pT1u62cCAMBG7TCAsHxW47UMLC9cM54Esonn3avmbbWBmdYCn73kJ/BkwAYhEKV5+hNNsSFm42FonqS5fR/BEGLiy6XcY3s6FhEmh+BcUQkNj+d42dbGknknpj5cbgjUfY91kskagZ5bYD9zuHsLCprHCuu4LfGrzE16kDGT2DBTB4iTXgc8BXoPhTTG/l4yQq9cgmJBjNzEDgNo2wcFDstgMlLGw4A7e05g+Ab1MnMj7BAhh8kjk0vwN8A217rmIRCleFoTTbEhZuNhaJzFca+H2l+BKYuebVTqqbZjY0jKXhMaX51yjeAYTBmY3QGGP5VcrKjcGJU9h/FomaVW47cL9zCAsbxgWlmQR+X8P/9fSTZl/Uvl11NcYMDWOheRTF7wBvAeJBl2m/MiHBaGYG0BqUEhZuThaJDNYt4A+APx+8ZN8+r55UFxahq8FLFFBcQ/M/AZ/SeNbI0p431hObUo5mZSjNtoSFm41FIhNlz1z9r2g+AfWXXEEdN7OPDNOu4O1oBoFzQEIrArf8KmUFRszkNDOLRM0qtx243zmEhYNmZV9j9SLw24OXeIY6Vl3NYHn19CVWgM+h+LCGPwGuKyjgJC0K+8F0NiHBaGYGAv8ll7BwUOy2AyUsbAanteYzwCDwHHUutftbzNbQMBbQDrwG+C0Nb1Ka9sBH7jJZQ+DXYDQzgzGngrBwICwSBS5NDsUVNH8B/DmKmcFLFIIu1n7VUG1saJik1rxVKT4APAkktDNLF7QV+CBWmNHJNjOLRM0qtx1oZ1tY2C92+t8sMKE1H1X2epdjg0/Wf2LlquHGmKFhwsBRrflFFP9MaR5DEQ26XA+SCQlGMzNgxEyasHCQs7giUQCa0PAs8FmleX7wSdaCLlC11bBNbGiYJPAY8F4Nv6Cg24gRfRtrgu9gm5nBmFNBWDiwLxkikY/KanhJaX4feA7FXCPYgTup4dvY0POEteLNCj4AvBnoR2OJRSjc8Ce/SLSL3HagnW1h4Vox9q8DX9KaTyr48uCTTNLgaooxZmgYS2sOKsVPo/k1FE+ww42jg5AJCUYzM2DETJqwsFiEogZVDhgDngE+BlwZvEQ20BL5pKZqYkPDhLGvyQD16foAABeESURBVHoKeDdwAgh0pNcE38E2M4MZiZ6wcFAsEtVQWeCrWvNxBS8AC4NPBl0k/9SUbWxomLC2Fyf9LaV5C4rDGsJiETYni0TNKrcdaGdbWLgarDRLKL6P5s9QfGnwEmmaUE09xgwN0w38FPAe7HsbtvtdBhMSjGZmwIiZNGFhsQhFDaAs9v0DPw58BbgxeKm+btBcTTV9ExsaJqw1h5Xi3Wjeh+JR3BXufRjpNcF3sM3MYEaiJywcFItEVZFmAcVX0HwSxbeBtcFLQRcqWEkbczQ0jIXmBIpfAN4HDGjs9bPEImxsFomaVW470M62sHAlrKAALADf1jCkNN9txPWs9ioZY7ZpaJg48GateY9SvAU4XMv9mZBgNDMDRsykCQuLRSiqM+WA59F8EcVXgPFmn7HaLmliO8i5v+FB4E3Y9zd8jdKEazHSa4LvYJuZwYxET1g4KBaJKpKmgGIG+9Y2/w57CYamtwN3krSxXTT0PAc1/LxSvAd4DZq4WISNxSJRs8ptB9rZFhZ+COeAOa35soKPa8X3n27iC9jLkYwxZcixDR9F8yGteCtwQrkXwu9TJiQYzcyAETNpwsJiEYoM1oqG5xV8WsPXnr7EQtAFqgdJE6tAQ8P0Am/Avu3O24Dofkd6TfAdbDMzmJHoCQsHxSLRQ1QAJoA/AL4KjDXLKuzVkLSxPciZ0Xo38EvA6zR0ikVYvywSNavcdqCdbWFhh3PKXs/qy2g+Pvgk1xBVLBlj9qiPPE9YKc4A78Ce0ToFhCv9HBMSjGZmwIiZNGFhsQhFBshdduEbwL8FXgRW5AL2vUma2D40NAzYN41+vYb3K3g70A2UPdJrgu9gm5nBjERPWDgoFokc5YDvAh/T8KzSTAw+SSHoQtWzpI1VSY5t+EbgN7XmDUrRrcESi9B8FomaVW470M62cPOxggxwDfgi8O8HLzGDqCqSMabKGhrmFPDT2Pc3fCO72IYmJBjNzIARM2nCwmIRinxWAZjRms+h+LyC7w9eklXYq6mKrxkS7apbwCc0fEPBhzW8U9mLlu58f0O2bQv7n2EJCzczi5pRaxpeUPAxpXgG+zorsQOrLGlmNdTQMFHgdcB7tebnUfTiJFpiEZrDIlGzym0H3u96wo3JCkCTRnEZ+EMNz8h6VrWVjDE1lnMhfDfwdjTvQfFGoN39uwkJRjMzYIRNIywsFqGohiqguY7iy2g+i+LyoKzCXnNJE/NJHxkmqjQDKN4BfBjNCcDSBN/BNjODGYmesHBQLGp4LWl4TsHvAy8DabED/ZG0sQA0NMxj2IuUvhM4pSEcdCfbzCwSNavcdqCdbeGG4QKQBp4DPq7huacvkUbkq2SMCUCObdgO/CjwYeBN4Czr4LzHhMSjGRgwYiZNWFgsQlGVlEFzGcVfAZ/SMCk3ZQ5G0sQC1NAwFpqjGt4KvB94Q9CdbbMxmJHoCQsHxaLGkdYsKMWfA58GLsuyC8FK2pghGhqmX2s+CDylFOeAuAmdbzOwSNSsctuBdraF64+BgoYZZduBH9Oabzz9pMxYmSAZYwzS0DAJDa9R8BTwLjQHUc6F8M57hKvLgBEzacLCYhGK9qA08BLwb7V9IfuMXMBujqSJGaahYSyt6VSKtwLvA96kNfGgO+FGZTAj0RMWDopFdasbwCeBL2m4JtdZmSdpY4ZqaBg0dCv7+qzfRPOoViQUMqMlA4xIVB257UA728Jms4IscA94Bs3vorgl61mZKxljDNfQMGE0j6H4WeCdaC6g7NXgTUhO6p0BI2bShIXFIhTtoiXgWeDT2r7OSlZhN1zSxOpAQ89joUgCrwF+Hftm0u0mdM71zmBGoicsHBSLjFcOuAb8GZq/1DAjF7HXh6SN1ZmGnieJ4k1oPoTizdjracmM1j5YJGpWue1AO9vCZrDTN2WBca35GPAZBeODT8oF7PUkGWPqUEPDWMBR4N3AzwJPaIgHnajUIwNGzKQJC4tFKNqSZgJ4FsXnga8PXiITdJFElUuaWB1raJgE8Bjwc8AHgU4wo9OuFwYzEj1h4aBYZJRyaF5CMaThG0qWXahrSRtrAA0NEwbeCHwIeDNwWMttd8pmkahZ5bYD7WwLB8PAGvCy1nxSKb40eIl7iOpeMsY0iBzbsF/DWxR8SGtepxRJExIYkxkwYiZNWFgswqZUDs0Yiq8BHweuDF4iG3ShRNWRNLEG09AwUTTnNPyMUrxXa84F3YGbzGBGoicsHBSLAlMW+KqGjyl4cfASc0EXSFRdSRtrUH1kGEvBKeC30Pw0iqNA1IQO3TQWiZpVbjvQzrZw7VnBgobvK3sV9s/JBeyNKxljGlxDw3QDb8K+EP7t2Ms6GJHYmMCAETNpwsJiETa8cti3t/ko8DXghqzC3tiSJtYEci6CPwj8DPB+rXkMCAfdsZvAYEaiJywcFIt8kGZOK76q7OusvgusDV4KulCiWkvaWBPJWRH+KJp3o/iA1pxQiiiY0dHLACMS+Su3HWhnW7h6rKCgNQtK8QLwB8ALYgc2l2SMaUINDRMHngSe0vA2BYfdv5mQ8PidXJkwkyYsLBZhQykHvAB8Gnhm8BJjwRZHFISsoAsg8l/Ot6jnNPzPwIe15kVwvllpzxubgaE02xIWbjYWVU+aAjAB/N8a/jnwCZDkqlklzUzE0DC9wM+geR+K12hNYuubLsWTpFFZJGpWue3A/c4hvGfOAXNovgB8Uiu+/7RcwN70kjFGBMBHhokqzaMo3o/9a8MTGsJBJz9+JFcm2DTCwmIR1q1WgOfRfForvvb0JRaCLpDIDEkTE21paBiAbuD1wPs0vFNBHMwYCGo1uJiQ6AkLB8WiPasAjKH5Q+cXguOyCrvIK2ljoh01NExcw7sUvBd4A9BpwmAgA4xIVD257UA728JlcU7Z61l9Gfjk4CWuIBLtILnIXbSjnAvhPwP8BvC/A5eVti+ENyEpqmZypbWwcHOy2w6UcDlcQDOn7MTqw8BvgyRXogdLvsSLHqqhYUAT14ofRfNLwDuB/qCtPbEIhYWrw6IypCmgeBF7odCvaZh8+hKFoIslMlvSxkRly1k/6/XAb2h7Ha1eBZYJg4QMMCJR5XLbgTu5JVzKyl6+5jqaz6L4D4OXmEEkKlMyxogq1tAwR4G3Au/R8EblXghP8MnSXpIrE2bShIWDnMUV3acCcA/4HPB54KXBS6wFWyRRvSkcdAFEdSjNBIo/B76h4ENo3oViAI0VeMa0lwxLWLiZWVQqzRqK59F8XCueUbAyKHagaA+SZibalz4yTFjBY1rzPqV4t7ZtwzCYkT+Vm2OJRM0otx2YYskFxU5fkAauAb+rNc8qWBh8EpFoz5IxRrRvDT0PKJLAO7TmKaV4UkN30IlTucmVCTaNsLBYhIGpAFxB8xUUnwWuDMoq7KIqSJqYqGoaGiYKHEXzNhS/DpwBLBMGkYcNLiYkesLCQXGTa0XDswr+EHgJSIsdKKqWpI2JaqKhYc4B70Xz8yhOaYgGPZDIACMSlcptB9rZbhIuYNuBzwEfA74xeIkVRKIqSxYaFdVK14EhFP8c+JKyf5FTMCGh2p5caS0s3JzstgPVPJwFvo+9SOhvAF+T5EpUK8mXeFFNNTSMheYwircAHwDeiJPYi0UoLBw8N5GWgE8AnwYuy7ILolqrCduYKCgNDdMJfBB4Cs0FFAkZYESi4OS2A3dyq9GY4npWz6H5qIYXnn5SLmAX+SMZY0S+ylkN/gmt+TkFPw8cRQW3GjyYMZMmLBzkLG6DKo1tB34UeBaYkwvYRX6q8ZuYyDgNDWNpaFfwU8D7gTdrTVIsQmFh/7khpbmlFZ9S9irs1wcvkQ26SKLmU0O3MZHZGhoGoB37tju/juYJrUgqn+9vKBI1q9x2oJ3temYFOWAceFbD76K59fSTMmMlCk4yxogC19AwFvAY8A40Pws8gXIuhKf2yZUJNo2wsFiE+9KK1nxNwWc1fOPpJ1kIukAiUWM1MVHdauh5LBQJNI9p+HWleJvWdELtBxcTbBph4aC4rqXJobiC5mMovgTck1XYRaaoIdqYqLHkXAj/pIYPKXgL0Am1m9ESiZpVbjvQznY9sNNus8AYmo9pxeeA8aflAnaRYZIxRmSk3PWztOJngKcUvEZDohbJlQk2jbCwWIRlaxLNMyg+DTw/eIlM0AUSiXZS/TYxUVNoaJgEcA54j4ZfVdAL1R1cTLBphIWD4jpSRmteVjCkFc8rmJFlF0Qmqw7bmKgZ5VwI/wbg/Rp+WsH/397dhthZpncA/91hCEGGECQEkSA2iIiEIFuR4AxSxC4iImnxZV1XxS7LEqQUWU72Uyn9VLoHWZb9IK21WSu76prGIiFIuiwic0QkFRHZBgkiIUiQIYQQwjCEufrhnJhofcnLzDxnZv4/CPwPGYb7DDyc67mv+1zP1mLdGvuAiVhU56+DGr0ex4w5vF/lt63Z15vy+eW9y4hu5DMmVozR/KzNjbuq7G7crtl4tcXVOLRpkpPTIvx/zuFTHMQLyse96bQDY+UY/0ss4iv6AxO4CbvwWJXtaREmJ19ZHlNzOFDsbbyrnOxNd72kiMsz5tdYxDcbDSq9CbuV+4sbW7N+lXzARCy589dBjV53mUdO4T28pOzLjlWsZPmMiRWvP2NTsbPxKB7QhvOzLrW4Goc2TXLyGm8RzuMTvIADOJp5VrHSjdclFnGFRmMdtmh2GT7f8LYq69MiTE7+9ty5Mqt5Q3lJ8x7O9qa6XlTE1RubayxiMYwmwl+n/HWxu7FNs4Ex/oCJ6Mj566BGr5crNxaUk8U7rXlWOdybdnbR3ljEGMhnTKxKo2nwd+AR3Ffc+E3F1Ti0aZKT11CLcA7vVXm5NQd7U451tpKIJbSu6wVELIXelDllpvgH/F3jbUYHZusrP9ySk9dwXi5lQTmOfy12t+Y3pLiK1au7e5iIZfSLgc2t3K95qsrtrbmm6zVFdG2ZWoTnMIv92IsPe1PmF/WNRIyhFFixZlw0P+sp3G/4CJ6JcWjTJCev0hbhqeKdxsuG3w48lQPssVakwIo1pz9jk+EU+MeVh6vZcP5COH9Hn5y8VvISWSiONp4rDjSOZdcq1poUWLFm9Qc2FPc2foydyuZcEbGWnC+0avT6arNhO/Ao9hcv7ZlyZImWHjH2csg91qzelLnGG/hb/CM+4MLk6KoLP5ucvBrz+fuJdvV5AZ/X8JzV0/inJsVVrG25X4/wxW7Wba08pnkQ141D+yY5eanzVSsLmncND7AfKo7vmbKwWL8+YqVKgRVxkf7Aeuyo8vPW3InrZKc3Vqnzhdb5za3LzGcbH+NV/Btmc4A94oIUWBFfoz/jOs29hoNK76pyTdff9kpOHpNvES7gM/we/4n3e1N5KHPEV010vYCIsdScwO8wg6caP8QNWPel25Lk5JWeL8/ZYqaVvdW82TjdSzsw4mtlByviO4weJH1LNU81fmDYNszNSax4l9IiHH1InMFHyq80byqnetPLu9aIlSYFVsQl6s+YPN82LO5uXDsOLZ7k5CVsES7gT8p+zetVPtwznR2riEuRAiviMoymwW/FPXhGuVkb7mZddLefnLxi8tcabmOdruZQ45f4CGfSDoy4dCmwIq5Qf+BG/KjKQ625Bes7XlLEZfmaFuECTuOPeEF5qzftbFfri1jJUmBFXIX+wCR2FD9pfN9orMM4tH6Sky+zRThX5aPWvFa80jieHauIK5cCK+IqjQ7Bb6nmrsZPcVcx0XXrJzn5UluEVU5qftN4uTiyZ8oZEXFVUmBFLKL+wEY8gUeVHZrJrtcU8Q3Oz7P6A/YqM70cYI9YNCmwIhZZf2C9sh1/pXkC1xuNdRiHllBysuHYhffxHN7C52kHRiyuFFgRS6A/sA6TmMaPlXs0G8ehJZS85vMRvIx9xcd7ppwTEYsuBVbEEhsdhL8bzxS3NTbK8w1jOZVzmuPKgWp+jaN5IHPE0kqBFbEM+gNwa5UH8FBrdlSZ6LpVlLwm8mkcNNy1mulNOSkillwKrIhl0h9QZbI1N+MZ3Ftlc2tj0TZKXn153vDxNi9q9hmes0o7MGKZpMCK6EB/YAPuxJO4v9jU0jaMxVDmcQzPafbjWA6wRyy/FFgRHRkdhN+sPKx5CN/D5Bi1lpJXWi7HNIfwqmE7cE5EdCIFVkTH+gMblJs0jyh/U831Y9RmSl4Zea6V9zXPYgaz2bWK6FYKrIgx0h+4XXlScz9ukLZhfLs5w3lWL+KN3pQTHa8nIkYmul5ARHzJ+5pP8N/YjZ2j81ndt5+Sxymfwyd4Ey/U8PE28yJibGQHK2IMjc5nbcMu5THNbWPSikruPs8r+4sXW/MeTvamRMSYSYEVMcZG87NuUHZXs6uVbZr1HS8rulBOaQ4XLzQO9PJA5oixlgIrYgXoz5jU7BztZt2Pzef/bwzaVclLmZlv5Sj2av4Ln2aeVcT4S4EVsUJ8MdaBB/AUbsf6MWpdJS9+Pon9eAmHq5zdMy0iVoAUWBErzKjQ2oJd2G044uGajpcVi6UsVDPbeLf4Z7y/J/OsIlacFFgRK1R/YEK5Aw9Vc1/j5rFoaSVfeWa+mpnGaziA4znAHrEypcCKWMH6A+uqbGrNHfhZMd3YwFi0t5IvPS8UJxq/q7IXn7RmLsVVxMqVAitilegPXIt7DZ9veCcmu11RXIJzmFV+r3lR+bA3nQPsEatBCqyIVaQ/MGE4P+tJPFDlltZMjE0LLPnifEp5u3i1NQd7U06JiFUjBVbEKtQf2IgdeFL5QTWTY9QOW+t5oXFMebaag214zipT2CNWmRRYEatYf2A9vm841mFa2ZKrvjPncBT78GJvytGO1xMRSygPko1YxUY7IwfxDP6+OMyFr/xXXfjZ5CXLC/jccJ7V00WfFFcRq13uZSPWiP7ABmwfTYN/EFvHpGW2mvM5vIfnlT9oPutNWRARq14KrIg15hcDE61s1/wMf4HrMNHtqladsziCV5V/702b7XpBEbG8UmBFrFH9getwt/Io7i6uGaNv2K3IrCxoTlR5Ba9pPsgU9oi1KXetEWvXCezTvIMnlMcNRzys+9KtV/Kl5rOat/F8a/6I02kHRqxd2cGKiOHzDcstxaONH2m2yg3YpTqDD/Fr5VBv2smuFxQR3UuBFRFf6M+YxD2aR3APNo9D621M8zkcqbK/Na+PprBnxyoikAIrIr5iNA1+C+5ReppbjHazxujbeZ1mnMKhKr9szZ9wJu3AiLhYCqyI+Eb9GTdoHq7yaGu2Y33Xa+rQgnKmONTYi7d60852vaiIGE8psCLiW43mZ+3ATwynwm/FujFq1S19LnP4sHit8UrmWUXEd0mBFRHfqT+wrtis3NWaJ3FvMdF1q26Z8iz+A78tjuyZyq5VRHy3FFgRcVlGD5L+4Wgi/G2Y7HpNi62GD2Q+gUOG7cCZ7FhFxOVIgRURl230EOlblF2ax3GD0fmsztt5V5kNxy4crvIvo3lWsymuIuJypcCKiCvSH2C4e3UnnsR92DRGrb0ryUfwsrJP83Fvyrlv+RNERHyjFFgRcdVG87N24uf4nmYT1nW7qktU5jWf4QB+VXyyJztWEXGVUmBFxKIY7Whtq7KrNQ/h9ioTXbf8viOfwsEqL7dmpjfl1KL9QSJiTUuBFRGLpj9AuUZzs7IbuzRbGIv238X5nOHjbV6q8kpjtjeddmBELJ4UWBGxJPoz1hd3tObHhuezrtX98w3nlGOa51XmWUXE0kmBFRFLZjQ/a1PjwSoPtWYnJjtqCx7Dm8prmrd7U+aX7I1HxJqXAisiltxoGvw2PICnleu14SH4JW0FFtXMNw4Xfcw0TmbXKiKWWgqsiFg2/YF1uHk0P+svsR0bDWdoLc63Dss5zVllVvMOXsfbvSmzi/L7IyIuQQqsiFhWo4Pw6zVbazja4c9buRU3VbOlDWdrXe6zDudxsvis8TH+p8oHrTmM09mxiojllgIrIjoz2tHaOPp3E7Ypf6a5tdja2IJri2vahR2ueeW05nPlM82n+F98qnyK45rTmOtNLf97ioiA/wNddm9BIuJQ2QAAAABJRU5ErkJggg==;" vertex="1" parent="1">
                    <mxGeometry x="952.6" y="1137" width="210" height="210" as="geometry"/>
                </mxCell>
                <mxCell id="130" value="Local" style="text;html=1;strokeColor=none;fillColor=none;align=left;verticalAlign=middle;whiteSpace=wrap;rounded=0;fontColor=#333333;fontFamily=Comic Sans MS;fontStyle=1;fontSize=31;" vertex="1" parent="1">
                    <mxGeometry x="860" y="496" width="190" height="30" as="geometry"/>
                </mxCell>
                <mxCell id="131" value="" style="shape=image;verticalLabelPosition=bottom;labelBackgroundColor=default;verticalAlign=top;aspect=fixed;imageAspect=0;image=data:image/jpeg,/9j/4AAQSkZJRgABAQAAAQABAAD/2wCEAAkGBxIHBhUTERMWFhUTGBoYGBgXFxYXGRgYFxgaFxcdGRoYHyggGh4mGxcYIT0iJykrLi4uGR8zODMsNyotLi8BCgoKDg0OGxAQGi0lICYrKy0uMDArLS0vLi8rLy0vLSstKy0uLS0tLS0tLy8tKy0tLS0tKy0rLS0tLS0tLS0tLf/AABEIAJoBRgMBIgACEQEDEQH/xAAcAAEAAgMBAQEAAAAAAAAAAAAABgcDBAUBCAL/xABIEAABAwIDBAQHDgYABgMAAAABAAIDBBEFBhIHITFBE1FhcRQiU3OBkZIVFiMyQlJicoKhsbKz0TM1NkNUdCU0N4PC8Cdj0v/EABoBAQADAQEBAAAAAAAAAAAAAAABAgMFBAb/xAAtEQACAgECAwYHAQEBAAAAAAAAAQIRAxIxIUGBBAUTUVKRIjIzQkNhcbHBI//aAAwDAQACEQMRAD8AvFEX4mlbBEXPcGtG8lxAAHaTwQH7Rcc5pogf+Zi9oFee+qh/yY/aWng5PS/Yz8bH6l7nZRcb31UP+TH7Se+qh/yY/aTwcnpfsPGx+pe52UXG99VD/kx+0nvqof8AJj9pPByel+w8bH6l7nZRcb31UP8Akx+0nvqof8mP2k8HJ6X7DxsfqXudlFxvfVQ/5MftJ76qH/Jj9pPByel+w8bH6l7nZRcV2bKFjbmpiAHPUqvzltalqZTFh/wcY3dM5t3v+o125g7SNX1VKwzuqoh58aV2XUi+VnZgrHTajV1Grr6aW/r1K0dme0iSurG0lc4Oc/dFLuBLuTH23XPAO5ncbk3UywOKspDtMZOi2ERFiegIiIAiIgCIiAIiIAiIgCIiAIiIAiIgCIiAIiIAiIgCIiAKs8XmdmnMMjXuIp6Z2kNBtqcCQSe8h2/kLAcSVZiq3AHWqqrzzvxK93Yl80ua/wCnP7wbqMeTfHob7cEpWj+Cz7z+K99xqbyLPUtjWmterVLzZz9MfI1/cam8iz1J7jU3kWepbGtNaapebGmPka/uNTeRZ6k9xqbyLPUtjWmtNUvNjTHyNf3GpvIs9Se41N5FnqWxrTWmqXmxpj5Gv7jU3kWepDg1KB/BZ6lsa1Cdo+YfBqbwWM+NILyEcmH5Pe78O9HKXmyVGL5EWzljEVfXaKZjWwsNrtG+Q/O+r1D09Vo6i7GV8COO15Bd0cMTTJPKeEcbd5P1jYgDn3ArKUubNowt1FGjT0ZdSmV+6Np035vfa+hnbYgk8Ggi+8tDtdryx4c0lpBuCNxBG8EHsK6OPYmMSqx0bejgiGiGP5jAb3PW9xu5zt5JJ37guYoX7JlSfA+q8vYh7q4DBOdxliY8jqLmgkeg3XQUf2fsLMk0l/IsPoIuPuKkC5z3OutgiIoJCIiAIiIAiIgCIiAIiIAiIgCIiAIiIAiIgCIiAIiIAqowZ1qup8878SrXVR4W61ZU+ed+Yrodh2n0Ob3jvDqdnWmta+tNa9dHPs2Naa1r601pQs2Naa1r601pQs2Naa1r601pQs/OKYi3DcPfK/gwXt1ngAO0mw9Kpitqn11W6SQ3c8kn09XYOHcFLNomK9LO2nadzfHf9YjxR6Bv+0FDFlN8TaC4Gakpn1tU2ONpc97g1rRxLibAKcZ4czK2CR4VA4F50y1jx8t5sWM+qNzrdQZ1lb+zbDmZfwKbF6ltxG1zadp5n4hI7XOPRg8vH5FVzX1j8QrXyynU+Rxc49rjc26h2chZYfNL9L/T01oh+3/hgX7hhdUTNYwXc8hrR1ucbAesr8KZ7JMG91s5RuIuynHTO3btTd0Y79ZDvsFXk6VmcI6pJH0Bh1IKDD44m/FiY1g7mNDR9wWwiLmnXCIiAIiIAiIgCIiAIiIAiIgCIiAIiIAiIgCIiAIiIAiIgCp6hdatqPPP/MVcKpmndavqPOv/ADFdHsH39Dl95fZ1OlrTWtbWmte+jm2bOtNa1taa0oWbOtNa1taa0oWbOtY56kU8DnuPitBce4C5WLWuBnWt6DCNA4yuA+yPGP4AelRLgrJjxdEGral1bVvkdxe4uPZfl6OHoW9lnBX5gxyKnZu6R3jO+awb3u9DQe82HNctW3sspGZbyrUYpOOLXNj5EsYbWB63y2b9lvWvBklpR0MUNUuOxztsWLsimhw6n8WKla0uA4atNo2/ZYb/AG+xVqs9dVvr618shu+Rxe4/Scbm3UN/BYFMI6VRGSeuVhfQGx/APcfK4leLSVREh6xHb4Ieol32yqjyBlw5mzIyIj4Jnjyn6DT8XvcbN9JPJfSzRpbYcAsO0T+09PZcf3M9REXlPaEREAREQBERAEREAREQBERAEREAREQBERAEREAREQBERAFSjXWxCfzr/wAxV1qj3u04jP51/wCYrp93fd0OV3ptDqbetNa1taa10tJybNnWmta2tNaaRZs601rW1prTSLNnWoXnao6TEWN5MZf0uO/7gFKzJYKD4tWjE4uk+Uxxb3xuJdH6t49I61jn4Ro2wfNZqYXQPxXEo4I/jSvawc7aja57AN57AVZ22SvZheFU2Gwbmsa17h9BniRA9dyHOPa0HmufsPwkVWYZKhw8WmZZpPJ8txcHsYHj7QUPzhjPu9mWeov4r3kM823xY+67QD3krnP4p/w6i+DFfNnHTipPheS5Z2B9XLFRRHg6ocGvcPoREhzvTpvyurQyBlHCXM6an1VLon2E0ocG622d8G0gNNjY6rG3XxUyyqJWGCUv0dbZllb3s5eGsWnns+XrG7xWfZBPpLlLlyMx5jpst0ofUPsXGzGNGp8h6mNG88Rv4C4ud64ozPiVSNUODyFhFwZqmGF/pjIJae9eNpy4nQWmKpExRQiTaKzDJwzEaWopHO4OIEsZtxDXx31egKQZYzBHmTDjNEHBgkexpduLgw2DrcgeNjv61Di1xJUk3R10RFUsEUczHnihy6/TNLqk8lGNb78gQNzSfpELnRZur65odT4RMWHnPNFTn2XAlWUGV1rYmiKGyZtrqFhdU4RO1g5wSxVJt9VtiunlzOVFmM2p5hr5xvGiQW4+KfjW623COLCktjvoiw1j3x0jjEwPeAS1pdoDjyBdY6e+xVSxmRVpmHaXV5cqQyqwwMLgS0+FBzXAcdJEXK43cRcbt6/WXdpFZmSdzaXDA/RYucaoNa297XJi52O4XO5aeHKrM/FjenmWSiIszQIiIAiIgCIiAIiIAiIgCIiAKiql2nEpvOv/ADFXqqGr3WxObzj/AM5XU7s3l0OT3rtHqfrpE6Ra+tNa61HGs2OkTpFr601pQs2OkTpFr601pQs8xGtFHSF5FwLC3XcgH7rqGVkfg1U5rTdp4HrabOb91lI8eYZ8NNvk2d3gcfuN/Qox41QWtAu74rR13Pij1m3qXi7S+NHt7MrVotXB3+9fYxJLwlrC4N32Pwh6JpB7I2l4VW0tW+jN4zpd84bnj6ruLe9tjvVkbZZ24fSUWHxnxYIg8juHRRn1Nk9arWlpn1lS2ONpe95s1rRck9gXgx7NvmdDM6korkdPLGBS5ox5sLCbvOqR536WAjW93Wd9u0kDmvpjCcOjwjDWQQt0xxt0tH4k9ZJuSeZJXA2e5SblTBtLrGeWzpXDr5Mafmtue8kndeylS82XJqfDY9eDFoXHcqLIlYM2bTaiplId0LHdA07w1ofoYR3NJPfISrdXzPguJy5Gzg5wFzC98UjTu1s1WIv22a4HrA4hfQmXsfp8xUAlpnhw+UODmH5r28j+PEXG9TmjTtbEYJppp7mXHcIix3C3wTNux49LTyc3qcDvuoxsjpXUOVnxOtqiqJo3W4amP0n7wpsvGtDeAtff6Vnq4UbaVdnqqnaltCfRzuo6JxDxullbxaT8iMj5XW4cOA33tOs7Y373ssTTj47W2Zz+EedLN3MAm57AVSOyzDPdrPEZk8YRap333lxaRpJPM9I9h7bLTFFU5PkZZpu1CO7LO2cZDZgNK2oqGh9W/wAYl2/otW/S36e/e7ruAbcZ4iLKUnJ2zWMVFUgq/wBpWRG4tTmqpG6KuPx/E8Uy6d/L+4LbncdwB5EWAimMnF2hKKkqZWOy7aGcXeKSscOmt8FJw6UAfFd9MDff5Q7Rvs5fN+0bDjgGeZeiuwFzZ4yNxaX+PcdVpA63cFfGUMZ98GW4ajdeRvjAcA9pLXgdmoH0WWmWC4SWzMsM224S3RBtvTf+C0x59MR62H9gs2wZgGWpzzNQR6BFGR+JWPb1/Iqfzx/Tcsuwf+lp/wDZd+lErfhK/n6FlIiLznpC4OJ5xosKxltLNMGSvtuLXaRq3N1OA0tv2nqva4XeURzZs9pM0Yi2aUyNeAGu6NwAkaOAdcHfxFxY2PYLWjV8Ssrr4SXIg3BFUsEUbwDM3uzmetp2aTHSdE0OF7ue7X0lze1g5unhyPFSRS1RCdhERQSEREAREQBUFih/4pL5x/5yr9VA4p/NJfOP/OV1e6/ml0OR3t8seprXS6IuycQXS6IgF0uiIDxw1NIPA7lzciYf4ZniliPKYOP/AGbyH8i6a6ey2l/+QpHab9FBJIB1k6G7u063LwdvVQ1Hv7v45NJ5jOCz5+2k1LYjaKFwjdIRdsbYxoIA+US8PIHPfwG9W1ljK1Llil0U7PGIs6R1jI/6zursFgOQWXLGCtwLCWxixeSXyvAt0kr98jvSeHUAByXWXEnNvgtjvQxqL1c2ERFmalb7Ttnpx2Q1VIB09rPYbAShosCCdweALb9xAG8WVO0VdU5cxQujdJBNGbOFtJHPS9rhYjgbOFuC+qlwM1ZQpc0QWnZZ4Fmyt3SN9Pyh9E3Hp3rfHmpVLY8+XBqeqPBkXyRtSixd7YawNhmO5rx/CkPIb/iOPUTY9dyArHXzNnLJ1RlOrAl8eJ5syVo8V3YR8l1t+k9tibFWbsYzU/FKR9JO7U+BodG4m5MV9JB69JLRfqcByTJjVao7EYssr0T3G3iYty5A0cHTgn7Mb/3+5cLYJGDi1U7mI2D0OcSfyhSfbfQmpye2Qf2JmOP1XB0f5ntUR2EVQjzHPGf7kOofYeN3qefUrR+iysvrovBEReY9YREQFHbd4g3M8LuboAPZkef/ACUs2GTGXKEjTwZUPA7iyN/4uKhu3Kp6XNzGD+3A2/1nPeT92lT3YzQGjyS1xBBnkfJv6t0Y9YjB9K9MvpI8kPrs5W3r+RU/nj+m5Ztg/wDSs3+y79KFYNvX8jp/PH9Nyz7B/wClJv8AZd+jCq/iLfn6FkoiLA9JrYlNJT0L3QxdLIB4setrNR6tTtze9VhnbOuM4E1pfTQwMkuGuB6c6hvI1XABtv3t38r2KthVrt4/peD/AGW/pSrTFWpJoyzXpbTJLs4xObGcmwTVD9cjzJqdZrb6ZpGt3MAA8VoHDkuZn2XFm0E5pjTxQRsc8ya5DOWNZqdpGjSw7nDiTwIIWxsi/wCntN3zfryLr5z3ZOrP9af9JybT6krjDoU5sm90Okqfc7wa9ouk8I6T/wCzRp0favfsVvZZ90ukk90PBbWb0fg/SXvv1atf2bW7VXmwD+NW90H4zK4VbM/iaKdnXwJnhNgq/nzXW5orpIsGZGIojpfVTX0F3VGADfrvZ27kAQTk2y427CsqdGw2dUu6MnmI7EyW7xZvc8rt5Fw9mCZMp27m/BNkeSbeNINbySe027gFVKo6mXbuWlFX49mnHso4kGVUzX6hdpMcRjkAtexaxrt1943HeN28FWnkfMgzTl9s+nS8EskaN4D22vbsIIPpUDzy520XGIabDwJI6cuMtR/aaXaRYP8AlWAvYXvcW3AlWLlfAYst4MyniuQ25c48XuO9zj39XIADkrTrSuHEpjUtb48DrIiLE3CoHFP5pL5x/wCcq/lVGfcsSUWIvnjaXRSEudYE6HHe7V9Em5vw326r9Lu3JGM2nzOX3pjlLGpLkQ9F5qCagu4cA9ReagmoID1F5qCaggPVL9kEWrMtW75sUTfac4/+Kh+oKb7Hf5vW/Up/xn/ZeHvD6D/qOh3b9dfxlooiL58+jC/MrtMZPUCv0sc/8B3cfwQHKybjBx7K8FQ7TqlYC/TcNDwS14AJJADgRxXZVIbLsx1OWsLHT08zqGUlzZWxueIjwc7cPiG2/tBIuSVbFHmehroNcdXA5vnWbu8E3HcVpODTKQnqRkzLhTMbwKWCQbnsNj81wF2uHaHAH0KmNhsbpM4OcBubTvueW98YA/8Aeoqd5xz3FLSupMOd4TVTtLG9D47WB24uLh4twD12HE2C6GzbJ/vTwg9JYzzWMhG8NA+KwHmBc7+ZJ5WVk9MGnzM5LVkTXIk2JULMTw+SGUXZK0scOxwsbHke1fPFK2XZ5nxnTAnoXbyAbSQvu0uaOd2km3JzbcQvpBR/OOUoM2Yfol8V7bmOUDxmE8frNNhdvO3IgERjnp4PZlsuPVTW6O5BM2pga9hDmvAc1w3gtIuCDzBCyKp8CxKu2cfAV0L5qME6J4gXiMHjfqbvvpdYjfbVwU9w7N1BiUYMVXCbi9i9rXeljrOHpCrKDW2xaM099ztrFVVDKSmdJI4NYxpc5x4BrRck+hcbE854fhcZMtXDu+S14e72WXd9yg2OVGIbSHCGmhfTUVwXSzAtMtiCDp4uHMNbcEgXcOSMG99hKdbcWQaOml2iZ7eWAtEz9Tj5KFtmgnlcMDR2uK+iqKlZQ0bIoxpZG0MaOprRYD1BcnKOVoMq4d0cIu51jJI740jh19QG+zRuFzzJJ7b3BjCSbAbyeoBTknq4LYrix6Vb3ZWG3r+R0/nj+m5bGwf+k5v9p36MKi22LN1LjghhpZWyCMue97fi3IAaGng7cXG43cO2352TZ5psu00tPVOLGPf0jZAC4Bxa1jg4NuRuY0g2PO9lrpfhVRjrXjdC80UWO0TCgP8AnI/U/wDZR/M+1ujp8OeKN5lmcCGnS5jGE7tTi8Am3GwBv1jisVCT5Hoc4pW2WSq028f0xB/sD9KVS7IsfRZMowSSTBG43NzdzA43PpVbbYs2UeNYTDFTTslc2XpHaN4ADHNG/hcl3DsVsa+Mrlf/AJsm2yP/AKe03/d/XkXWzr/Rtb/qz/pOUJ2V5zoaTKsNNLO2OVjnt0uuNXSSue3SeB+OBbjcKf5kpHV+XamJvxpYZWDvexzR95UTVT4+ZMHcFXkVhsA/i1vdB+M6uBfPuyzN0OU62cVIeGzBgu1ty10RfuLeO/We4gKx4cXqs8ENpWy0lGfj1LvFmlHzYAL6QfKXPHrFjfLF62+RngmtCXMj23+Eujo3/JBmae9wiI+5jlIssZUo8ay/TTzmWp1RMcGzTSPja7SAWiMER7jcfF5Lq5/y1758tuhaQJGEPiJ4a2gixPUWlzb8r35KqsnZ5nyM91JVwPMbXE6D4skRJudN9zmk77XA3kg70jcoVHdESahkuWzL1pqdlJAGRsaxjRYNaA1oHUANwXpqGCoEZc3WQXBtxqLWkAkDjYFzRftCrCv2zwmK1NSyukduaJCxoueG5hcXd266kOQMIqdclfiF/CqkBoaRboYQbtYG/Jud5b2C/jalm4NK5GqyJuokyREVDQIiIDC6kjcbljPZC88Di8mz2W/ss6KbZFIweBxeTZ7Lf2TwOLybPZb+yzompikYPA4vJs9lv7J4HF5Nnst/ZZ0TUxSMHgcXk2ey39lxqanbS53kLQAJaWOwAA3wzSXO7z7fuUgXHxOEsx+lma0n+LA4gX0slaJNR7NdOxv21KbFI7CIiqSE4oiA/MbBEwBoAA3AAWAHYAuZXZbosQl1TUsEjvnOiY53rIuuqimxRqYfhkGGR6YIY4geIjY1gPfpAuttEUAIiIAoFtD2exZgpTLTsaypaLiwDWy2+S/lq6neg7uE9RTGTi7RWUVJUz5VwjEZsu4y2Vg0yQuILXjqNnMe0+kdY5WIX0nlfMEOZsIbPCeO5zT8Zjxxa79+YIPNRjaLs7bmQmen0x1IG++5soG4B1uDgNwd1bjyIqnCcRrtnuOXdG6Mnc+KQEMlaOojcbX3Pbe1+YJB9Mqyq1ueWOrC6ex9KIRcKIYHtJw7FacF0zYH/KZMQy3c4+K4dx7wF3MLzBS4xO5lNPHK5gBd0bg4AHcN43cl53FrdHqUk9mbvgkfk2eyE8Ej8mz2QsyKpYw+CR+TZ7ITwSPybPZCzIgPANIsF6iIAiIgOfLgdLLWdK6mhMvHpDFGX+0RddBEQBatfhsGJMtPDHKBykY149TgVtIgNKgwinw4/AQRRebjYz8oC3URAEREAREQBERAEREAREQBERAEREAREQBERAEREAREQBERAFjngbUR6Xta5p4hwBB9BWREBxjlLDy6/gNLfzEX/wCV1aeBlNEGsa1rRwDQGgegLIim2RSCIigkIiIAiIgCIiAIiIAiIgCIiAIiID//2Q==;" vertex="1" parent="1">
                    <mxGeometry x="938.04" y="600" width="233.92" height="110.5" as="geometry"/>
                </mxCell>
                <mxCell id="132" value="" style="shape=image;verticalLabelPosition=bottom;labelBackgroundColor=default;verticalAlign=top;aspect=fixed;imageAspect=0;image=data:image/jpeg,/9j/4AAQSkZJRgABAQAAAQABAAD/2wCEAAkGBxAPDxUSEBIVFhUVFxgXFhUWFhcVGBcWFxgWFhkVGBUYHSggGBslHRgWITEhJikrLi4vFx8zODMsNygtLisBCgoKDg0OGxAQGy8lICY3LTctMzI1LS0vLy8tLy0wKy81LS8tLS0tLS0tLS0tLS0yLS0tLy0tLS0tLS0tLS0tLf/AABEIAI4BYwMBEQACEQEDEQH/xAAcAAEAAwADAQEAAAAAAAAAAAAABQYHAgMEAQj/xABBEAABAwIDBQUDBwwCAwAAAAABAAIDBBEFITEGBxJBURMiYXGBkaGxFDJCUoKS0RcjMzRTYnJzssHC4RVDJKLw/8QAGwEBAAMBAQEBAAAAAAAAAAAAAAMEBQYCAQf/xAA1EQEAAgECBAMFBgYDAQAAAAAAAQIDBBEFEiExE0FxFCIyUWEVM4GhwfAjUpGx0eEGJEI0/9oADAMBAAIRAxEAPwDcUBAQEBAQEBAQEBAQEBAQEBAQEBAQEBAQEBAQEBAQEBAQEBAQEBAQEBAQEBAQEBAQEBAQEBAQEBAQEBAQEBAQEBAQEBAQEBAQEBAQEBAQEBAQEBAQEBAQEBAQEBAQEBAQEBAQEBAQEBAQEBAQEBAQEBAQEBAQEBAQEBAQEBAQEBAQEBAQEBAQEBAQEBAQEBAQEBAQEBAQEBAQEBAQEBAQEBAQEBAQEBAQEBAQEBAQEBAQEBAQEBAQEBAQEBAQEBAQEBAQEBB8QEAIPqDorKuOFhfK9rGjVzjYD1K+WmIjeXqlLXty1jeVFxLeKZJBDh0XaOJ/SSXawDmQ0ZkeJt6qpOq5p5ccbtinCoxY/F1NuWPlHeV6o5i9gcRYkaK4xXegIOL3gC5IAGpOi+ClY9vFp4T2dK01EugtkwH+L6Xp7VVyausTy16y1tPwjJeOfLPLX81h2brpp6drqhrWyW7wbfhv4XVinNy+93Z2eMcZJjFO9fLdLL2iEBAQEBAQEBAQEBAQEBAQEFd2p20o8NFpn8UhFxCzvPPmNGjxNkGY4nvfrXuPyeKKJvLiBld6m4HuQejBt8VQxwFXAyRvN0V2OH2XEg+0IJHHtvzXVFJDhskjBx8czuHhNh/1kHUW4r8vmoNSpnEsBdqQgj8f2ipaCPjqZQy/zW6vd4NYMygzHGN8kpJFJTtaOTpiXE/YbYD2lBER72cUBuewI6dmR7CHXQXjZHelBVvEVSzsJHWDTxXjeTyBObT4H2oLHtpi1TSUhlpIe2k4mjhsXAN+k4gZ2sPeEGZ/lhrmmz6aC41B7RpHmCckHNm+CueeFlJCXHQAyOPsCDQthsfqK2AuqoeykDjkAQC3Kxsc+qCzICAgru2+0X/H0vaNAMjnBsbXaE6uJtyAv7lBqM3hV3817h+j9qy8s9o7onYXbV1c98U7WNkGbeG4BbzyJ1B+Kj02o8XeJ7rHE+HRpuW1OsT/AHXcK2yQoMW3pyy/8g5j3uLA1jmNJ7rbixsPMHNZGtmfE23dfwWtPZ4tEdeu8u/dVAH1L7i9g3+6l0HnKpx+elI9WxBaTm31AQZpvjlma2ANe4Rv4w9oNgXDhIv1y4sln66ZiI27Oh4DXHM3mY6xtt+e6lbGRB1dECMs/gq2jj+LDS4xO2lt9dm+QsDWgDotlxjndB9QEHy6D6g+XQLoF0C6BdB9QEHy6BdB9QEGebz9u3UA+TUxHbvbdz9eyadCBzeeXTXogoGx2x0uJuM0z3FriSSTdzzzLnHNBfjumoi23eB6hxv70FM2m3XVVMC+nPbMGrdHj00d7kHs3R7POdK6eRpFu60EWIAPeNj4i3oUF+3gbYswuABoDp5AREw6C2sjv3RcZcz6oMs2awGoxqodUVUjnAmxJOZtyH1WjoEGmUu7aga2zomnzF/ec0Efi26ejlB7EuidyINx6tKDHMcwmWiqH08ws5h1GjhqHDwIQbVup2jdW0hjmPFJEeAk6uba7SfG2Xogo++ujZHiEbmNA44QTbmQ5wv7LexB5N01O2SvPEL2Z8XBBvkULWfNACDsQEHy6DEd42MmsrXNZnHACxtuo+e725eix9Vecl+nk7HhWCNPgi1uk2/cQr+EYg6lnZMzVhuR1bzHsUGLJ4dosvanBGfFbHPn/fyfoTDa1s8TZGG4cAR6rerO8bw4K1Jpaa27w9S+vLH98Df/ADoz1hHue9ZWv+OHVcB+5t6/o7t0bfz0h8v7qTh/ayt/yCfep+LWrrRc8g9odrKSgymeS85iNg4n2620A8SQocuemPvK5pdBm1PwR0+c9nDZ7a6krzwxOLXj/reOF1uozIcPIr5iz0ydn3VaDNput46fOOyu75G/+LAek3xY5Qa74IaHAfvrR9P1hRtg23xCPyKq6L71p8an/qz6w2XG9oaWhaDUSBpOjR3nHyaM1qZMtMce9Ll9PpM2onbHXdywTHaetZx07+IDIjRzT0c05hMeWt43rL5qNLlwW5ckbJRSIHkxHEIaaMyTPDGDUk+4dT4Lza8VjeZSYsV8tuWkbyrNFvHw+WXs7yMBNg97Q1h9b3b6gKtXWY5nZo5ODamlOfaJ+kd1uY4EXBuDoQrTK7IfGdqqKjcGzzNDiQOEXc4X5uDfmjxKjvmpSdplawaHPnjeleiUdVRiPtC9oZa/ESALdbqTeNt5V4rabcsR1QeH7a0FRP2Mc3e0aS0ta49GuORKhrqMdrcsSuZeHanFTxLV6LDdTKKvYltvh9PL2T5ruvZ3CC8NP7zhkFDfUY6ztMr+Hhmpy05616f3T8E7ZGhzHBzSLgg3BHUFTRMTG8KNqzWdpdVfXxU7C+aRrGjm4gD/AGvlrRWN5l6x475LctI3lAYXttTVVT2MDZHCxvLw2ZcaDPPPrZRU1Fb22rut5+H5MGOL5JiN/Lze7GtqKOiIbPKA427oBc4A/SLRoPFesmalPilHp9FnzxvjrvCRoK6KojEkL2vYdHNNwvdbRaN4QZMd8duW8bS9K9PD807f8f8AytXx3v2p1+rYcPpw2QaNuVxiN0DqYkCSMkgdWE3uPIkhBYtutuYMMZwC0lQ4XbFfQcnSH6LfDUoMOqNqK6SodUGpkEjjmWuLQOjQzQAdLINN3Z7e/KJPk1UGiV3zJQA3tLatcBkHc780FD3lYg6oxWoJJtG7smDo1gtl9riPqg1fdPGz/j43N1tn53N/egu6AgxffrTNbVU8gGb43NJ68DgR/UUHo3Hxm8zuRcB7B/tB49+n69B/JP8AWUHh3Pfr7v4P8gg3pAQfCggNuMb+RUT5Ae+7uR/xu5+gufRQajL4dJle4dpp1GeK+XefSFB3a4CJ+OSUXa4FufNvP2n4Kvo8Xuza3m0uM6yYyVx0n4ev4+X9FT2gwp1HVSQO+ie6frMObXez4FUM2Ocd+VvaTPXPirePP+/mv26bHLtdSvObe8z+E6j0PxV/Q5eavJPeHPcb0vJeM1e09/X/AG0tX2EyLfF+uRfyf83LL1/xQ6rgP3N/X9Hbui/SyenwKk0HaVbj+/NT0lZd4G2HyFohhsZ3i99RG3TiI6nOwUup1Hh+7HdU4Zw72mee/wAMfmoeD7JT4hC+cPJkcS7vZ8XmdblVaaacmPn36tXPxWmmz+DFfdhWm9pDLlxMkY62WTmuB8Od1UiLVt07te3h3pvbaaz/AEX3bevkqMIpXzCz+0HFlbPs3cuSv6uZnDWbd3P8KrWusyVpPTrt6bwpuB4maWUysbd/CQwHTiJGZHPTRU8GWcdpmO/k2dbpo1FIpado33n80jX4BXSxvrJbvPzn3N3Adelh0GimyafLy89lPT8S01ckYKRtHlPlujcCxeSinbNGdCOIcnN5tKgxZZx23he1mmrqMU0t+Hq3Ovx+GnozVSHugAgDVxOjR4lbeTJFK80uKwaa+bLGKvf97yyds1RjlZ+dcQ0fNY3RgOQAvz6nnZZtObU396ejpM04+GYI8ON7T+fzRm02BGhm7N0jH3F8iOIeDm8ioM+Lw7bRO67odZ7TTmmu2376LRsNXVclHUU7XvAEZ7F+YLXWJs13TL0uremm84rR/RkcSrgpqsd9on+aGfkl2ZJJOZJzJJ5klZ0zvO8uj22jaFrdLWYsGwx3bBGAGt5Fw5ut84/BXtsmo6V6Vhib6fhvvW63n06fn0V2upJKeV0cgLXsOfgdQQfYbqnas0ttPeGtiy0zYovXrErZNthWVlPHSQ3Dy20sl7Fw0yP0RbU652V32jJliKU7+csf2DT6S9s+Xt/5hX8bwCei4e1b3X/NcNCRqPAqtmwWxd2jotdj1UTy948pWPdvjszHvpWuye1xi4swyTll0PTwVjRZLdaR+DO41pse0Z9vPr9VWxmtqZpnfK3udI0lpDtGkGxDRoB5Krlte0+819Niw46R4MdJ/fdpe6sQvpsgONhIPnrf1Wpo7ROPaHKcYx3rqZm3aeyk7Y7NVVJM+SW8jHvJ7UXOpyDr5g8uio6jBeluaezf4dr8GakY69JiO3+P3ubC49JR1TQCezkcGvbyucg4DqmlyzS8R5ScV0lc2Cbf+q9W6RvBAPVbDjGa729jHVI+WU7byMbaRg1ewaOA5uHvHkgyHC6yaCZklO5zZAe6W5m5ytbn5INH2N2ElqJPlNaS57jxHiPFn1cfpH3BBZt4GxdPLQySRsDZYWF7XAZkNFy09QQCgxbAJHNq4CzXtGW+8L+66Ca3k4a6DEXuIPDOBK09bgBwv4OB9oQTG6vbFtFIaeoNopDdrzox569GnryKDc2OBFwbg80HJBhG+jFWzYg2JpBEEfC4j67jxEeg4UF53SYSYKMOcLF3eP2s/hZBUd+n69B/JP8AWUHh3Pfr7v4P8gg3pB5cTrmU0Mk0hsyNpe62tgL5eKDpwTF4q2Bk8JJY8XHELH1HJBlO83FzV1ogju5sPdAGd5Dm4+mQ9CsnV3nJfkr5Os4Tgrg085r9N/7eTqwnH8UpYwyGABoFs4ST7br1XJqKxtEI8mm0GW83tfrP1Ru0lZW1hEtTDYsbbibGWd29+96/FQ5vFv71o7Lmi9lw+5ivvv5bo3CMQdSzsmZqw3I6jmPYosWSaXi0LeqwRnxWxz5v0JhlY2eJkjDcOAIPmt6JiY3hwV6TS01t3hlm+L9di/k/5uWXr/ih1HAfub+rt3RfpZPT4FS6DtKt/wAg+Kn4qxtpO6TEqku5SFo8m2aB7AqmotvllscOrFdLSPo03ddIHULbai4PoStPSzE4quW4pSa6q+/76Qmpdm6V0xm7Noe43cQBcnqSpYpWJ5ojqqTnyTTkm07KrvdhayihDRYdt/g9VNf8EerX4D9/b0/WGf7J0wlrI2nS5PsGSp6Su+WGxxfJNNLbbz6Nzq4GspZG2y7N39JWxf4Zcfh+8r6w/OUeg8guf/8AT9CvO28tB3iyltHSR8jxuPm0AD4laOtnalYc3wKsTkyW/fWVX2bbUvkMdNJwOeM3DJ1h0Iz58lW08XtM1rOzT4jbDjrXJlrvt29ZX/A93TG9+clztTxZ5+X4rQx6Sles9Zc9qeLZssctfdj6LvSYbFC2zGgZWVnyZm8zO8vztUiz3AcnOHsJXPW6TL9DxzvSJ9G1bvMPbHSMdbMtHvzK3cNdsdYcLrsk31F5n5z+XRQN6jQMTdbnFGfXvD+yzddH8R0vBJ30v4ylt01A15fI4Zh1vQAf3JVnQV92ZZvHskzlrT5Ql98TR8ji/nC33Hr7rvu49XjgX/0T6KNu/bevZ5H4tVXQ/etXjk/9X8Y/VO72MB7KVtUwd2TuyeDwMneoHuXvW4tp54V+B6qLVnDbvHb0QewWNfJKxtzZklmO8/on25eqi0mXkvtPaVvi2l8bDNo716/5avtvPG3DZ3PsQYyAOrnZNA8b2WnqJiMc7uZ4fW19TSK/NjmylA6eqYAMmkOPpp71maTHNskfR1HFdRGLTzHnbpH6t+p4+FgHQLZcWhdt9om4bRPmsC89yNp+k86X8BmT5IPzxh2LywT9u3hc8kl3E0EHiNzlyv4INRwbfBThobUUz2EamIh7fYbFBx2r3q0s1JJFSslL5WFnE9oa1ocLE6kk2vkggN2Gyr5pm1D2kNb8wHn+95dEGo7abJRYlSiI92RmcT/qutax6tPMfgg/PuM4RPRymKoYWuGn1XDq08wgsOyO8Krw4CM/noRox5N2jox/IeBuEFmxzfEXxcNJAWPIzfIQeA/utHzj4n2IK7sXsjPWziacO4S7jPFq9xNy51+V8/FBvVDTNijDRyCDEt9dWyTEWNY4Hs4QHWINnFzjY+Nre1BF7tMYhpK7infwMc3h4joDcHPoEGzv26wputbD96/wQULeft/TVNKaWjeX8ZHaPAIaGNN+EE6kkDwtdBM4LirMNwRryR2hYBG0nNzyMsugvc+Shz5Yx1mVzQ6W2oyxWO3nP0Vnd3h/yiqMkhvbqcy52bj/APdVS0Ub3m8tzjeWa464qx0/SGyNpYx9Eexabl3CpoYnsc17G8LgQcuRFivltpjaX2lpraLV7w/PuN4caWpkhvfgcQDe926tPsssLLTkvNXfabNGfFW+3df91O0AsaSQ6Zx3Oo5t9P7q/os28cksDjWjmLeNWOk90TvcmDq9rR9GFoPmXOPwsoNdO99lzgVdsEzPnLv3RygVEjScyAQOuuik0Fo6wr8fpb3LeXVGby8KdT4g99u5P+caeV7APHnfP7Sh1lOXJv8ANe4PnjJp4rHevd17FbWOw55Dml8T/nNGoP1m3+C+afUTi6T2OI8NjUxzVna0LVjO80PaGUETjI7IOkAsPJoOZ88lavrN+mOGZh4Ly+/qLbVh5d5OIPloKXtQGyOfxOaNO6wgkeFyvmsn+HWJ7vXBKR4+SadY2/VWdgpGtr4+I2uCBfrkbe5V9FMRk6r/ABqs20vu+Ux+rZNpqoQ0NQ88on+0tIA9q1Ms7Uly2lpOTPSsfOH58gsHNvpcX8ri6wq/FEu9y9aW2+UtR3gYWZsMimjz7E8Rtn3HCxPkDYrU1lefHzR5OV4Lm8LUTjv05un4s2wyvfTTNljPeab+BHMHwKzcd5paLQ6bUYK58c47+bT2b06bsbmGXtLfNHDw3/jvp6LR9upt26ubngWbn23jb5/6e3Yzaapq2SyVLGtZm6MjKzQMwb6jx5qXDkves2tG0Kuu0+HDkrjxTvPn6sblfxFx6kn2klY0zvO7s6xtEQ3rYqVrqKMtII4Rp5aLexTE0iY+TgdVWa5rRb5z/dl28+dr8Tk4TfhYxpt1AJI96y9bMTldXwak10sb+cytG6CRvZyC44g43HPOyt6KY8Pb6sfjlbRni09ph93yzjsaePmZHO9Gt4f8l518+7EJeA0/iXv8o2/qqu7ct+XjiIB4cr88woNDMRfqu8ci06eNo82wY5hjKymkgfo9tgejvou9DZaeSkXrNZczp89sGSMle8Pz3WUz4ZHxSCz2OLXDxGSwbVms7T3d7ivXLSLR2lPVuM1WJsgpgMowL/vO043emg8SrU3vqNqRDLrgwcP581p79v8AENL2L2ZZSRgkd453OpPVaWLFGOu0OZ1eqvqck3t+EfRawpVZGY/gNPXx9nURteAbtJ1adLtOoKDPcS3PxkkwTPb4Os4figg5d0tWDlKw/ZP4oJfZ/dTwPDqh3HblazfZzQajh9CyBgawIPUgitosLpKiBwq2sMbQSXPsA0D6XF9HzQYHiUWDtnLYZKl0d/nBrbfZ4u8QgvuxOBYLMQYJWPk+q/KQfZf/AGQabS0jIhZgsghtt9n3YjS9i2V0ZDw/ibztccJzGRugzuPc8/8Abn7o/FBz/I+79ufuhA/I+79ufuhB1ybn5OU59Wj8UEviO7d8rw8SkZAcNr8NgBkSfBU8uk8S3NMtnS8XnBijHFYnZ5Xbr5Rm2bPrwj4gqP2GI7WT/bsz0tSJaNgFE+CnZG8klgDbnPIZaq9Wu0RDDy5PEvNp80Vtvs0/EI4wyVzCwk2Gjg4DI5+CizYfEjut6HWxppmeWJ3U5m66T9r/AOoVb2CPm0ft6/8AJDi7dfMNJfd/tPYPlZ9+3ZmNpo5DdlM4kvmJJ1JFyfMk5r77BE97Pn27MdK0iHODdpNHI14mPdIOQscvEHJK6LlnfmecnHLXpNZpHVfMYwGOtphFUC51Dhq13UFW8mOuSu1mTptTk09+ek9WcVW7Koa+zJAW8jw5/FUZ0HXu3Y4/XbrTr6/6WnZfYSOmPE/vO6nXy8AreHT0xdu7I1nEMupn3ukfJHY/u8kqKl8oncWuNwCL8A+qLnQKHJo+e3NMrmn4xOHHFIpHT80e/dfLym93+149gjylP9v2nvSP36pvHNi5qqngjM7x2TeEtzcHaWcbnNwtr4qfLp+eIjfspaXiXgXtfkiZmd/RCfkukt+mP3R+KgnQR81z7ev/ACR+a27GbNvoonxSO4muJNjpmLWtyFlaw4vDry92XrdXOoyxk22VzH92V3l9K/haTfgIuB4NPTwVbJoYmd6zs09Px29K7Za831cME3bEPDpzxW5WsPZzXrFoq1ne3VFquNZMscuOOWPzWbaXZL5TSthhkdHwuuQNHi1uFwvmOanzYvEry77KWi1fs95vNeZUxuuk/an7oVX7Pr82n9v33+FMbObFT0rZmds4CZhbxNy4cj3gAdc9fBTYtNNKzG/dT1XE/HvS00j3fzQ/5L5bm8xPjYZ+Oqi9gjzlcnj1u0UjZ68G3fTU1SyVsp7hvYd2/gbHMeC94tHFLc26DU8XnPinHNI6+blje7uWoqHymoc7jJI4hfhBN+EEnQL5fR89t5l6wcZnDjilaR0eF26+UaTe4A+huvHsER13S/b0zHWkNFZO2kpuKokDWxtzc48hl6n4q9MxWOrDpS+a/LSN5lkGNPOMV7pKaIsabNLjqbfTcPrEWy6Wusu1Z1GTesdPm6nHkrw7TxXLO9vKGkbJbKx0jASLu1N9SepWlixVx12q5vVarJqL8959PotCkVnIICAgICAgIKxtjs/JiHZxuktTt7z423BleD3Q53Jg1sNTbogj5t2WHvj4TGGnq27SPUIKPtFuoqIe/SP7QDMNdk8eTtD7kEZhe3OK4Y/spS54H/VUAk2/df8AO95CDQ8A3r0NRZtRenf+93o/vjT1AQWqv2gpYaZ9SZWOja292uB4jyaLak6WQVbdZUTzxzVExN6iV0tibgA2a0DoABl4WQX5AQEBAQEBAQEBAQEBAQEBAQEBAQEBAQEBAQdcsga0ucbBoJJ6AZkr5Mxs+xEzO0MF2s2nmxGUlxIiaT2cfIDk49XH3LFz57ZJ+jt9DoKaavSPe85/fk8lJj9VCAIZTGB9UNH9l5jUZKxtE9Hq3D9Pe02vXefq7XbVYgdaub734L77Tl+Z9naXyxwl9l9rMQ+VRtdO+Rhd3mvsRw2zztcKfT58lskV3UuIaHS009rxWIny9W1ROu0HqFquSc0BAQEBAQEBAQRmMYBTVjOCeJrx4jTyPJBmuPbocy6klsPqPu63k4Z+26CKw7dRUl47ZzeG+YaDn6nRBseDYa2miaxoGQAy8OSD3oCAgICAgICAgICAgICAgICAgICAgICAgICCC21Exw+dsDC57m8IA1s4gOI8m3UOaLck8q3oJpXUVtknaI6qrs7u+hMYdMLnne+vPLRR49JjrHWN5WtTxbPkvPJbaPJZYNjaJmkTfuhTRjpHaFG2qzW73n+rpxnBqCmp5JpIW8MbS4jhGfQacyvl4pWszs94JzZcsUraesqtu52fLnmolbYuNwLW4QTcC3L8LKDS4uWJvMdZX+L6qL2jDSd4r3+stQAVxjPqAgICAgICAgICAgICAgICAgICAgICAgICAgICAgICAgICAgICAgIPhCAGgaIPqDi+MOBBFwdQg4QU7YxZosg7UBAQEBAQEBAQEBAQEBAQEBAQEBAQEBAQEBAQEBAQEBAQEBAQEBAQEBAQEBAQEBAQEBAQEBAQEBAQEBAQEBAQEBAQEBAQEBAQEBAQEBAQEBAQEBAQEBAQEBAQEBAQEBAQEBAQEBAQEBAQEBAQEBAQEBAQEBAQEBAQEBAQEBAQEBAQEBAQEBAQEBAQEBAQEBAQEBAQEBAQEBAQEBAQEBAQEBAQEBAQEBAQEBAQEBAQEBAQEBAQEH//2Q==;" vertex="1" parent="1">
                    <mxGeometry x="1072.5" y="734.5" width="117.5" height="47" as="geometry"/>
                </mxCell>
            </root>
        </mxGraphModel>
    </diagram>
</mxfile>